<svg width="120" height="40" viewBox="0 0 120 40" fill="none" xmlns="http://www.w3.org/2000/svg">
<g clip-path="url(#clip0_8_1116)">
<g filter="url(#filter0_d_8_1116)">
<rect x="5" y="5" width="110" height="30" rx="15" fill="#9DC130"/>
</g>
<path d="M51.4933 23.952C51.4053 23.976 51.2653 24 51.0733 24.024C50.8893 24.048 50.7053 24.06 50.5213 24.06C50.3373 24.06 50.1733 24.044 50.0293 24.012C49.8933 23.988 49.7773 23.94 49.6813 23.868C49.5853 23.796 49.5133 23.696 49.4653 23.568C49.4173 23.44 49.3933 23.272 49.3933 23.064V16.728C49.4813 16.712 49.6213 16.692 49.8133 16.668C50.0053 16.636 50.1893 16.62 50.3653 16.62C50.5493 16.62 50.7093 16.636 50.8453 16.668C50.9893 16.692 51.1093 16.74 51.2053 16.812C51.3013 16.884 51.3733 16.984 51.4213 17.112C51.4693 17.24 51.4933 17.408 51.4933 17.616V23.952ZM59.6375 23.748C59.5255 23.86 59.3615 23.944 59.1455 24C58.9375 24.064 58.6855 24.096 58.3895 24.096C58.0935 24.096 57.8135 24.052 57.5495 23.964C57.2855 23.876 57.0695 23.664 56.9015 23.328L55.7135 20.904C55.5935 20.656 55.4855 20.424 55.3895 20.208C55.2935 19.984 55.1895 19.728 55.0775 19.44L55.0055 19.452C55.0375 19.884 55.0535 20.324 55.0535 20.772C55.0615 21.22 55.0655 21.66 55.0655 22.092V23.952C54.9775 23.976 54.8415 24 54.6575 24.024C54.4815 24.048 54.3055 24.06 54.1295 24.06C53.9535 24.06 53.7975 24.048 53.6615 24.024C53.5255 24 53.4135 23.952 53.3255 23.88C53.2375 23.808 53.1695 23.712 53.1215 23.592C53.0735 23.464 53.0495 23.3 53.0495 23.1V17.1C53.1615 16.94 53.3335 16.82 53.5655 16.74C53.7975 16.66 54.0455 16.62 54.3095 16.62C54.6055 16.62 54.8855 16.668 55.1495 16.764C55.4215 16.852 55.6375 17.06 55.7975 17.388L56.9975 19.812C57.1175 20.06 57.2255 20.296 57.3215 20.52C57.4175 20.736 57.5215 20.988 57.6335 21.276L57.6935 21.264C57.6615 20.832 57.6415 20.4 57.6335 19.968C57.6255 19.536 57.6215 19.104 57.6215 18.672V16.728C57.7095 16.704 57.8415 16.68 58.0175 16.656C58.2015 16.632 58.3815 16.62 58.5575 16.62C58.9095 16.62 59.1775 16.684 59.3615 16.812C59.5455 16.932 59.6375 17.188 59.6375 17.58V23.748ZM63.2581 21.108C62.9061 20.988 62.5861 20.868 62.2981 20.748C62.0101 20.62 61.7621 20.468 61.5541 20.292C61.3461 20.116 61.1821 19.908 61.0621 19.668C60.9501 19.42 60.8941 19.12 60.8941 18.768C60.8941 18.088 61.1541 17.544 61.6741 17.136C62.2021 16.728 62.9381 16.524 63.8821 16.524C64.2261 16.524 64.5461 16.548 64.8421 16.596C65.1381 16.644 65.3901 16.72 65.5981 16.824C65.8141 16.92 65.9821 17.048 66.1021 17.208C66.2221 17.36 66.2821 17.54 66.2821 17.748C66.2821 17.956 66.2341 18.136 66.1381 18.288C66.0421 18.432 65.9261 18.556 65.7901 18.66C65.6141 18.548 65.3781 18.452 65.0821 18.372C64.7861 18.284 64.4621 18.24 64.1101 18.24C63.7501 18.24 63.4861 18.292 63.3181 18.396C63.1501 18.492 63.0661 18.616 63.0661 18.768C63.0661 18.888 63.1181 18.988 63.2221 19.068C63.3261 19.14 63.4821 19.208 63.6901 19.272L64.3261 19.476C65.0781 19.716 65.6541 20.024 66.0541 20.4C66.4621 20.768 66.6661 21.272 66.6661 21.912C66.6661 22.592 66.3981 23.144 65.8621 23.568C65.3261 23.984 64.5381 24.192 63.4981 24.192C63.1301 24.192 62.7861 24.16 62.4661 24.096C62.1541 24.04 61.8781 23.956 61.6381 23.844C61.4061 23.724 61.2221 23.58 61.0861 23.412C60.9581 23.236 60.8941 23.036 60.8941 22.812C60.8941 22.58 60.9621 22.384 61.0981 22.224C61.2341 22.056 61.3821 21.928 61.5421 21.84C61.7661 22.016 62.0381 22.168 62.3581 22.296C62.6861 22.424 63.0421 22.488 63.4261 22.488C63.8181 22.488 64.0941 22.428 64.2541 22.308C64.4141 22.188 64.4941 22.048 64.4941 21.888C64.4941 21.728 64.4301 21.608 64.3021 21.528C64.1741 21.44 63.9941 21.356 63.7621 21.276L63.2581 21.108ZM67.8034 17.844C67.8034 17.5 67.9034 17.228 68.1034 17.028C68.3034 16.828 68.5754 16.728 68.9194 16.728H72.8794C72.9354 16.816 72.9834 16.932 73.0234 17.076C73.0714 17.22 73.0954 17.372 73.0954 17.532C73.0954 17.836 73.0274 18.052 72.8914 18.18C72.7634 18.308 72.5914 18.372 72.3754 18.372H69.8434V19.488H72.5434C72.5994 19.576 72.6474 19.692 72.6874 19.836C72.7354 19.972 72.7594 20.12 72.7594 20.28C72.7594 20.584 72.6954 20.8 72.5674 20.928C72.4394 21.056 72.2674 21.12 72.0514 21.12H69.8434V22.38H72.9274C72.9834 22.468 73.0314 22.584 73.0714 22.728C73.1194 22.872 73.1434 23.024 73.1434 23.184C73.1434 23.488 73.0754 23.708 72.9394 23.844C72.8114 23.972 72.6394 24.036 72.4234 24.036H68.9194C68.5754 24.036 68.3034 23.936 68.1034 23.736C67.9034 23.536 67.8034 23.264 67.8034 22.92V17.844ZM74.0417 18.408C73.9857 18.32 73.9337 18.2 73.8857 18.048C73.8377 17.896 73.8137 17.736 73.8137 17.568C73.8137 17.256 73.8817 17.032 74.0177 16.896C74.1617 16.76 74.3457 16.692 74.5697 16.692H79.8017C79.8577 16.78 79.9097 16.9 79.9577 17.052C80.0057 17.204 80.0297 17.364 80.0297 17.532C80.0297 17.844 79.9577 18.068 79.8137 18.204C79.6777 18.34 79.4977 18.408 79.2737 18.408H77.9417V23.952C77.8537 23.976 77.7137 24 77.5217 24.024C77.3377 24.048 77.1537 24.06 76.9697 24.06C76.7857 24.06 76.6217 24.044 76.4777 24.012C76.3417 23.988 76.2257 23.94 76.1297 23.868C76.0337 23.796 75.9617 23.696 75.9137 23.568C75.8657 23.44 75.8417 23.272 75.8417 23.064V18.408H74.0417ZM80.3692 20.352C80.3692 19.728 80.4652 19.176 80.6572 18.696C80.8572 18.216 81.1252 17.816 81.4612 17.496C81.8052 17.168 82.2052 16.92 82.6612 16.752C83.1252 16.584 83.6252 16.5 84.1612 16.5C84.6972 16.5 85.1932 16.584 85.6492 16.752C86.1132 16.92 86.5172 17.168 86.8612 17.496C87.2052 17.816 87.4732 18.216 87.6652 18.696C87.8652 19.176 87.9652 19.728 87.9652 20.352C87.9652 20.976 87.8692 21.532 87.6772 22.02C87.4852 22.5 87.2172 22.904 86.8732 23.232C86.5372 23.552 86.1372 23.796 85.6732 23.964C85.2092 24.132 84.7052 24.216 84.1612 24.216C83.6172 24.216 83.1132 24.132 82.6492 23.964C82.1852 23.788 81.7852 23.536 81.4492 23.208C81.1132 22.88 80.8492 22.476 80.6572 21.996C80.4652 21.516 80.3692 20.968 80.3692 20.352ZM82.5292 20.352C82.5292 21.08 82.6772 21.624 82.9732 21.984C83.2692 22.344 83.6652 22.524 84.1612 22.524C84.6652 22.524 85.0652 22.344 85.3612 21.984C85.6572 21.624 85.8052 21.08 85.8052 20.352C85.8052 19.632 85.6572 19.092 85.3612 18.732C85.0732 18.372 84.6772 18.192 84.1732 18.192C83.6772 18.192 83.2772 18.372 82.9732 18.732C82.6772 19.084 82.5292 19.624 82.5292 20.352Z" fill="white"/>
<path fill-rule="evenodd" clip-rule="evenodd" d="M28.3547 12.3208C28.5923 11.9816 29.0599 11.8991 29.3992 12.1367C29.7384 12.3742 29.8209 12.8418 29.5833 13.1811L28.3678 14.917C29.1573 15.1692 29.6952 15.4413 29.6952 15.4413C29.6952 15.4413 28.3805 17.7028 26.1506 17.7028C23.9206 17.7028 22.3361 15.595 22.3361 15.595C22.3361 15.595 22.8979 15.2364 23.7308 14.9289L22.4073 13.3517C22.1411 13.0344 22.1825 12.5614 22.4998 12.2952C22.817 12.0289 23.29 12.0703 23.5563 12.3876L25.2491 14.4051C25.2828 14.4452 25.3115 14.4877 25.3353 14.532C25.5344 14.5088 25.7374 14.4958 25.9423 14.4958C26.2296 14.4958 26.5167 14.5178 26.7968 14.5551C26.8109 14.5289 26.8266 14.5032 26.8441 14.4782L28.3547 12.3208ZM22.7956 17.8099C22.2005 17.3849 21.3001 16.2756 21.3001 16.2756C21.3001 16.2756 19 18.0982 19 21.963C19 25.8277 22.9764 28.1538 22.9764 28.1538C22.9764 28.1538 24.8763 26.2351 25.3427 23.8029C25.8091 21.3707 24.6528 18.67 24.6528 18.67C24.6528 18.67 23.3907 18.2348 22.7956 17.8099ZM29.2044 17.8099C29.7995 17.3849 30.6999 16.2756 30.6999 16.2756C30.6999 16.2756 33 18.0982 33 21.963C33 25.8277 29.0236 28.1538 29.0236 28.1538C29.0236 28.1538 27.1237 26.2351 26.6573 23.8029C26.1909 21.3707 27.3472 18.67 27.3472 18.67C27.3472 18.67 28.6093 18.2348 29.2044 17.8099Z" fill="white"/>
</g>
<defs>
<filter id="filter0_d_8_1116" x="-5" y="-5" width="130" height="50" filterUnits="userSpaceOnUse" color-interpolation-filters="sRGB">
<feFlood flood-opacity="0" result="BackgroundImageFix"/>
<feColorMatrix in="SourceAlpha" type="matrix" values="0 0 0 0 0 0 0 0 0 0 0 0 0 0 0 0 0 0 127 0" result="hardAlpha"/>
<feOffset/>
<feGaussianBlur stdDeviation="5"/>
<feColorMatrix type="matrix" values="0 0 0 0 0.615686 0 0 0 0 0.756863 0 0 0 0 0.188235 0 0 0 0.7 0"/>
<feBlend mode="normal" in2="BackgroundImageFix" result="effect1_dropShadow_8_1116"/>
<feBlend mode="normal" in="SourceGraphic" in2="effect1_dropShadow_8_1116" result="shape"/>
</filter>
<clipPath id="clip0_8_1116">
<rect width="110" height="30" fill="white" transform="translate(5 5)"/>
</clipPath>
</defs>
</svg>
