<svg width="120" height="40" viewBox="0 0 120 40" fill="none" xmlns="http://www.w3.org/2000/svg">
<g clip-path="url(#clip0_8_1128)">
<g filter="url(#filter0_d_8_1128)">
<rect x="5" y="5" width="110" height="30" rx="15" fill="#5F606D"/>
</g>
<path d="M47.4011 17.844C47.4011 17.5 47.5011 17.228 47.7011 17.028C47.9011 16.828 48.1731 16.728 48.5171 16.728H52.4771C52.5331 16.816 52.5811 16.932 52.6211 17.076C52.6691 17.22 52.6931 17.372 52.6931 17.532C52.6931 17.836 52.6251 18.052 52.4891 18.18C52.3611 18.308 52.1891 18.372 51.9731 18.372H49.4411V19.488H52.1411C52.1971 19.576 52.2451 19.692 52.2851 19.836C52.3331 19.972 52.3571 20.12 52.3571 20.28C52.3571 20.584 52.2931 20.8 52.1651 20.928C52.0371 21.056 51.8651 21.12 51.6491 21.12H49.4411V22.38H52.5251C52.5811 22.468 52.6291 22.584 52.6691 22.728C52.7171 22.872 52.7411 23.024 52.7411 23.184C52.7411 23.488 52.6731 23.708 52.5371 23.844C52.4091 23.972 52.2371 24.036 52.0211 24.036H48.5171C48.1731 24.036 47.9011 23.936 47.7011 23.736C47.5011 23.536 47.4011 23.264 47.4011 22.92V17.844ZM56.0862 21.108C55.7342 20.988 55.4142 20.868 55.1262 20.748C54.8382 20.62 54.5902 20.468 54.3822 20.292C54.1742 20.116 54.0102 19.908 53.8902 19.668C53.7782 19.42 53.7222 19.12 53.7222 18.768C53.7222 18.088 53.9822 17.544 54.5022 17.136C55.0302 16.728 55.7662 16.524 56.7102 16.524C57.0542 16.524 57.3742 16.548 57.6702 16.596C57.9662 16.644 58.2182 16.72 58.4262 16.824C58.6422 16.92 58.8102 17.048 58.9302 17.208C59.0502 17.36 59.1102 17.54 59.1102 17.748C59.1102 17.956 59.0622 18.136 58.9662 18.288C58.8702 18.432 58.7542 18.556 58.6182 18.66C58.4422 18.548 58.2062 18.452 57.9102 18.372C57.6142 18.284 57.2902 18.24 56.9382 18.24C56.5782 18.24 56.3142 18.292 56.1462 18.396C55.9782 18.492 55.8942 18.616 55.8942 18.768C55.8942 18.888 55.9462 18.988 56.0502 19.068C56.1542 19.14 56.3102 19.208 56.5182 19.272L57.1542 19.476C57.9062 19.716 58.4822 20.024 58.8822 20.4C59.2902 20.768 59.4942 21.272 59.4942 21.912C59.4942 22.592 59.2262 23.144 58.6902 23.568C58.1542 23.984 57.3662 24.192 56.3262 24.192C55.9582 24.192 55.6142 24.16 55.2942 24.096C54.9822 24.04 54.7062 23.956 54.4662 23.844C54.2342 23.724 54.0502 23.58 53.9142 23.412C53.7862 23.236 53.7222 23.036 53.7222 22.812C53.7222 22.58 53.7902 22.384 53.9262 22.224C54.0622 22.056 54.2102 21.928 54.3702 21.84C54.5942 22.016 54.8662 22.168 55.1862 22.296C55.5142 22.424 55.8702 22.488 56.2542 22.488C56.6462 22.488 56.9222 22.428 57.0822 22.308C57.2422 22.188 57.3222 22.048 57.3222 21.888C57.3222 21.728 57.2582 21.608 57.1302 21.528C57.0022 21.44 56.8222 21.356 56.5902 21.276L56.0862 21.108ZM64.3864 18.192C63.7704 18.192 63.2984 18.38 62.9704 18.756C62.6424 19.132 62.4784 19.664 62.4784 20.352C62.4784 21.048 62.6584 21.584 63.0184 21.96C63.3864 22.336 63.8784 22.524 64.4944 22.524C64.8224 22.524 65.0984 22.48 65.3224 22.392C65.5544 22.304 65.7744 22.204 65.9824 22.092C66.1184 22.204 66.2224 22.34 66.2944 22.5C66.3744 22.652 66.4144 22.832 66.4144 23.04C66.4144 23.368 66.2304 23.648 65.8624 23.88C65.5024 24.104 64.9504 24.216 64.2064 24.216C63.6704 24.216 63.1664 24.14 62.6944 23.988C62.2224 23.836 61.8104 23.604 61.4584 23.292C61.1064 22.972 60.8264 22.572 60.6184 22.092C60.4184 21.604 60.3184 21.024 60.3184 20.352C60.3184 19.728 60.4144 19.18 60.6064 18.708C60.8064 18.228 61.0744 17.824 61.4104 17.496C61.7544 17.168 62.1544 16.92 62.6104 16.752C63.0664 16.584 63.5544 16.5 64.0744 16.5C64.8104 16.5 65.3784 16.62 65.7784 16.86C66.1864 17.1 66.3904 17.408 66.3904 17.784C66.3904 17.992 66.3384 18.172 66.2344 18.324C66.1304 18.476 66.0104 18.596 65.8744 18.684C65.6664 18.548 65.4424 18.432 65.2024 18.336C64.9704 18.24 64.6984 18.192 64.3864 18.192ZM73.9779 21.312C73.9779 21.744 73.9019 22.14 73.7499 22.5C73.6059 22.852 73.3939 23.156 73.1139 23.412C72.8339 23.66 72.4939 23.852 72.0939 23.988C71.6939 24.124 71.2419 24.192 70.7379 24.192C70.2339 24.192 69.7819 24.124 69.3819 23.988C68.9819 23.852 68.6419 23.66 68.3619 23.412C68.0819 23.156 67.8659 22.852 67.7139 22.5C67.5699 22.14 67.4979 21.744 67.4979 21.312V16.728C67.5859 16.712 67.7259 16.692 67.9179 16.668C68.1099 16.636 68.2939 16.62 68.4699 16.62C68.6539 16.62 68.8139 16.636 68.9499 16.668C69.0939 16.692 69.2139 16.74 69.3099 16.812C69.4059 16.884 69.4779 16.984 69.5259 17.112C69.5739 17.24 69.5979 17.408 69.5979 17.616V21.276C69.5979 21.66 69.7019 21.96 69.9099 22.176C70.1259 22.392 70.4019 22.5 70.7379 22.5C71.0819 22.5 71.3579 22.392 71.5659 22.176C71.7739 21.96 71.8779 21.66 71.8779 21.276V16.728C71.9659 16.712 72.1059 16.692 72.2979 16.668C72.4899 16.636 72.6739 16.62 72.8499 16.62C73.0339 16.62 73.1939 16.636 73.3299 16.668C73.4739 16.692 73.5939 16.74 73.6899 16.812C73.7859 16.884 73.8579 16.984 73.9059 17.112C73.9539 17.24 73.9779 17.408 73.9779 17.616V21.312ZM77.5907 21.648V23.952C77.5027 23.976 77.3627 24 77.1707 24.024C76.9867 24.048 76.8027 24.06 76.6187 24.06C76.4347 24.06 76.2707 24.044 76.1267 24.012C75.9907 23.988 75.8747 23.94 75.7787 23.868C75.6907 23.796 75.6227 23.696 75.5747 23.568C75.5267 23.44 75.5027 23.272 75.5027 23.064V17.412C75.5027 17.244 75.5467 17.116 75.6347 17.028C75.7307 16.932 75.8587 16.856 76.0187 16.8C76.2907 16.704 76.6067 16.636 76.9667 16.596C77.3267 16.548 77.7107 16.524 78.1187 16.524C79.2227 16.524 80.0547 16.756 80.6147 17.22C81.1747 17.684 81.4547 18.312 81.4547 19.104C81.4547 19.6 81.3267 20.024 81.0707 20.376C80.8147 20.728 80.5107 21 80.1587 21.192C80.4467 21.584 80.7307 21.952 81.0107 22.296C81.2907 22.64 81.5107 22.952 81.6707 23.232C81.5907 23.512 81.4427 23.728 81.2267 23.88C81.0187 24.024 80.7827 24.096 80.5187 24.096C80.3427 24.096 80.1907 24.076 80.0627 24.036C79.9347 23.996 79.8227 23.94 79.7267 23.868C79.6307 23.796 79.5427 23.708 79.4627 23.604C79.3827 23.5 79.3067 23.388 79.2347 23.268L78.2267 21.648H77.5907ZM78.3467 20.052C78.6507 20.052 78.8907 19.976 79.0667 19.824C79.2427 19.664 79.3307 19.432 79.3307 19.128C79.3307 18.824 79.2307 18.596 79.0307 18.444C78.8387 18.284 78.5307 18.204 78.1067 18.204C77.9867 18.204 77.8907 18.208 77.8187 18.216C77.7467 18.224 77.6667 18.236 77.5787 18.252V20.052H78.3467ZM82.3614 20.352C82.3614 19.728 82.4574 19.176 82.6494 18.696C82.8494 18.216 83.1174 17.816 83.4534 17.496C83.7974 17.168 84.1974 16.92 84.6534 16.752C85.1174 16.584 85.6174 16.5 86.1534 16.5C86.6894 16.5 87.1854 16.584 87.6414 16.752C88.1054 16.92 88.5094 17.168 88.8534 17.496C89.1974 17.816 89.4654 18.216 89.6574 18.696C89.8574 19.176 89.9574 19.728 89.9574 20.352C89.9574 20.976 89.8614 21.532 89.6694 22.02C89.4774 22.5 89.2094 22.904 88.8654 23.232C88.5294 23.552 88.1294 23.796 87.6654 23.964C87.2014 24.132 86.6974 24.216 86.1534 24.216C85.6094 24.216 85.1054 24.132 84.6414 23.964C84.1774 23.788 83.7774 23.536 83.4414 23.208C83.1054 22.88 82.8414 22.476 82.6494 21.996C82.4574 21.516 82.3614 20.968 82.3614 20.352ZM84.5214 20.352C84.5214 21.08 84.6694 21.624 84.9654 21.984C85.2614 22.344 85.6574 22.524 86.1534 22.524C86.6574 22.524 87.0574 22.344 87.3534 21.984C87.6494 21.624 87.7974 21.08 87.7974 20.352C87.7974 19.632 87.6494 19.092 87.3534 18.732C87.0654 18.372 86.6694 18.192 86.1654 18.192C85.6694 18.192 85.2694 18.372 84.9654 18.732C84.6694 19.084 84.5214 19.624 84.5214 20.352Z" fill="white"/>
<path fill-rule="evenodd" clip-rule="evenodd" d="M33 20C33 23.866 29.866 27 26 27C24.8401 27 23.7461 26.7179 22.7828 26.2185C23.6915 26.1825 24.5427 25.8826 25.2815 25.3826C25.5474 25.4233 25.8199 25.4444 26.0972 25.4444C29.0504 25.4444 31.4444 23.0504 31.4444 20.0972C31.4444 17.144 29.0504 14.75 26.0972 14.75C25.8991 14.75 25.7034 14.7608 25.5109 14.7818C24.7211 14.1835 23.7871 13.8213 22.7828 13.7815C23.7461 13.2821 24.8401 13 26 13C29.866 13 33 16.134 33 20Z" fill="white"/>
</g>
<defs>
<filter id="filter0_d_8_1128" x="-5" y="-5" width="130" height="50" filterUnits="userSpaceOnUse" color-interpolation-filters="sRGB">
<feFlood flood-opacity="0" result="BackgroundImageFix"/>
<feColorMatrix in="SourceAlpha" type="matrix" values="0 0 0 0 0 0 0 0 0 0 0 0 0 0 0 0 0 0 127 0" result="hardAlpha"/>
<feOffset/>
<feGaussianBlur stdDeviation="5"/>
<feColorMatrix type="matrix" values="0 0 0 0 0.372549 0 0 0 0 0.376471 0 0 0 0 0.427451 0 0 0 0.7 0"/>
<feBlend mode="normal" in2="BackgroundImageFix" result="effect1_dropShadow_8_1128"/>
<feBlend mode="normal" in="SourceGraphic" in2="effect1_dropShadow_8_1128" result="shape"/>
</filter>
<clipPath id="clip0_8_1128">
<rect width="110" height="30" fill="white" transform="translate(5 5)"/>
</clipPath>
</defs>
</svg>
