<svg width="120" height="40" viewBox="0 0 120 40" fill="none" xmlns="http://www.w3.org/2000/svg">
<g clip-path="url(#clip0_8_1137)">
<g filter="url(#filter0_d_8_1137)">
<rect x="5" y="5" width="110" height="30" rx="15" fill="#0773C7"/>
</g>
<path d="M48.0008 22.44C48.0888 22.456 48.1968 22.472 48.3248 22.488C48.4528 22.496 48.5728 22.5 48.6848 22.5C48.9568 22.5 49.2048 22.46 49.4288 22.38C49.6608 22.3 49.8568 22.176 50.0168 22.008C50.1848 21.84 50.3128 21.624 50.4008 21.36C50.4968 21.088 50.5448 20.764 50.5448 20.388C50.5448 19.668 50.3768 19.128 50.0408 18.768C49.7048 18.4 49.2568 18.216 48.6968 18.216C48.5848 18.216 48.4688 18.22 48.3488 18.228C48.2368 18.236 48.1208 18.248 48.0008 18.264V22.44ZM48.6728 24.192C48.5368 24.192 48.3808 24.188 48.2048 24.18C48.0288 24.172 47.8448 24.156 47.6528 24.132C47.4688 24.108 47.2808 24.076 47.0888 24.036C46.9048 24.004 46.7328 23.956 46.5728 23.892C46.1328 23.724 45.9128 23.432 45.9128 23.016V17.412C45.9128 17.244 45.9568 17.116 46.0448 17.028C46.1408 16.932 46.2688 16.856 46.4288 16.8C46.7728 16.688 47.1368 16.616 47.5208 16.584C47.9048 16.544 48.2488 16.524 48.5528 16.524C49.1768 16.524 49.7408 16.6 50.2448 16.752C50.7568 16.904 51.1928 17.14 51.5528 17.46C51.9208 17.772 52.2048 18.168 52.4048 18.648C52.6048 19.128 52.7048 19.696 52.7048 20.352C52.7048 20.992 52.6088 21.552 52.4168 22.032C52.2248 22.504 51.9488 22.904 51.5888 23.232C51.2368 23.552 50.8128 23.792 50.3168 23.952C49.8208 24.112 49.2728 24.192 48.6728 24.192ZM55.993 21.648V23.952C55.905 23.976 55.765 24 55.573 24.024C55.389 24.048 55.205 24.06 55.021 24.06C54.837 24.06 54.673 24.044 54.529 24.012C54.393 23.988 54.277 23.94 54.181 23.868C54.093 23.796 54.025 23.696 53.977 23.568C53.929 23.44 53.905 23.272 53.905 23.064V17.412C53.905 17.244 53.949 17.116 54.037 17.028C54.133 16.932 54.261 16.856 54.421 16.8C54.693 16.704 55.009 16.636 55.369 16.596C55.729 16.548 56.113 16.524 56.521 16.524C57.625 16.524 58.457 16.756 59.017 17.22C59.577 17.684 59.857 18.312 59.857 19.104C59.857 19.6 59.729 20.024 59.473 20.376C59.217 20.728 58.913 21 58.561 21.192C58.849 21.584 59.133 21.952 59.413 22.296C59.693 22.64 59.913 22.952 60.073 23.232C59.993 23.512 59.845 23.728 59.629 23.88C59.421 24.024 59.185 24.096 58.921 24.096C58.745 24.096 58.593 24.076 58.465 24.036C58.337 23.996 58.225 23.94 58.129 23.868C58.033 23.796 57.945 23.708 57.865 23.604C57.785 23.5 57.709 23.388 57.637 23.268L56.629 21.648H55.993ZM56.749 20.052C57.053 20.052 57.293 19.976 57.469 19.824C57.645 19.664 57.733 19.432 57.733 19.128C57.733 18.824 57.633 18.596 57.433 18.444C57.241 18.284 56.933 18.204 56.509 18.204C56.389 18.204 56.293 18.208 56.221 18.216C56.149 18.224 56.069 18.236 55.981 18.252V20.052H56.749ZM62.8593 16.944C62.9953 16.864 63.1993 16.788 63.4713 16.716C63.7513 16.644 64.0313 16.608 64.3113 16.608C64.7113 16.608 65.0633 16.668 65.3673 16.788C65.6793 16.9 65.8793 17.08 65.9673 17.328C66.1113 17.744 66.2673 18.228 66.4353 18.78C66.6033 19.332 66.7713 19.904 66.9393 20.496C67.1073 21.08 67.2713 21.66 67.4313 22.236C67.5913 22.804 67.7313 23.308 67.8513 23.748C67.7553 23.86 67.6113 23.948 67.4193 24.012C67.2273 24.084 66.9993 24.12 66.7353 24.12C66.5433 24.12 66.3793 24.104 66.2433 24.072C66.1153 24.04 66.0073 23.992 65.9193 23.928C65.8393 23.864 65.7713 23.78 65.7153 23.676C65.6673 23.572 65.6233 23.452 65.5833 23.316L65.3673 22.488H63.1953C63.1313 22.728 63.0673 22.976 63.0033 23.232C62.9393 23.488 62.8753 23.736 62.8113 23.976C62.6993 24.016 62.5793 24.048 62.4513 24.072C62.3313 24.104 62.1833 24.12 62.0073 24.12C61.5993 24.12 61.2953 24.052 61.0953 23.916C60.9033 23.772 60.8073 23.576 60.8073 23.328C60.8073 23.216 60.8233 23.104 60.8553 22.992C60.8873 22.88 60.9233 22.748 60.9633 22.596C61.0193 22.38 61.0953 22.112 61.1913 21.792C61.2953 21.472 61.4073 21.128 61.5273 20.76C61.6473 20.384 61.7753 20 61.9113 19.608C62.0473 19.216 62.1752 18.848 62.2952 18.504C62.4153 18.152 62.5233 17.84 62.6193 17.568C62.7233 17.296 62.8033 17.088 62.8593 16.944ZM64.2993 18.492C64.1873 18.828 64.0593 19.204 63.9153 19.62C63.7793 20.028 63.6553 20.444 63.5433 20.868H65.0313C64.9193 20.436 64.8033 20.016 64.6833 19.608C64.5713 19.192 64.4673 18.82 64.3713 18.492H64.2993ZM75.3055 22.812C75.3055 23.06 75.2615 23.244 75.1735 23.364C75.0855 23.484 74.9455 23.6 74.7535 23.712C74.6415 23.776 74.5015 23.84 74.3335 23.904C74.1655 23.96 73.9815 24.008 73.7815 24.048C73.5815 24.096 73.3695 24.132 73.1455 24.156C72.9295 24.18 72.7135 24.192 72.4975 24.192C71.9215 24.192 71.3815 24.116 70.8775 23.964C70.3735 23.804 69.9335 23.568 69.5575 23.256C69.1895 22.936 68.8975 22.54 68.6815 22.068C68.4655 21.596 68.3575 21.048 68.3575 20.424C68.3575 19.768 68.4735 19.196 68.7055 18.708C68.9455 18.22 69.2575 17.816 69.6415 17.496C70.0335 17.168 70.4775 16.924 70.9735 16.764C71.4775 16.604 71.9935 16.524 72.5215 16.524C73.2815 16.524 73.8815 16.648 74.3215 16.896C74.7695 17.136 74.9935 17.452 74.9935 17.844C74.9935 18.052 74.9415 18.232 74.8375 18.384C74.7335 18.536 74.6135 18.656 74.4775 18.744C74.2775 18.624 74.0255 18.508 73.7215 18.396C73.4255 18.276 73.0895 18.216 72.7135 18.216C72.0415 18.216 71.5055 18.408 71.1055 18.792C70.7135 19.176 70.5175 19.708 70.5175 20.388C70.5175 20.756 70.5695 21.076 70.6735 21.348C70.7855 21.612 70.9335 21.832 71.1175 22.008C71.3015 22.176 71.5135 22.304 71.7535 22.392C71.9935 22.472 72.2495 22.512 72.5215 22.512C72.6975 22.512 72.8535 22.496 72.9895 22.464C73.1255 22.432 73.2295 22.396 73.3015 22.356V21.228H72.0175C71.9695 21.14 71.9215 21.024 71.8735 20.88C71.8335 20.736 71.8135 20.584 71.8135 20.424C71.8135 20.136 71.8775 19.928 72.0055 19.8C72.1415 19.672 72.3135 19.608 72.5215 19.608H74.5495C74.7895 19.608 74.9735 19.676 75.1015 19.812C75.2375 19.94 75.3055 20.124 75.3055 20.364V22.812ZM78.3514 16.944C78.4874 16.864 78.6914 16.788 78.9634 16.716C79.2434 16.644 79.5234 16.608 79.8034 16.608C80.2034 16.608 80.5554 16.668 80.8594 16.788C81.1714 16.9 81.3714 17.08 81.4594 17.328C81.6034 17.744 81.7594 18.228 81.9274 18.78C82.0954 19.332 82.2634 19.904 82.4314 20.496C82.5994 21.08 82.7634 21.66 82.9234 22.236C83.0834 22.804 83.2234 23.308 83.3434 23.748C83.2474 23.86 83.1034 23.948 82.9114 24.012C82.7194 24.084 82.4914 24.12 82.2274 24.12C82.0354 24.12 81.8714 24.104 81.7354 24.072C81.6074 24.04 81.4994 23.992 81.4114 23.928C81.3314 23.864 81.2634 23.78 81.2074 23.676C81.1594 23.572 81.1154 23.452 81.0754 23.316L80.8594 22.488H78.6874C78.6234 22.728 78.5594 22.976 78.4954 23.232C78.4314 23.488 78.3674 23.736 78.3034 23.976C78.1914 24.016 78.0714 24.048 77.9434 24.072C77.8234 24.104 77.6754 24.12 77.4994 24.12C77.0914 24.12 76.7874 24.052 76.5874 23.916C76.3954 23.772 76.2994 23.576 76.2994 23.328C76.2994 23.216 76.3154 23.104 76.3474 22.992C76.3794 22.88 76.4154 22.748 76.4554 22.596C76.5114 22.38 76.5874 22.112 76.6834 21.792C76.7874 21.472 76.8994 21.128 77.0194 20.76C77.1394 20.384 77.2674 20 77.4034 19.608C77.5394 19.216 77.6674 18.848 77.7874 18.504C77.9074 18.152 78.0154 17.84 78.1114 17.568C78.2154 17.296 78.2954 17.088 78.3514 16.944ZM79.7914 18.492C79.6794 18.828 79.5514 19.204 79.4074 19.62C79.2714 20.028 79.1474 20.444 79.0354 20.868H80.5234C80.4114 20.436 80.2954 20.016 80.1754 19.608C80.0634 19.192 79.9594 18.82 79.8634 18.492H79.7914ZM79.8874 14.1C80.0314 14.14 80.1514 14.172 80.2474 14.196C80.3434 14.22 80.4234 14.232 80.4874 14.232C80.6634 14.232 80.7994 14.18 80.8954 14.076C80.9914 13.972 81.0594 13.884 81.0994 13.812C81.3794 13.812 81.6114 13.904 81.7954 14.088C81.9874 14.264 82.0834 14.492 82.0834 14.772C82.0834 15.132 81.9714 15.396 81.7474 15.564C81.5234 15.732 81.2434 15.816 80.9074 15.816C80.7954 15.816 80.6834 15.812 80.5714 15.804C80.4594 15.788 80.3354 15.76 80.1994 15.72L79.7194 15.576C79.6074 15.544 79.5114 15.52 79.4314 15.504C79.3594 15.48 79.2874 15.468 79.2154 15.468C79.0394 15.468 78.9034 15.52 78.8074 15.624C78.7194 15.72 78.6514 15.808 78.6034 15.888C78.3234 15.888 78.0874 15.8 77.8954 15.624C77.7114 15.44 77.6194 15.208 77.6194 14.928C77.6194 14.752 77.6514 14.6 77.7154 14.472C77.7874 14.336 77.8794 14.224 77.9914 14.136C78.1034 14.048 78.2274 13.984 78.3634 13.944C78.5074 13.904 78.6514 13.884 78.7954 13.884C78.8994 13.884 79.0234 13.896 79.1674 13.92C79.3194 13.944 79.5594 14.004 79.8874 14.1ZM83.8497 20.352C83.8497 19.728 83.9457 19.176 84.1377 18.696C84.3377 18.216 84.6057 17.816 84.9417 17.496C85.2857 17.168 85.6857 16.92 86.1417 16.752C86.6057 16.584 87.1057 16.5 87.6417 16.5C88.1777 16.5 88.6737 16.584 89.1297 16.752C89.5937 16.92 89.9977 17.168 90.3417 17.496C90.6857 17.816 90.9537 18.216 91.1457 18.696C91.3457 19.176 91.4457 19.728 91.4457 20.352C91.4457 20.976 91.3497 21.532 91.1577 22.02C90.9657 22.5 90.6977 22.904 90.3537 23.232C90.0177 23.552 89.6177 23.796 89.1537 23.964C88.6897 24.132 88.1857 24.216 87.6417 24.216C87.0977 24.216 86.5937 24.132 86.1297 23.964C85.6657 23.788 85.2657 23.536 84.9297 23.208C84.5937 22.88 84.3297 22.476 84.1377 21.996C83.9457 21.516 83.8497 20.968 83.8497 20.352ZM86.0097 20.352C86.0097 21.08 86.1577 21.624 86.4537 21.984C86.7497 22.344 87.1457 22.524 87.6417 22.524C88.1457 22.524 88.5457 22.344 88.8417 21.984C89.1377 21.624 89.2857 21.08 89.2857 20.352C89.2857 19.632 89.1377 19.092 88.8417 18.732C88.5537 18.372 88.1577 18.192 87.6537 18.192C87.1577 18.192 86.7577 18.372 86.4537 18.732C86.1577 19.084 86.0097 19.624 86.0097 20.352Z" fill="white"/>
<path fill-rule="evenodd" clip-rule="evenodd" d="M26.7804 18.965C26.8888 18.8989 26.9808 18.7603 27.055 18.6063C28.0314 19.0054 28.7176 19.9484 28.7176 21.0481C28.7176 22.5091 27.5066 23.6934 26.0129 23.6934C25.3997 23.6934 24.8342 23.4938 24.3805 23.1575C24.2317 23.087 24.1093 23.0193 24.0091 22.9639C23.8537 22.878 23.7518 22.8217 23.6879 22.8305C23.5014 22.8562 23.5556 23.0278 23.6048 23.1837C23.6382 23.2896 23.6693 23.3883 23.6211 23.429C23.5707 23.4716 23.4073 23.3158 23.2164 23.1338C22.9565 22.886 22.6457 22.5896 22.4991 22.6787C22.3832 22.7491 22.4957 22.94 22.6334 23.1738L22.6437 23.1911C22.7019 23.29 22.7693 23.3905 22.8308 23.4824C22.9559 23.669 23.0567 23.8193 23.0062 23.8448C22.9453 23.8755 22.5208 23.589 22.163 23.1911C22.0249 23.0376 21.8911 22.8711 21.7668 22.7165C21.4947 22.3779 21.268 22.0959 21.1408 22.1293C20.9877 22.1695 21.1035 22.4852 21.2736 22.7891C21.3532 22.9312 21.4468 23.0759 21.5279 23.2011C21.6539 23.396 21.7495 23.5438 21.7148 23.562C21.668 23.5865 21.2561 23.1848 20.9764 22.6787C20.8102 22.378 20.6707 22.0458 20.5577 21.7768C20.4352 21.4851 20.3439 21.2678 20.2838 21.2459C20.0751 21.1699 20.0751 21.5956 20.1588 22.21C20.1697 22.2901 20.186 22.3741 20.206 22.4597C21.018 25.087 23.5124 27 26.4637 27C30.0736 27 32.9999 24.1379 32.9999 20.6072C32.9999 17.2469 30.349 14.4921 26.9809 14.2342C26.9852 14.0759 27.0678 13.762 27.0678 13.762C27.0678 13.762 27.6624 12.3233 27.6938 12.0159C27.6959 11.9955 27.6984 11.9734 27.701 11.9497C27.7381 11.6176 27.807 11 27.2756 11C26.9919 11 26.8599 11.2111 26.709 11.4525C26.6511 11.5452 26.5904 11.6423 26.5172 11.7337C25.9901 12.392 25.1037 13.214 24.6011 13.652C23.5388 14.5776 22.4965 15.3384 21.8887 15.7821L21.8887 15.7821L21.8886 15.7821C21.6122 15.9839 21.4256 16.1201 21.3678 16.1764C20.9326 16.6006 19.3722 19.4152 19.3722 19.4152C19.3722 19.4152 18.8676 20.3182 19.047 20.5013C19.2263 20.6845 19.6589 20.6425 19.6589 20.6425C19.6589 20.6425 25.4695 19.3095 25.9897 19.2043C26.1298 19.176 26.2287 19.1597 26.3046 19.1472C26.5107 19.1131 26.5477 19.107 26.7804 18.965ZM22.672 17.252C22.3601 17.5485 21.8428 18.2561 21.8428 18.2561C21.8428 18.2561 22.8042 18.3154 23.3337 17.8121C23.8632 17.3088 23.7419 16.451 23.7419 16.451C23.7419 16.451 22.9839 16.9555 22.672 17.252Z" fill="white"/>
</g>
<defs>
<filter id="filter0_d_8_1137" x="-5" y="-5" width="130" height="50" filterUnits="userSpaceOnUse" color-interpolation-filters="sRGB">
<feFlood flood-opacity="0" result="BackgroundImageFix"/>
<feColorMatrix in="SourceAlpha" type="matrix" values="0 0 0 0 0 0 0 0 0 0 0 0 0 0 0 0 0 0 127 0" result="hardAlpha"/>
<feOffset/>
<feGaussianBlur stdDeviation="5"/>
<feColorMatrix type="matrix" values="0 0 0 0 0.027451 0 0 0 0 0.45098 0 0 0 0 0.780392 0 0 0 0.7 0"/>
<feBlend mode="normal" in2="BackgroundImageFix" result="effect1_dropShadow_8_1137"/>
<feBlend mode="normal" in="SourceGraphic" in2="effect1_dropShadow_8_1137" result="shape"/>
</filter>
<clipPath id="clip0_8_1137">
<rect width="110" height="30" fill="white" transform="translate(5 5)"/>
</clipPath>
</defs>
</svg>
