<svg width="120" height="40" viewBox="0 0 120 40" fill="none" xmlns="http://www.w3.org/2000/svg">
<g clip-path="url(#clip0_8_1149)">
<g filter="url(#filter0_d_8_1149)">
<rect x="5" y="5" width="110" height="30" rx="15" fill="#EDD53F"/>
</g>
<path d="M43.2644 17.844C43.2644 17.5 43.3644 17.228 43.5644 17.028C43.7644 16.828 44.0364 16.728 44.3804 16.728H48.3404C48.3964 16.816 48.4444 16.932 48.4844 17.076C48.5324 17.22 48.5564 17.372 48.5564 17.532C48.5564 17.836 48.4884 18.052 48.3524 18.18C48.2244 18.308 48.0524 18.372 47.8364 18.372H45.3044V19.488H48.0044C48.0604 19.576 48.1084 19.692 48.1484 19.836C48.1964 19.972 48.2204 20.12 48.2204 20.28C48.2204 20.584 48.1564 20.8 48.0284 20.928C47.9004 21.056 47.7284 21.12 47.5124 21.12H45.3044V22.38H48.3884C48.4444 22.468 48.4924 22.584 48.5324 22.728C48.5804 22.872 48.6044 23.024 48.6044 23.184C48.6044 23.488 48.5364 23.708 48.4004 23.844C48.2724 23.972 48.1004 24.036 47.8844 24.036H44.3804C44.0364 24.036 43.7644 23.936 43.5644 23.736C43.3644 23.536 43.2644 23.264 43.2644 22.92V17.844ZM50.9546 24.036C50.6106 24.036 50.3386 23.936 50.1386 23.736C49.9386 23.536 49.8386 23.264 49.8386 22.92V16.716C49.9266 16.7 50.0666 16.68 50.2586 16.656C50.4506 16.624 50.6346 16.608 50.8106 16.608C50.9946 16.608 51.1546 16.624 51.2906 16.656C51.4346 16.68 51.5546 16.728 51.6506 16.8C51.7466 16.872 51.8186 16.972 51.8666 17.1C51.9146 17.228 51.9386 17.396 51.9386 17.604V22.344H54.6866C54.7426 22.432 54.7946 22.552 54.8426 22.704C54.8906 22.848 54.9146 23 54.9146 23.16C54.9146 23.48 54.8466 23.708 54.7106 23.844C54.5746 23.972 54.3946 24.036 54.1706 24.036H50.9546ZM55.9069 17.844C55.9069 17.5 56.0069 17.228 56.2069 17.028C56.4069 16.828 56.6789 16.728 57.0229 16.728H60.9829C61.0389 16.816 61.0869 16.932 61.1269 17.076C61.1749 17.22 61.1989 17.372 61.1989 17.532C61.1989 17.836 61.1309 18.052 60.9949 18.18C60.8669 18.308 60.6949 18.372 60.4789 18.372H57.9469V19.488H60.6469C60.7029 19.576 60.7509 19.692 60.7909 19.836C60.8389 19.972 60.8629 20.12 60.8629 20.28C60.8629 20.584 60.7989 20.8 60.6709 20.928C60.5429 21.056 60.3709 21.12 60.1549 21.12H57.9469V22.38H61.0309C61.0869 22.468 61.1349 22.584 61.1749 22.728C61.2229 22.872 61.2469 23.024 61.2469 23.184C61.2469 23.488 61.1789 23.708 61.0429 23.844C60.9149 23.972 60.7429 24.036 60.5269 24.036H57.0229C56.6789 24.036 56.4069 23.936 56.2069 23.736C56.0069 23.536 55.9069 23.264 55.9069 22.92V17.844ZM59.1469 13.788C59.5389 13.82 59.8189 13.916 59.9869 14.076C60.1549 14.228 60.2389 14.408 60.2389 14.616C60.2389 14.848 60.1709 15.032 60.0349 15.168C59.9069 15.304 59.7029 15.428 59.4229 15.54L57.7789 16.188C57.5469 16.14 57.3589 16.044 57.2149 15.9C57.0789 15.756 57.0109 15.596 57.0109 15.42C57.0109 15.308 57.0389 15.2 57.0949 15.096C57.1589 14.992 57.2549 14.908 57.3829 14.844L59.1469 13.788ZM62.1471 18.408C62.0911 18.32 62.0391 18.2 61.9911 18.048C61.9431 17.896 61.9191 17.736 61.9191 17.568C61.9191 17.256 61.9871 17.032 62.1231 16.896C62.2671 16.76 62.4511 16.692 62.6751 16.692H67.9071C67.9631 16.78 68.0151 16.9 68.0631 17.052C68.1111 17.204 68.1351 17.364 68.1351 17.532C68.1351 17.844 68.0631 18.068 67.9191 18.204C67.7831 18.34 67.6031 18.408 67.3791 18.408H66.0471V23.952C65.9591 23.976 65.8191 24 65.6271 24.024C65.4431 24.048 65.2591 24.06 65.0751 24.06C64.8911 24.06 64.7271 24.044 64.5831 24.012C64.4471 23.988 64.3311 23.94 64.2351 23.868C64.1391 23.796 64.0671 23.696 64.0191 23.568C63.9711 23.44 63.9471 23.272 63.9471 23.064V18.408H62.1471ZM71.2391 21.648V23.952C71.1511 23.976 71.0111 24 70.8191 24.024C70.6351 24.048 70.4511 24.06 70.2671 24.06C70.0831 24.06 69.9191 24.044 69.7751 24.012C69.6391 23.988 69.5231 23.94 69.4271 23.868C69.3391 23.796 69.2711 23.696 69.2231 23.568C69.1751 23.44 69.1511 23.272 69.1511 23.064V17.412C69.1511 17.244 69.1951 17.116 69.2831 17.028C69.3791 16.932 69.5071 16.856 69.6671 16.8C69.9391 16.704 70.2551 16.636 70.6151 16.596C70.9751 16.548 71.3591 16.524 71.7671 16.524C72.8711 16.524 73.7031 16.756 74.2631 17.22C74.8231 17.684 75.1031 18.312 75.1031 19.104C75.1031 19.6 74.9751 20.024 74.7191 20.376C74.4631 20.728 74.1591 21 73.8071 21.192C74.0951 21.584 74.3791 21.952 74.6591 22.296C74.9391 22.64 75.1591 22.952 75.3191 23.232C75.2391 23.512 75.0911 23.728 74.8751 23.88C74.6671 24.024 74.4311 24.096 74.1671 24.096C73.9911 24.096 73.8391 24.076 73.7111 24.036C73.5831 23.996 73.4711 23.94 73.3751 23.868C73.2791 23.796 73.1911 23.708 73.1111 23.604C73.0311 23.5 72.9551 23.388 72.8831 23.268L71.8751 21.648H71.2391ZM71.9951 20.052C72.2991 20.052 72.5391 19.976 72.7151 19.824C72.8911 19.664 72.9791 19.432 72.9791 19.128C72.9791 18.824 72.8791 18.596 72.6791 18.444C72.4871 18.284 72.1791 18.204 71.7551 18.204C71.6351 18.204 71.5391 18.208 71.4671 18.216C71.3951 18.224 71.3151 18.236 71.2271 18.252V20.052H71.9951ZM78.5636 23.952C78.4756 23.976 78.3356 24 78.1436 24.024C77.9596 24.048 77.7756 24.06 77.5916 24.06C77.4076 24.06 77.2436 24.044 77.0996 24.012C76.9636 23.988 76.8476 23.94 76.7516 23.868C76.6556 23.796 76.5836 23.696 76.5356 23.568C76.4876 23.44 76.4636 23.272 76.4636 23.064V16.728C76.5516 16.712 76.6916 16.692 76.8836 16.668C77.0756 16.636 77.2596 16.62 77.4356 16.62C77.6196 16.62 77.7796 16.636 77.9156 16.668C78.0596 16.692 78.1796 16.74 78.2756 16.812C78.3716 16.884 78.4436 16.984 78.4916 17.112C78.5396 17.24 78.5636 17.408 78.5636 17.616V23.952ZM83.8278 18.192C83.2118 18.192 82.7398 18.38 82.4118 18.756C82.0838 19.132 81.9198 19.664 81.9198 20.352C81.9198 21.048 82.0998 21.584 82.4598 21.96C82.8278 22.336 83.3198 22.524 83.9358 22.524C84.2638 22.524 84.5398 22.48 84.7638 22.392C84.9958 22.304 85.2158 22.204 85.4238 22.092C85.5598 22.204 85.6638 22.34 85.7358 22.5C85.8158 22.652 85.8558 22.832 85.8558 23.04C85.8558 23.368 85.6718 23.648 85.3038 23.88C84.9438 24.104 84.3918 24.216 83.6478 24.216C83.1118 24.216 82.6078 24.14 82.1358 23.988C81.6638 23.836 81.2518 23.604 80.8998 23.292C80.5478 22.972 80.2678 22.572 80.0598 22.092C79.8598 21.604 79.7598 21.024 79.7598 20.352C79.7598 19.728 79.8558 19.18 80.0478 18.708C80.2478 18.228 80.5158 17.824 80.8518 17.496C81.1958 17.168 81.5958 16.92 82.0518 16.752C82.5078 16.584 82.9958 16.5 83.5158 16.5C84.2518 16.5 84.8198 16.62 85.2198 16.86C85.6278 17.1 85.8318 17.408 85.8318 17.784C85.8318 17.992 85.7798 18.172 85.6758 18.324C85.5718 18.476 85.4518 18.596 85.3158 18.684C85.1078 18.548 84.8838 18.432 84.6438 18.336C84.4118 18.24 84.1398 18.192 83.8278 18.192ZM86.4981 20.352C86.4981 19.728 86.5941 19.176 86.7861 18.696C86.9861 18.216 87.2541 17.816 87.5901 17.496C87.9341 17.168 88.3341 16.92 88.7901 16.752C89.2541 16.584 89.7541 16.5 90.2901 16.5C90.8261 16.5 91.3221 16.584 91.7781 16.752C92.2421 16.92 92.6461 17.168 92.9901 17.496C93.3341 17.816 93.6021 18.216 93.7941 18.696C93.9941 19.176 94.0941 19.728 94.0941 20.352C94.0941 20.976 93.9981 21.532 93.8061 22.02C93.6141 22.5 93.3461 22.904 93.0021 23.232C92.6661 23.552 92.2661 23.796 91.8021 23.964C91.3381 24.132 90.8341 24.216 90.2901 24.216C89.7461 24.216 89.2421 24.132 88.7781 23.964C88.3141 23.788 87.9141 23.536 87.5781 23.208C87.2421 22.88 86.9781 22.476 86.7861 21.996C86.5941 21.516 86.4981 20.968 86.4981 20.352ZM88.6581 20.352C88.6581 21.08 88.8061 21.624 89.1021 21.984C89.3981 22.344 89.7941 22.524 90.2901 22.524C90.7941 22.524 91.1941 22.344 91.4901 21.984C91.7861 21.624 91.9341 21.08 91.9341 20.352C91.9341 19.632 91.7861 19.092 91.4901 18.732C91.2021 18.372 90.8061 18.192 90.3021 18.192C89.8061 18.192 89.4061 18.372 89.1021 18.732C88.8061 19.084 88.6581 19.624 88.6581 20.352Z" fill="white"/>
<path fill-rule="evenodd" clip-rule="evenodd" d="M20.9632 12.5837C20.8643 12.298 21.0765 12 21.3788 12H26.086C26.2788 12 26.4492 12.1256 26.5062 12.3098L28.8236 19.797C28.9112 20.08 28.6997 20.3669 28.4034 20.3669H25.5221C25.3762 20.3669 25.2707 20.5065 25.3106 20.6469L26.7536 25.7264C26.8867 26.1953 26.2718 26.5005 25.9789 26.111L19.5295 17.5343C19.3115 17.2444 19.5184 16.8301 19.881 16.8301H22.1238C22.275 16.8301 22.3811 16.6811 22.3316 16.5383L20.9632 12.5837Z" fill="white"/>
</g>
<defs>
<filter id="filter0_d_8_1149" x="-5" y="-5" width="130" height="50" filterUnits="userSpaceOnUse" color-interpolation-filters="sRGB">
<feFlood flood-opacity="0" result="BackgroundImageFix"/>
<feColorMatrix in="SourceAlpha" type="matrix" values="0 0 0 0 0 0 0 0 0 0 0 0 0 0 0 0 0 0 127 0" result="hardAlpha"/>
<feOffset/>
<feGaussianBlur stdDeviation="5"/>
<feColorMatrix type="matrix" values="0 0 0 0 0.929412 0 0 0 0 0.835294 0 0 0 0 0.247059 0 0 0 0.7 0"/>
<feBlend mode="normal" in2="BackgroundImageFix" result="effect1_dropShadow_8_1149"/>
<feBlend mode="normal" in="SourceGraphic" in2="effect1_dropShadow_8_1149" result="shape"/>
</filter>
<clipPath id="clip0_8_1149">
<rect width="110" height="30" fill="white" transform="translate(5 5)"/>
</clipPath>
</defs>
</svg>
