<svg width="120" height="40" viewBox="0 0 120 40" fill="none" xmlns="http://www.w3.org/2000/svg">
<g clip-path="url(#clip0_8_1154)">
<g filter="url(#filter0_d_8_1154)">
<rect x="5" y="5" width="110" height="30" rx="15" fill="#EF97E6"/>
</g>
<path d="M59.9076 16.728C59.9636 16.816 60.0116 16.936 60.0516 17.088C60.0996 17.232 60.1236 17.384 60.1236 17.544C60.1236 17.856 60.0556 18.08 59.9196 18.216C59.7916 18.344 59.6156 18.408 59.3916 18.408H56.8716V19.764H59.4996C59.5636 19.852 59.6156 19.968 59.6556 20.112C59.7036 20.256 59.7276 20.408 59.7276 20.568C59.7276 20.872 59.6596 21.092 59.5236 21.228C59.3956 21.356 59.2196 21.42 58.9956 21.42H56.8956V23.952C56.8076 23.976 56.6676 24 56.4756 24.024C56.2916 24.048 56.1076 24.06 55.9236 24.06C55.7396 24.06 55.5756 24.044 55.4316 24.012C55.2956 23.988 55.1796 23.94 55.0836 23.868C54.9876 23.796 54.9156 23.696 54.8676 23.568C54.8196 23.44 54.7956 23.272 54.7956 23.064V17.844C54.7956 17.5 54.8956 17.228 55.0956 17.028C55.2956 16.828 55.5676 16.728 55.9116 16.728H59.9076ZM62.3553 16.944C62.4913 16.864 62.6953 16.788 62.9673 16.716C63.2473 16.644 63.5273 16.608 63.8073 16.608C64.2073 16.608 64.5593 16.668 64.8633 16.788C65.1753 16.9 65.3753 17.08 65.4633 17.328C65.6073 17.744 65.7633 18.228 65.9313 18.78C66.0993 19.332 66.2673 19.904 66.4353 20.496C66.6033 21.08 66.7673 21.66 66.9273 22.236C67.0873 22.804 67.2273 23.308 67.3473 23.748C67.2513 23.86 67.1073 23.948 66.9153 24.012C66.7233 24.084 66.4953 24.12 66.2313 24.12C66.0393 24.12 65.8753 24.104 65.7393 24.072C65.6113 24.04 65.5033 23.992 65.4153 23.928C65.3353 23.864 65.2673 23.78 65.2113 23.676C65.1633 23.572 65.1193 23.452 65.0793 23.316L64.8633 22.488H62.6913C62.6273 22.728 62.5633 22.976 62.4993 23.232C62.4353 23.488 62.3713 23.736 62.3073 23.976C62.1953 24.016 62.0753 24.048 61.9473 24.072C61.8273 24.104 61.6793 24.12 61.5033 24.12C61.0953 24.12 60.7913 24.052 60.5913 23.916C60.3993 23.772 60.3033 23.576 60.3033 23.328C60.3033 23.216 60.3193 23.104 60.3513 22.992C60.3833 22.88 60.4193 22.748 60.4593 22.596C60.5153 22.38 60.5913 22.112 60.6873 21.792C60.7913 21.472 60.9033 21.128 61.0233 20.76C61.1433 20.384 61.2713 20 61.4073 19.608C61.5433 19.216 61.6713 18.848 61.7913 18.504C61.9113 18.152 62.0193 17.84 62.1153 17.568C62.2193 17.296 62.2993 17.088 62.3553 16.944ZM63.7953 18.492C63.6833 18.828 63.5553 19.204 63.4113 19.62C63.2753 20.028 63.1513 20.444 63.0393 20.868H64.5273C64.4153 20.436 64.2993 20.016 64.1793 19.608C64.0673 19.192 63.9633 18.82 63.8673 18.492H63.7953ZM70.4188 22.44C70.5068 22.456 70.6148 22.472 70.7428 22.488C70.8708 22.496 70.9908 22.5 71.1028 22.5C71.3748 22.5 71.6228 22.46 71.8468 22.38C72.0788 22.3 72.2748 22.176 72.4348 22.008C72.6028 21.84 72.7308 21.624 72.8188 21.36C72.9148 21.088 72.9628 20.764 72.9628 20.388C72.9628 19.668 72.7948 19.128 72.4588 18.768C72.1228 18.4 71.6748 18.216 71.1148 18.216C71.0028 18.216 70.8868 18.22 70.7668 18.228C70.6548 18.236 70.5388 18.248 70.4188 18.264V22.44ZM71.0908 24.192C70.9548 24.192 70.7988 24.188 70.6228 24.18C70.4468 24.172 70.2628 24.156 70.0708 24.132C69.8868 24.108 69.6988 24.076 69.5068 24.036C69.3228 24.004 69.1508 23.956 68.9908 23.892C68.5508 23.724 68.3308 23.432 68.3308 23.016V17.412C68.3308 17.244 68.3748 17.116 68.4628 17.028C68.5588 16.932 68.6868 16.856 68.8468 16.8C69.1908 16.688 69.5548 16.616 69.9388 16.584C70.3228 16.544 70.6668 16.524 70.9708 16.524C71.5948 16.524 72.1588 16.6 72.6628 16.752C73.1748 16.904 73.6108 17.14 73.9708 17.46C74.3388 17.772 74.6228 18.168 74.8228 18.648C75.0228 19.128 75.1228 19.696 75.1228 20.352C75.1228 20.992 75.0268 21.552 74.8348 22.032C74.6428 22.504 74.3668 22.904 74.0068 23.232C73.6548 23.552 73.2308 23.792 72.7348 23.952C72.2388 24.112 71.6908 24.192 71.0908 24.192ZM77.7889 16.944C77.9249 16.864 78.1289 16.788 78.4009 16.716C78.6809 16.644 78.9609 16.608 79.2409 16.608C79.6409 16.608 79.9929 16.668 80.2969 16.788C80.6089 16.9 80.8089 17.08 80.8969 17.328C81.0409 17.744 81.1969 18.228 81.3649 18.78C81.5329 19.332 81.7009 19.904 81.8689 20.496C82.0369 21.08 82.2009 21.66 82.3609 22.236C82.5209 22.804 82.6609 23.308 82.7809 23.748C82.6849 23.86 82.5409 23.948 82.3489 24.012C82.1569 24.084 81.9289 24.12 81.6649 24.12C81.4729 24.12 81.3089 24.104 81.1729 24.072C81.0449 24.04 80.9369 23.992 80.8489 23.928C80.7689 23.864 80.7009 23.78 80.6449 23.676C80.5969 23.572 80.5529 23.452 80.5129 23.316L80.2969 22.488H78.1249C78.0609 22.728 77.9969 22.976 77.9329 23.232C77.8689 23.488 77.8049 23.736 77.7409 23.976C77.6289 24.016 77.5089 24.048 77.3809 24.072C77.2609 24.104 77.1129 24.12 76.9369 24.12C76.5289 24.12 76.2249 24.052 76.0249 23.916C75.8329 23.772 75.7369 23.576 75.7369 23.328C75.7369 23.216 75.7529 23.104 75.7849 22.992C75.8169 22.88 75.8529 22.748 75.8929 22.596C75.9489 22.38 76.0249 22.112 76.1209 21.792C76.2249 21.472 76.3369 21.128 76.4569 20.76C76.5769 20.384 76.7049 20 76.8409 19.608C76.9769 19.216 77.1049 18.848 77.2249 18.504C77.3449 18.152 77.4529 17.84 77.5489 17.568C77.6529 17.296 77.7329 17.088 77.7889 16.944ZM79.2289 18.492C79.1169 18.828 78.9889 19.204 78.8449 19.62C78.7089 20.028 78.5849 20.444 78.4729 20.868H79.9609C79.8489 20.436 79.7329 20.016 79.6129 19.608C79.5009 19.192 79.3969 18.82 79.3009 18.492H79.2289Z" fill="white"/>
<path fill-rule="evenodd" clip-rule="evenodd" d="M22.2701 23.9238L24.3448 23.3223L26.2871 26.8737C26.3791 27.042 26.6208 27.042 26.7128 26.8737L28.6551 23.3223L30.7298 23.9238C30.914 23.9772 31.0844 23.8059 31.03 23.622L30.4306 21.5959L33.8737 19.7128C34.042 19.6208 34.042 19.3791 33.8737 19.2871L30.3991 17.3868L31.03 15.2542C31.0844 15.0704 30.914 14.899 30.7298 14.9524L28.5968 15.5709L26.7128 12.1262C26.6208 11.9579 26.3791 11.9579 26.2871 12.1262L24.4031 15.5709L22.2701 14.9524C22.0859 14.899 21.9155 15.0704 21.9699 15.2542L22.6008 17.3868L19.1262 19.2871C18.9579 19.3791 18.9579 19.6208 19.1262 19.7128L22.5693 21.5959L21.9699 23.622C21.9155 23.8059 22.0859 23.9772 22.2701 23.9238ZM24.1649 19.7332L25.55 20.4907L26.3075 21.8758C26.3995 22.044 26.6412 22.044 26.7332 21.8758L27.4907 20.4907L28.8758 19.7332C29.044 19.6412 29.044 19.3995 28.8758 19.3075L27.4907 18.55L26.7332 17.1649C26.6412 16.9966 26.3995 16.9966 26.3075 17.1649L25.55 18.55L24.1649 19.3075C23.9966 19.3995 23.9966 19.6412 24.1649 19.7332Z" fill="white"/>
</g>
<defs>
<filter id="filter0_d_8_1154" x="-5" y="-5" width="130" height="50" filterUnits="userSpaceOnUse" color-interpolation-filters="sRGB">
<feFlood flood-opacity="0" result="BackgroundImageFix"/>
<feColorMatrix in="SourceAlpha" type="matrix" values="0 0 0 0 0 0 0 0 0 0 0 0 0 0 0 0 0 0 127 0" result="hardAlpha"/>
<feOffset/>
<feGaussianBlur stdDeviation="5"/>
<feColorMatrix type="matrix" values="0 0 0 0 0.937255 0 0 0 0 0.592157 0 0 0 0 0.901961 0 0 0 0.7 0"/>
<feBlend mode="normal" in2="BackgroundImageFix" result="effect1_dropShadow_8_1154"/>
<feBlend mode="normal" in="SourceGraphic" in2="effect1_dropShadow_8_1154" result="shape"/>
</filter>
<clipPath id="clip0_8_1154">
<rect width="110" height="30" fill="white" transform="translate(5 5)"/>
</clipPath>
</defs>
</svg>
