<svg width="120" height="40" viewBox="0 0 120 40" fill="none" xmlns="http://www.w3.org/2000/svg">
<g clip-path="url(#clip0_8_1163)">
<g filter="url(#filter0_d_8_1163)">
<rect x="5" y="5" width="110" height="30" rx="15" fill="#D94256"/>
</g>
<path d="M44.6675 24.036C44.3235 24.036 44.0515 23.936 43.8515 23.736C43.6515 23.536 43.5515 23.264 43.5515 22.92V16.716C43.6395 16.7 43.7795 16.68 43.9715 16.656C44.1635 16.624 44.3475 16.608 44.5235 16.608C44.7075 16.608 44.8675 16.624 45.0035 16.656C45.1475 16.68 45.2675 16.728 45.3635 16.8C45.4595 16.872 45.5315 16.972 45.5795 17.1C45.6275 17.228 45.6515 17.396 45.6515 17.604V22.344H48.3995C48.4555 22.432 48.5075 22.552 48.5555 22.704C48.6035 22.848 48.6275 23 48.6275 23.16C48.6275 23.48 48.5595 23.708 48.4235 23.844C48.2875 23.972 48.1075 24.036 47.8835 24.036H44.6675ZM56.0306 21.312C56.0306 21.744 55.9546 22.14 55.8026 22.5C55.6586 22.852 55.4466 23.156 55.1666 23.412C54.8866 23.66 54.5466 23.852 54.1466 23.988C53.7466 24.124 53.2946 24.192 52.7906 24.192C52.2866 24.192 51.8346 24.124 51.4346 23.988C51.0346 23.852 50.6946 23.66 50.4146 23.412C50.1346 23.156 49.9186 22.852 49.7666 22.5C49.6226 22.14 49.5506 21.744 49.5506 21.312V16.728C49.6386 16.712 49.7786 16.692 49.9706 16.668C50.1626 16.636 50.3466 16.62 50.5226 16.62C50.7066 16.62 50.8666 16.636 51.0026 16.668C51.1466 16.692 51.2666 16.74 51.3626 16.812C51.4586 16.884 51.5306 16.984 51.5786 17.112C51.6266 17.24 51.6506 17.408 51.6506 17.616V21.276C51.6506 21.66 51.7546 21.96 51.9626 22.176C52.1786 22.392 52.4546 22.5 52.7906 22.5C53.1346 22.5 53.4106 22.392 53.6186 22.176C53.8266 21.96 53.9306 21.66 53.9306 21.276V16.728C54.0186 16.712 54.1586 16.692 54.3506 16.668C54.5426 16.636 54.7266 16.62 54.9026 16.62C55.0866 16.62 55.2466 16.636 55.3826 16.668C55.5266 16.692 55.6466 16.74 55.7426 16.812C55.8386 16.884 55.9106 16.984 55.9586 17.112C56.0066 17.24 56.0306 17.408 56.0306 17.616V21.312ZM57.2194 18.408C57.1634 18.32 57.1114 18.2 57.0634 18.048C57.0154 17.896 56.9914 17.736 56.9914 17.568C56.9914 17.256 57.0594 17.032 57.1954 16.896C57.3394 16.76 57.5234 16.692 57.7474 16.692H62.9794C63.0354 16.78 63.0874 16.9 63.1354 17.052C63.1834 17.204 63.2074 17.364 63.2074 17.532C63.2074 17.844 63.1354 18.068 62.9914 18.204C62.8554 18.34 62.6754 18.408 62.4514 18.408H61.1194V23.952C61.0314 23.976 60.8914 24 60.6994 24.024C60.5154 24.048 60.3314 24.06 60.1474 24.06C59.9634 24.06 59.7994 24.044 59.6554 24.012C59.5194 23.988 59.4034 23.94 59.3074 23.868C59.2114 23.796 59.1394 23.696 59.0914 23.568C59.0434 23.44 59.0194 23.272 59.0194 23.064V18.408H57.2194ZM65.2909 16.944C65.4269 16.864 65.6309 16.788 65.9029 16.716C66.1829 16.644 66.4629 16.608 66.7429 16.608C67.1429 16.608 67.4949 16.668 67.7989 16.788C68.1109 16.9 68.3109 17.08 68.3989 17.328C68.5429 17.744 68.6989 18.228 68.8669 18.78C69.0349 19.332 69.2029 19.904 69.3709 20.496C69.5389 21.08 69.7029 21.66 69.8629 22.236C70.0229 22.804 70.1629 23.308 70.2829 23.748C70.1869 23.86 70.0429 23.948 69.8509 24.012C69.6589 24.084 69.4309 24.12 69.1669 24.12C68.9749 24.12 68.8109 24.104 68.6749 24.072C68.5469 24.04 68.4389 23.992 68.3509 23.928C68.2709 23.864 68.2029 23.78 68.1469 23.676C68.0989 23.572 68.0549 23.452 68.0149 23.316L67.7989 22.488H65.6269C65.5629 22.728 65.4989 22.976 65.4349 23.232C65.3709 23.488 65.3069 23.736 65.2429 23.976C65.1309 24.016 65.0109 24.048 64.8829 24.072C64.7629 24.104 64.6149 24.12 64.4389 24.12C64.0309 24.12 63.7269 24.052 63.5269 23.916C63.3349 23.772 63.2389 23.576 63.2389 23.328C63.2389 23.216 63.2549 23.104 63.2869 22.992C63.3189 22.88 63.3549 22.748 63.3949 22.596C63.4509 22.38 63.5269 22.112 63.6229 21.792C63.7269 21.472 63.8389 21.128 63.9589 20.76C64.0789 20.384 64.2069 20 64.3429 19.608C64.4789 19.216 64.6069 18.848 64.7269 18.504C64.8469 18.152 64.9549 17.84 65.0509 17.568C65.1549 17.296 65.2349 17.088 65.2909 16.944ZM66.7309 18.492C66.6189 18.828 66.4909 19.204 66.3469 19.62C66.2109 20.028 66.0869 20.444 65.9749 20.868H67.4629C67.3509 20.436 67.2349 20.016 67.1149 19.608C67.0029 19.192 66.8989 18.82 66.8029 18.492H66.7309ZM73.3543 22.44C73.4423 22.456 73.5503 22.472 73.6783 22.488C73.8063 22.496 73.9263 22.5 74.0383 22.5C74.3103 22.5 74.5583 22.46 74.7823 22.38C75.0143 22.3 75.2103 22.176 75.3703 22.008C75.5383 21.84 75.6663 21.624 75.7543 21.36C75.8503 21.088 75.8983 20.764 75.8983 20.388C75.8983 19.668 75.7303 19.128 75.3943 18.768C75.0583 18.4 74.6103 18.216 74.0503 18.216C73.9383 18.216 73.8223 18.22 73.7023 18.228C73.5903 18.236 73.4743 18.248 73.3543 18.264V22.44ZM74.0263 24.192C73.8903 24.192 73.7343 24.188 73.5583 24.18C73.3823 24.172 73.1983 24.156 73.0063 24.132C72.8223 24.108 72.6343 24.076 72.4423 24.036C72.2583 24.004 72.0863 23.956 71.9263 23.892C71.4863 23.724 71.2663 23.432 71.2663 23.016V17.412C71.2663 17.244 71.3103 17.116 71.3983 17.028C71.4943 16.932 71.6223 16.856 71.7823 16.8C72.1263 16.688 72.4903 16.616 72.8743 16.584C73.2583 16.544 73.6023 16.524 73.9063 16.524C74.5303 16.524 75.0943 16.6 75.5983 16.752C76.1103 16.904 76.5463 17.14 76.9063 17.46C77.2743 17.772 77.5583 18.168 77.7583 18.648C77.9583 19.128 78.0583 19.696 78.0583 20.352C78.0583 20.992 77.9623 21.552 77.7703 22.032C77.5783 22.504 77.3023 22.904 76.9423 23.232C76.5903 23.552 76.1663 23.792 75.6703 23.952C75.1743 24.112 74.6263 24.192 74.0263 24.192ZM78.8985 20.352C78.8985 19.728 78.9945 19.176 79.1865 18.696C79.3865 18.216 79.6545 17.816 79.9905 17.496C80.3345 17.168 80.7345 16.92 81.1905 16.752C81.6545 16.584 82.1545 16.5 82.6905 16.5C83.2265 16.5 83.7225 16.584 84.1785 16.752C84.6425 16.92 85.0465 17.168 85.3905 17.496C85.7345 17.816 86.0025 18.216 86.1945 18.696C86.3945 19.176 86.4945 19.728 86.4945 20.352C86.4945 20.976 86.3985 21.532 86.2065 22.02C86.0145 22.5 85.7465 22.904 85.4025 23.232C85.0665 23.552 84.6665 23.796 84.2025 23.964C83.7385 24.132 83.2345 24.216 82.6905 24.216C82.1465 24.216 81.6425 24.132 81.1785 23.964C80.7145 23.788 80.3145 23.536 79.9785 23.208C79.6425 22.88 79.3785 22.476 79.1865 21.996C78.9945 21.516 78.8985 20.968 78.8985 20.352ZM81.0585 20.352C81.0585 21.08 81.2065 21.624 81.5025 21.984C81.7985 22.344 82.1945 22.524 82.6905 22.524C83.1945 22.524 83.5945 22.344 83.8905 21.984C84.1865 21.624 84.3345 21.08 84.3345 20.352C84.3345 19.632 84.1865 19.092 83.8905 18.732C83.6025 18.372 83.2065 18.192 82.7025 18.192C82.2065 18.192 81.8065 18.372 81.5025 18.732C81.2065 19.084 81.0585 19.624 81.0585 20.352ZM89.784 21.648V23.952C89.696 23.976 89.556 24 89.364 24.024C89.18 24.048 88.996 24.06 88.812 24.06C88.628 24.06 88.464 24.044 88.32 24.012C88.184 23.988 88.068 23.94 87.972 23.868C87.884 23.796 87.816 23.696 87.768 23.568C87.72 23.44 87.696 23.272 87.696 23.064V17.412C87.696 17.244 87.74 17.116 87.828 17.028C87.924 16.932 88.052 16.856 88.212 16.8C88.484 16.704 88.8 16.636 89.16 16.596C89.52 16.548 89.904 16.524 90.312 16.524C91.416 16.524 92.248 16.756 92.808 17.22C93.368 17.684 93.648 18.312 93.648 19.104C93.648 19.6 93.52 20.024 93.264 20.376C93.008 20.728 92.704 21 92.352 21.192C92.64 21.584 92.924 21.952 93.204 22.296C93.484 22.64 93.704 22.952 93.864 23.232C93.784 23.512 93.636 23.728 93.42 23.88C93.212 24.024 92.976 24.096 92.712 24.096C92.536 24.096 92.384 24.076 92.256 24.036C92.128 23.996 92.016 23.94 91.92 23.868C91.824 23.796 91.736 23.708 91.656 23.604C91.576 23.5 91.5 23.388 91.428 23.268L90.42 21.648H89.784ZM90.54 20.052C90.844 20.052 91.084 19.976 91.26 19.824C91.436 19.664 91.524 19.432 91.524 19.128C91.524 18.824 91.424 18.596 91.224 18.444C91.032 18.284 90.724 18.204 90.3 18.204C90.18 18.204 90.084 18.208 90.012 18.216C89.94 18.224 89.86 18.236 89.772 18.252V20.052H90.54Z" fill="white"/>
<path fill-rule="evenodd" clip-rule="evenodd" d="M21.0869 13.2471C21.2684 12.5303 21.9177 12 22.6909 12C23.2733 12 23.7854 12.3009 24.0802 12.7557C24.1257 12.7519 24.1717 12.75 24.2182 12.75C24.3255 12.75 24.4304 12.7602 24.5321 12.7797C24.8342 12.4539 25.266 12.25 25.7455 12.25C26.4267 12.25 27.0118 12.6618 27.2655 13.25L27.2727 13.25C27.3904 13.25 27.5052 13.2623 27.6159 13.2856C27.8808 13.1054 28.2008 13 28.5455 13C29.2607 13 29.8699 13.4538 30.1009 14.0892C30.2263 14.1322 30.3448 14.1898 30.4545 14.2601C30.7117 14.0955 31.0174 14 31.3455 14C32.2592 14 33 14.7408 33 15.6545V20.625V20.7056C33 20.736 32.9992 20.7663 32.9975 20.7964C32.8978 24.238 29.8031 27 26 27C22.134 27 19 24.1458 19 20.625C19 18.9255 19.7302 17.3813 20.9205 16.2385C20.9175 17.8965 20.9455 19.6111 21.0745 19.5817C21.42 19.5029 21.1501 14.3687 21.0869 13.2471Z" fill="white"/>
</g>
<defs>
<filter id="filter0_d_8_1163" x="-5" y="-5" width="130" height="50" filterUnits="userSpaceOnUse" color-interpolation-filters="sRGB">
<feFlood flood-opacity="0" result="BackgroundImageFix"/>
<feColorMatrix in="SourceAlpha" type="matrix" values="0 0 0 0 0 0 0 0 0 0 0 0 0 0 0 0 0 0 127 0" result="hardAlpha"/>
<feOffset/>
<feGaussianBlur stdDeviation="5"/>
<feColorMatrix type="matrix" values="0 0 0 0 0.85098 0 0 0 0 0.258824 0 0 0 0 0.337255 0 0 0 0.7 0"/>
<feBlend mode="normal" in2="BackgroundImageFix" result="effect1_dropShadow_8_1163"/>
<feBlend mode="normal" in="SourceGraphic" in2="effect1_dropShadow_8_1163" result="shape"/>
</filter>
<clipPath id="clip0_8_1163">
<rect width="110" height="30" fill="white" transform="translate(5 5)"/>
</clipPath>
</defs>
</svg>
