<svg width="120" height="40" viewBox="0 0 120 40" fill="none" xmlns="http://www.w3.org/2000/svg">
<g clip-path="url(#clip0_8_1178)">
<g filter="url(#filter0_d_8_1178)">
<rect x="5" y="5" width="110" height="30" rx="15" fill="#F8A54F"/>
</g>
<path d="M58.8119 16.728C58.8679 16.816 58.9159 16.936 58.9559 17.088C59.0039 17.232 59.0279 17.384 59.0279 17.544C59.0279 17.856 58.9599 18.08 58.8239 18.216C58.6959 18.344 58.5199 18.408 58.2959 18.408H55.7759V19.764H58.4039C58.4679 19.852 58.5199 19.968 58.5599 20.112C58.6079 20.256 58.6319 20.408 58.6319 20.568C58.6319 20.872 58.5639 21.092 58.4279 21.228C58.2999 21.356 58.1239 21.42 57.8999 21.42H55.7999V23.952C55.7119 23.976 55.5719 24 55.3799 24.024C55.1959 24.048 55.0119 24.06 54.8279 24.06C54.6439 24.06 54.4799 24.044 54.3359 24.012C54.1999 23.988 54.0839 23.94 53.9879 23.868C53.8919 23.796 53.8199 23.696 53.7719 23.568C53.7239 23.44 53.6999 23.272 53.6999 23.064V17.844C53.6999 17.5 53.7999 17.228 53.9999 17.028C54.1999 16.828 54.4719 16.728 54.8159 16.728H58.8119ZM59.6563 20.352C59.6563 19.728 59.7523 19.176 59.9443 18.696C60.1443 18.216 60.4123 17.816 60.7483 17.496C61.0923 17.168 61.4923 16.92 61.9483 16.752C62.4123 16.584 62.9123 16.5 63.4483 16.5C63.9843 16.5 64.4803 16.584 64.9363 16.752C65.4003 16.92 65.8043 17.168 66.1483 17.496C66.4923 17.816 66.7603 18.216 66.9523 18.696C67.1523 19.176 67.2523 19.728 67.2523 20.352C67.2523 20.976 67.1563 21.532 66.9643 22.02C66.7723 22.5 66.5043 22.904 66.1603 23.232C65.8243 23.552 65.4243 23.796 64.9603 23.964C64.4963 24.132 63.9923 24.216 63.4483 24.216C62.9043 24.216 62.4003 24.132 61.9363 23.964C61.4723 23.788 61.0723 23.536 60.7363 23.208C60.4003 22.88 60.1363 22.476 59.9443 21.996C59.7523 21.516 59.6563 20.968 59.6563 20.352ZM61.8163 20.352C61.8163 21.08 61.9643 21.624 62.2603 21.984C62.5563 22.344 62.9523 22.524 63.4483 22.524C63.9523 22.524 64.3523 22.344 64.6483 21.984C64.9443 21.624 65.0923 21.08 65.0923 20.352C65.0923 19.632 64.9443 19.092 64.6483 18.732C64.3603 18.372 63.9643 18.192 63.4603 18.192C62.9643 18.192 62.5643 18.372 62.2603 18.732C61.9643 19.084 61.8163 19.624 61.8163 20.352ZM75.0418 22.812C75.0418 23.06 74.9978 23.244 74.9098 23.364C74.8218 23.484 74.6818 23.6 74.4898 23.712C74.3778 23.776 74.2378 23.84 74.0698 23.904C73.9018 23.96 73.7178 24.008 73.5178 24.048C73.3178 24.096 73.1058 24.132 72.8818 24.156C72.6658 24.18 72.4498 24.192 72.2338 24.192C71.6578 24.192 71.1178 24.116 70.6138 23.964C70.1098 23.804 69.6698 23.568 69.2938 23.256C68.9258 22.936 68.6338 22.54 68.4178 22.068C68.2018 21.596 68.0938 21.048 68.0938 20.424C68.0938 19.768 68.2098 19.196 68.4418 18.708C68.6818 18.22 68.9938 17.816 69.3778 17.496C69.7698 17.168 70.2138 16.924 70.7098 16.764C71.2138 16.604 71.7298 16.524 72.2578 16.524C73.0178 16.524 73.6178 16.648 74.0578 16.896C74.5058 17.136 74.7298 17.452 74.7298 17.844C74.7298 18.052 74.6778 18.232 74.5738 18.384C74.4698 18.536 74.3498 18.656 74.2138 18.744C74.0138 18.624 73.7618 18.508 73.4578 18.396C73.1618 18.276 72.8258 18.216 72.4498 18.216C71.7778 18.216 71.2418 18.408 70.8418 18.792C70.4498 19.176 70.2538 19.708 70.2538 20.388C70.2538 20.756 70.3058 21.076 70.4098 21.348C70.5218 21.612 70.6698 21.832 70.8538 22.008C71.0378 22.176 71.2498 22.304 71.4898 22.392C71.7298 22.472 71.9858 22.512 72.2578 22.512C72.4338 22.512 72.5898 22.496 72.7258 22.464C72.8618 22.432 72.9658 22.396 73.0378 22.356V21.228H71.7538C71.7058 21.14 71.6578 21.024 71.6098 20.88C71.5698 20.736 71.5498 20.584 71.5498 20.424C71.5498 20.136 71.6138 19.928 71.7418 19.8C71.8778 19.672 72.0498 19.608 72.2578 19.608H74.2858C74.5258 19.608 74.7098 19.676 74.8378 19.812C74.9738 19.94 75.0418 20.124 75.0418 20.364V22.812ZM76.0626 20.352C76.0626 19.728 76.1586 19.176 76.3506 18.696C76.5506 18.216 76.8186 17.816 77.1546 17.496C77.4986 17.168 77.8986 16.92 78.3546 16.752C78.8186 16.584 79.3186 16.5 79.8546 16.5C80.3906 16.5 80.8866 16.584 81.3426 16.752C81.8066 16.92 82.2106 17.168 82.5546 17.496C82.8986 17.816 83.1666 18.216 83.3586 18.696C83.5586 19.176 83.6586 19.728 83.6586 20.352C83.6586 20.976 83.5626 21.532 83.3706 22.02C83.1786 22.5 82.9106 22.904 82.5666 23.232C82.2306 23.552 81.8306 23.796 81.3666 23.964C80.9026 24.132 80.3986 24.216 79.8546 24.216C79.3106 24.216 78.8066 24.132 78.3426 23.964C77.8786 23.788 77.4786 23.536 77.1426 23.208C76.8066 22.88 76.5426 22.476 76.3506 21.996C76.1586 21.516 76.0626 20.968 76.0626 20.352ZM78.2226 20.352C78.2226 21.08 78.3706 21.624 78.6666 21.984C78.9626 22.344 79.3586 22.524 79.8546 22.524C80.3586 22.524 80.7586 22.344 81.0546 21.984C81.3506 21.624 81.4986 21.08 81.4986 20.352C81.4986 19.632 81.3506 19.092 81.0546 18.732C80.7666 18.372 80.3706 18.192 79.8666 18.192C79.3706 18.192 78.9706 18.372 78.6666 18.732C78.3706 19.084 78.2226 19.624 78.2226 20.352Z" fill="white"/>
<path fill-rule="evenodd" clip-rule="evenodd" d="M27.4855 23.44C27.6685 22.7708 27.3132 21.3949 27.3132 21.3949C27.3132 21.3949 27.0556 22.5157 26.6529 22.93C26.3094 23.2834 25.8886 23.5285 25.285 23.5929C25.7785 23.3532 26.1179 22.8534 26.1179 22.2757C26.1179 21.4649 25.4492 20.8075 24.6243 20.8075C23.7994 20.8075 23.1307 21.4649 23.1307 22.2757C23.1307 22.4972 23.1806 22.7072 23.2699 22.8955C22.754 22.4845 22.6728 21.8255 22.6728 21.8255C22.6728 21.8255 22.0967 24.2174 23.6842 25.3426C25.2716 26.4678 28.3813 25.5006 28.3813 25.5006C28.3813 25.5006 23.9311 28.6319 20.6335 25.2239C17.7928 22.2882 19.8921 18.4232 19.8921 18.4232C19.8921 18.4232 19.8014 18.7818 19.8014 19.198C19.8014 19.6142 20.0271 19.9309 20.0271 19.9309C20.0271 19.9309 20.7002 18.512 21.2241 17.935C21.7199 17.3889 22.3414 16.946 22.8782 16.5635C23.2914 16.269 23.6545 16.0102 23.8713 15.7678C25.0656 14.4324 24.3333 12 24.3333 12C24.3333 12 25.6796 13.1868 26.0554 14.7197C26.1987 15.3039 26.1065 15.9687 26.0241 16.5632C25.8903 17.5283 25.7822 18.3081 26.7487 18.2575C28.3106 18.1758 26.9534 15.7678 26.9534 15.7678C26.9534 15.7678 30.4963 17.6299 30.2316 20.8867C29.9669 24.1435 26.359 24.8839 26.359 24.8839C26.359 24.8839 27.3024 24.1093 27.4855 23.44Z" fill="white"/>
</g>
<defs>
<filter id="filter0_d_8_1178" x="-5" y="-5" width="130" height="50" filterUnits="userSpaceOnUse" color-interpolation-filters="sRGB">
<feFlood flood-opacity="0" result="BackgroundImageFix"/>
<feColorMatrix in="SourceAlpha" type="matrix" values="0 0 0 0 0 0 0 0 0 0 0 0 0 0 0 0 0 0 127 0" result="hardAlpha"/>
<feOffset/>
<feGaussianBlur stdDeviation="5"/>
<feColorMatrix type="matrix" values="0 0 0 0 0.972549 0 0 0 0 0.647059 0 0 0 0 0.309804 0 0 0 0.7 0"/>
<feBlend mode="normal" in2="BackgroundImageFix" result="effect1_dropShadow_8_1178"/>
<feBlend mode="normal" in="SourceGraphic" in2="effect1_dropShadow_8_1178" result="shape"/>
</filter>
<clipPath id="clip0_8_1178">
<rect width="110" height="30" fill="white" transform="translate(5 5)"/>
</clipPath>
</defs>
</svg>
