<svg width="120" height="40" viewBox="0 0 120 40" fill="none" xmlns="http://www.w3.org/2000/svg">
<g clip-path="url(#clip0_8_1185)">
<g filter="url(#filter0_d_8_1185)">
<rect x="5" y="5" width="110" height="30" rx="15" fill="#9BB4E8"/>
</g>
<path d="M50.0637 23.76C49.9517 23.856 49.7757 23.94 49.5357 24.012C49.3037 24.084 49.0477 24.12 48.7677 24.12C48.4317 24.12 48.1437 24.072 47.9037 23.976C47.6637 23.872 47.4997 23.732 47.4117 23.556C47.3237 23.372 47.2157 23.136 47.0877 22.848C46.9597 22.552 46.8237 22.224 46.6797 21.864C46.5437 21.504 46.3997 21.124 46.2477 20.724C46.1037 20.316 45.9637 19.904 45.8277 19.488C45.6917 19.072 45.5637 18.664 45.4437 18.264C45.3237 17.864 45.2197 17.488 45.1317 17.136C45.2437 17.024 45.4037 16.924 45.6117 16.836C45.8277 16.74 46.0557 16.692 46.2957 16.692C46.5917 16.692 46.8317 16.756 47.0157 16.884C47.2077 17.004 47.3477 17.232 47.4357 17.568C47.6517 18.352 47.8677 19.104 48.0837 19.824C48.3077 20.536 48.5397 21.28 48.7797 22.056H48.8517C49.0677 21.304 49.2877 20.484 49.5117 19.596C49.7437 18.708 49.9637 17.824 50.1717 16.944C50.3157 16.872 50.4677 16.812 50.6277 16.764C50.7957 16.716 50.9837 16.692 51.1917 16.692C51.4877 16.692 51.7397 16.76 51.9477 16.896C52.1557 17.024 52.2597 17.24 52.2597 17.544C52.2597 17.72 52.2157 17.976 52.1277 18.312C52.0477 18.648 51.9397 19.028 51.8037 19.452C51.6757 19.868 51.5277 20.304 51.3597 20.76C51.1997 21.216 51.0357 21.648 50.8677 22.056C50.7077 22.456 50.5557 22.812 50.4117 23.124C50.2677 23.428 50.1517 23.64 50.0637 23.76ZM52.8712 20.352C52.8712 19.728 52.9672 19.176 53.1592 18.696C53.3592 18.216 53.6272 17.816 53.9632 17.496C54.3072 17.168 54.7072 16.92 55.1632 16.752C55.6272 16.584 56.1272 16.5 56.6632 16.5C57.1992 16.5 57.6952 16.584 58.1512 16.752C58.6152 16.92 59.0192 17.168 59.3632 17.496C59.7072 17.816 59.9752 18.216 60.1672 18.696C60.3672 19.176 60.4672 19.728 60.4672 20.352C60.4672 20.976 60.3712 21.532 60.1792 22.02C59.9872 22.5 59.7192 22.904 59.3752 23.232C59.0392 23.552 58.6392 23.796 58.1752 23.964C57.7112 24.132 57.2072 24.216 56.6632 24.216C56.1192 24.216 55.6152 24.132 55.1512 23.964C54.6872 23.788 54.2872 23.536 53.9512 23.208C53.6152 22.88 53.3512 22.476 53.1592 21.996C52.9672 21.516 52.8712 20.968 52.8712 20.352ZM55.0312 20.352C55.0312 21.08 55.1792 21.624 55.4752 21.984C55.7712 22.344 56.1672 22.524 56.6632 22.524C57.1672 22.524 57.5672 22.344 57.8632 21.984C58.1592 21.624 58.3072 21.08 58.3072 20.352C58.3072 19.632 58.1592 19.092 57.8632 18.732C57.5752 18.372 57.1792 18.192 56.6752 18.192C56.1792 18.192 55.7792 18.372 55.4752 18.732C55.1792 19.084 55.0312 19.624 55.0312 20.352ZM63.1346 16.944C63.2706 16.864 63.4746 16.788 63.7466 16.716C64.0266 16.644 64.3066 16.608 64.5866 16.608C64.9866 16.608 65.3386 16.668 65.6426 16.788C65.9546 16.9 66.1546 17.08 66.2426 17.328C66.3866 17.744 66.5426 18.228 66.7106 18.78C66.8786 19.332 67.0466 19.904 67.2146 20.496C67.3826 21.08 67.5466 21.66 67.7066 22.236C67.8666 22.804 68.0066 23.308 68.1266 23.748C68.0306 23.86 67.8866 23.948 67.6946 24.012C67.5026 24.084 67.2746 24.12 67.0106 24.12C66.8186 24.12 66.6546 24.104 66.5186 24.072C66.3906 24.04 66.2826 23.992 66.1946 23.928C66.1146 23.864 66.0466 23.78 65.9906 23.676C65.9426 23.572 65.8986 23.452 65.8586 23.316L65.6426 22.488H63.4706C63.4066 22.728 63.3426 22.976 63.2786 23.232C63.2146 23.488 63.1506 23.736 63.0866 23.976C62.9746 24.016 62.8546 24.048 62.7266 24.072C62.6066 24.104 62.4586 24.12 62.2826 24.12C61.8746 24.12 61.5706 24.052 61.3706 23.916C61.1786 23.772 61.0826 23.576 61.0826 23.328C61.0826 23.216 61.0986 23.104 61.1306 22.992C61.1626 22.88 61.1986 22.748 61.2386 22.596C61.2946 22.38 61.3706 22.112 61.4666 21.792C61.5706 21.472 61.6826 21.128 61.8026 20.76C61.9226 20.384 62.0506 20 62.1866 19.608C62.3226 19.216 62.4506 18.848 62.5706 18.504C62.6906 18.152 62.7986 17.84 62.8946 17.568C62.9986 17.296 63.0786 17.088 63.1346 16.944ZM64.5746 18.492C64.4626 18.828 64.3346 19.204 64.1906 19.62C64.0546 20.028 63.9306 20.444 63.8186 20.868H65.3066C65.1946 20.436 65.0786 20.016 64.9586 19.608C64.8466 19.192 64.7426 18.82 64.6466 18.492H64.5746ZM71.1981 22.44C71.2861 22.456 71.3941 22.472 71.5221 22.488C71.6501 22.496 71.7701 22.5 71.8821 22.5C72.1541 22.5 72.4021 22.46 72.6261 22.38C72.8581 22.3 73.0541 22.176 73.2141 22.008C73.3821 21.84 73.5101 21.624 73.5981 21.36C73.6941 21.088 73.7421 20.764 73.7421 20.388C73.7421 19.668 73.5741 19.128 73.2381 18.768C72.9021 18.4 72.4541 18.216 71.8941 18.216C71.7821 18.216 71.6661 18.22 71.5461 18.228C71.4341 18.236 71.3181 18.248 71.1981 18.264V22.44ZM71.8701 24.192C71.7341 24.192 71.5781 24.188 71.4021 24.18C71.2261 24.172 71.0421 24.156 70.8501 24.132C70.6661 24.108 70.4781 24.076 70.2861 24.036C70.1021 24.004 69.9301 23.956 69.7701 23.892C69.3301 23.724 69.1101 23.432 69.1101 23.016V17.412C69.1101 17.244 69.1541 17.116 69.2421 17.028C69.3381 16.932 69.4661 16.856 69.6261 16.8C69.9701 16.688 70.3341 16.616 70.7181 16.584C71.1021 16.544 71.4461 16.524 71.7501 16.524C72.3741 16.524 72.9381 16.6 73.4421 16.752C73.9541 16.904 74.3901 17.14 74.7501 17.46C75.1181 17.772 75.4021 18.168 75.6021 18.648C75.8021 19.128 75.9021 19.696 75.9021 20.352C75.9021 20.992 75.8061 21.552 75.6141 22.032C75.4221 22.504 75.1461 22.904 74.7861 23.232C74.4341 23.552 74.0101 23.792 73.5141 23.952C73.0181 24.112 72.4701 24.192 71.8701 24.192ZM76.7423 20.352C76.7423 19.728 76.8383 19.176 77.0303 18.696C77.2303 18.216 77.4983 17.816 77.8343 17.496C78.1783 17.168 78.5783 16.92 79.0343 16.752C79.4983 16.584 79.9983 16.5 80.5343 16.5C81.0703 16.5 81.5663 16.584 82.0223 16.752C82.4863 16.92 82.8903 17.168 83.2343 17.496C83.5783 17.816 83.8463 18.216 84.0383 18.696C84.2383 19.176 84.3383 19.728 84.3383 20.352C84.3383 20.976 84.2423 21.532 84.0503 22.02C83.8583 22.5 83.5903 22.904 83.2463 23.232C82.9103 23.552 82.5103 23.796 82.0463 23.964C81.5823 24.132 81.0783 24.216 80.5343 24.216C79.9903 24.216 79.4863 24.132 79.0223 23.964C78.5583 23.788 78.1583 23.536 77.8223 23.208C77.4863 22.88 77.2223 22.476 77.0303 21.996C76.8383 21.516 76.7423 20.968 76.7423 20.352ZM78.9023 20.352C78.9023 21.08 79.0503 21.624 79.3463 21.984C79.6423 22.344 80.0383 22.524 80.5343 22.524C81.0383 22.524 81.4383 22.344 81.7343 21.984C82.0303 21.624 82.1783 21.08 82.1783 20.352C82.1783 19.632 82.0303 19.092 81.7343 18.732C81.4463 18.372 81.0503 18.192 80.5463 18.192C80.0503 18.192 79.6503 18.372 79.3463 18.732C79.0503 19.084 78.9023 19.624 78.9023 20.352ZM87.6278 21.648V23.952C87.5398 23.976 87.3998 24 87.2078 24.024C87.0238 24.048 86.8398 24.06 86.6558 24.06C86.4718 24.06 86.3078 24.044 86.1638 24.012C86.0278 23.988 85.9118 23.94 85.8158 23.868C85.7278 23.796 85.6598 23.696 85.6118 23.568C85.5638 23.44 85.5398 23.272 85.5398 23.064V17.412C85.5398 17.244 85.5838 17.116 85.6718 17.028C85.7678 16.932 85.8958 16.856 86.0558 16.8C86.3278 16.704 86.6438 16.636 87.0038 16.596C87.3638 16.548 87.7478 16.524 88.1558 16.524C89.2598 16.524 90.0918 16.756 90.6518 17.22C91.2118 17.684 91.4918 18.312 91.4918 19.104C91.4918 19.6 91.3638 20.024 91.1078 20.376C90.8518 20.728 90.5478 21 90.1958 21.192C90.4838 21.584 90.7678 21.952 91.0478 22.296C91.3278 22.64 91.5478 22.952 91.7078 23.232C91.6278 23.512 91.4798 23.728 91.2638 23.88C91.0558 24.024 90.8198 24.096 90.5558 24.096C90.3798 24.096 90.2278 24.076 90.0998 24.036C89.9718 23.996 89.8598 23.94 89.7638 23.868C89.6678 23.796 89.5798 23.708 89.4998 23.604C89.4198 23.5 89.3438 23.388 89.2718 23.268L88.2638 21.648H87.6278ZM88.3838 20.052C88.6878 20.052 88.9278 19.976 89.1038 19.824C89.2798 19.664 89.3678 19.432 89.3678 19.128C89.3678 18.824 89.2678 18.596 89.0678 18.444C88.8758 18.284 88.5678 18.204 88.1438 18.204C88.0238 18.204 87.9278 18.208 87.8558 18.216C87.7838 18.224 87.7038 18.236 87.6158 18.252V20.052H88.3838Z" fill="white"/>
<ellipse cx="26.5" cy="18.5" rx="7.5" ry="6.5" fill="white"/>
</g>
<defs>
<filter id="filter0_d_8_1185" x="-5" y="-5" width="130" height="50" filterUnits="userSpaceOnUse" color-interpolation-filters="sRGB">
<feFlood flood-opacity="0" result="BackgroundImageFix"/>
<feColorMatrix in="SourceAlpha" type="matrix" values="0 0 0 0 0 0 0 0 0 0 0 0 0 0 0 0 0 0 127 0" result="hardAlpha"/>
<feOffset/>
<feGaussianBlur stdDeviation="5"/>
<feColorMatrix type="matrix" values="0 0 0 0 0.607843 0 0 0 0 0.705882 0 0 0 0 0.909804 0 0 0 0.7 0"/>
<feBlend mode="normal" in2="BackgroundImageFix" result="effect1_dropShadow_8_1185"/>
<feBlend mode="normal" in="SourceGraphic" in2="effect1_dropShadow_8_1185" result="shape"/>
</filter>
<clipPath id="clip0_8_1185">
<rect width="110" height="30" fill="white" transform="translate(5 5)"/>
</clipPath>
</defs>
</svg>
