<svg width="120" height="40" viewBox="0 0 120 40" fill="none" xmlns="http://www.w3.org/2000/svg">
<g clip-path="url(#clip0_8_1190)">
<g filter="url(#filter0_d_8_1190)">
<rect x="5" y="5" width="110" height="30" rx="15" fill="#6970C5"/>
</g>
<path d="M44.808 16.728C44.864 16.816 44.912 16.936 44.952 17.088C45 17.232 45.024 17.384 45.024 17.544C45.024 17.856 44.956 18.08 44.82 18.216C44.692 18.344 44.516 18.408 44.292 18.408H41.772V19.764H44.4C44.464 19.852 44.516 19.968 44.556 20.112C44.604 20.256 44.628 20.408 44.628 20.568C44.628 20.872 44.56 21.092 44.424 21.228C44.296 21.356 44.12 21.42 43.896 21.42H41.796V23.952C41.708 23.976 41.568 24 41.376 24.024C41.192 24.048 41.008 24.06 40.824 24.06C40.64 24.06 40.476 24.044 40.332 24.012C40.196 23.988 40.08 23.94 39.984 23.868C39.888 23.796 39.816 23.696 39.768 23.568C39.72 23.44 39.696 23.272 39.696 23.064V17.844C39.696 17.5 39.796 17.228 39.996 17.028C40.196 16.828 40.468 16.728 40.812 16.728H44.808ZM47.2557 16.944C47.3917 16.864 47.5957 16.788 47.8677 16.716C48.1477 16.644 48.4277 16.608 48.7077 16.608C49.1077 16.608 49.4597 16.668 49.7637 16.788C50.0757 16.9 50.2757 17.08 50.3637 17.328C50.5077 17.744 50.6637 18.228 50.8317 18.78C50.9997 19.332 51.1677 19.904 51.3357 20.496C51.5037 21.08 51.6677 21.66 51.8277 22.236C51.9877 22.804 52.1277 23.308 52.2477 23.748C52.1517 23.86 52.0077 23.948 51.8157 24.012C51.6237 24.084 51.3957 24.12 51.1317 24.12C50.9397 24.12 50.7757 24.104 50.6397 24.072C50.5117 24.04 50.4037 23.992 50.3157 23.928C50.2357 23.864 50.1677 23.78 50.1117 23.676C50.0637 23.572 50.0197 23.452 49.9797 23.316L49.7637 22.488H47.5917C47.5277 22.728 47.4637 22.976 47.3997 23.232C47.3357 23.488 47.2717 23.736 47.2077 23.976C47.0957 24.016 46.9757 24.048 46.8477 24.072C46.7277 24.104 46.5797 24.12 46.4037 24.12C45.9957 24.12 45.6917 24.052 45.4917 23.916C45.2997 23.772 45.2037 23.576 45.2037 23.328C45.2037 23.216 45.2197 23.104 45.2517 22.992C45.2837 22.88 45.3197 22.748 45.3597 22.596C45.4157 22.38 45.4917 22.112 45.5877 21.792C45.6917 21.472 45.8037 21.128 45.9237 20.76C46.0437 20.384 46.1717 20 46.3077 19.608C46.4437 19.216 46.5717 18.848 46.6917 18.504C46.8117 18.152 46.9197 17.84 47.0157 17.568C47.1197 17.296 47.1997 17.088 47.2557 16.944ZM48.6957 18.492C48.5837 18.828 48.4557 19.204 48.3117 19.62C48.1757 20.028 48.0517 20.444 47.9397 20.868H49.4277C49.3157 20.436 49.1997 20.016 49.0797 19.608C48.9677 19.192 48.8637 18.82 48.7677 18.492H48.6957ZM59.8192 23.748C59.7072 23.86 59.5432 23.944 59.3272 24C59.1192 24.064 58.8672 24.096 58.5712 24.096C58.2752 24.096 57.9952 24.052 57.7312 23.964C57.4672 23.876 57.2512 23.664 57.0832 23.328L55.8952 20.904C55.7752 20.656 55.6672 20.424 55.5712 20.208C55.4752 19.984 55.3712 19.728 55.2592 19.44L55.1872 19.452C55.2192 19.884 55.2352 20.324 55.2352 20.772C55.2432 21.22 55.2472 21.66 55.2472 22.092V23.952C55.1592 23.976 55.0232 24 54.8392 24.024C54.6632 24.048 54.4872 24.06 54.3112 24.06C54.1352 24.06 53.9792 24.048 53.8432 24.024C53.7072 24 53.5952 23.952 53.5072 23.88C53.4192 23.808 53.3512 23.712 53.3032 23.592C53.2552 23.464 53.2312 23.3 53.2312 23.1V17.1C53.3432 16.94 53.5152 16.82 53.7472 16.74C53.9792 16.66 54.2272 16.62 54.4912 16.62C54.7872 16.62 55.0672 16.668 55.3312 16.764C55.6032 16.852 55.8192 17.06 55.9792 17.388L57.1792 19.812C57.2992 20.06 57.4072 20.296 57.5032 20.52C57.5992 20.736 57.7032 20.988 57.8152 21.276L57.8752 21.264C57.8432 20.832 57.8232 20.4 57.8152 19.968C57.8072 19.536 57.8032 19.104 57.8032 18.672V16.728C57.8912 16.704 58.0232 16.68 58.1992 16.656C58.3832 16.632 58.5632 16.62 58.7392 16.62C59.0912 16.62 59.3592 16.684 59.5432 16.812C59.7272 16.932 59.8192 17.188 59.8192 17.58V23.748ZM61.0397 18.408C60.9837 18.32 60.9317 18.2 60.8837 18.048C60.8357 17.896 60.8117 17.736 60.8117 17.568C60.8117 17.256 60.8797 17.032 61.0157 16.896C61.1597 16.76 61.3437 16.692 61.5677 16.692H66.7997C66.8557 16.78 66.9077 16.9 66.9557 17.052C67.0037 17.204 67.0277 17.364 67.0277 17.532C67.0277 17.844 66.9557 18.068 66.8117 18.204C66.6757 18.34 66.4957 18.408 66.2717 18.408H64.9397V23.952C64.8517 23.976 64.7117 24 64.5197 24.024C64.3357 24.048 64.1517 24.06 63.9677 24.06C63.7837 24.06 63.6197 24.044 63.4757 24.012C63.3397 23.988 63.2237 23.94 63.1277 23.868C63.0317 23.796 62.9597 23.696 62.9117 23.568C62.8637 23.44 62.8397 23.272 62.8397 23.064V18.408H61.0397ZM69.1112 16.944C69.2472 16.864 69.4512 16.788 69.7232 16.716C70.0032 16.644 70.2832 16.608 70.5632 16.608C70.9632 16.608 71.3152 16.668 71.6192 16.788C71.9312 16.9 72.1312 17.08 72.2192 17.328C72.3632 17.744 72.5192 18.228 72.6872 18.78C72.8552 19.332 73.0232 19.904 73.1912 20.496C73.3592 21.08 73.5232 21.66 73.6832 22.236C73.8432 22.804 73.9832 23.308 74.1032 23.748C74.0072 23.86 73.8632 23.948 73.6712 24.012C73.4792 24.084 73.2512 24.12 72.9872 24.12C72.7952 24.12 72.6312 24.104 72.4952 24.072C72.3672 24.04 72.2592 23.992 72.1712 23.928C72.0912 23.864 72.0232 23.78 71.9672 23.676C71.9192 23.572 71.8752 23.452 71.8352 23.316L71.6192 22.488H69.4472C69.3832 22.728 69.3192 22.976 69.2552 23.232C69.1912 23.488 69.1272 23.736 69.0632 23.976C68.9512 24.016 68.8312 24.048 68.7032 24.072C68.5832 24.104 68.4352 24.12 68.2592 24.12C67.8512 24.12 67.5472 24.052 67.3472 23.916C67.1552 23.772 67.0592 23.576 67.0592 23.328C67.0592 23.216 67.0752 23.104 67.1072 22.992C67.1392 22.88 67.1752 22.748 67.2152 22.596C67.2712 22.38 67.3472 22.112 67.4432 21.792C67.5472 21.472 67.6592 21.128 67.7792 20.76C67.8992 20.384 68.0272 20 68.1632 19.608C68.2992 19.216 68.4272 18.848 68.5472 18.504C68.6672 18.152 68.7752 17.84 68.8712 17.568C68.9752 17.296 69.0552 17.088 69.1112 16.944ZM70.5512 18.492C70.4392 18.828 70.3112 19.204 70.1672 19.62C70.0312 20.028 69.9072 20.444 69.7952 20.868H71.2832C71.1712 20.436 71.0552 20.016 70.9352 19.608C70.8232 19.192 70.7192 18.82 70.6232 18.492H70.5512ZM77.1975 21.108C76.8455 20.988 76.5255 20.868 76.2375 20.748C75.9495 20.62 75.7015 20.468 75.4935 20.292C75.2855 20.116 75.1215 19.908 75.0015 19.668C74.8895 19.42 74.8335 19.12 74.8335 18.768C74.8335 18.088 75.0935 17.544 75.6135 17.136C76.1415 16.728 76.8775 16.524 77.8215 16.524C78.1655 16.524 78.4855 16.548 78.7815 16.596C79.0775 16.644 79.3295 16.72 79.5375 16.824C79.7535 16.92 79.9215 17.048 80.0415 17.208C80.1615 17.36 80.2215 17.54 80.2215 17.748C80.2215 17.956 80.1735 18.136 80.0775 18.288C79.9815 18.432 79.8655 18.556 79.7295 18.66C79.5535 18.548 79.3175 18.452 79.0215 18.372C78.7255 18.284 78.4015 18.24 78.0495 18.24C77.6895 18.24 77.4255 18.292 77.2575 18.396C77.0895 18.492 77.0055 18.616 77.0055 18.768C77.0055 18.888 77.0575 18.988 77.1615 19.068C77.2655 19.14 77.4215 19.208 77.6295 19.272L78.2655 19.476C79.0175 19.716 79.5935 20.024 79.9935 20.4C80.4015 20.768 80.6055 21.272 80.6055 21.912C80.6055 22.592 80.3375 23.144 79.8015 23.568C79.2655 23.984 78.4775 24.192 77.4375 24.192C77.0695 24.192 76.7255 24.16 76.4055 24.096C76.0935 24.04 75.8175 23.956 75.5775 23.844C75.3455 23.724 75.1615 23.58 75.0255 23.412C74.8975 23.236 74.8335 23.036 74.8335 22.812C74.8335 22.58 74.9015 22.384 75.0375 22.224C75.1735 22.056 75.3215 21.928 75.4815 21.84C75.7055 22.016 75.9775 22.168 76.2975 22.296C76.6255 22.424 76.9815 22.488 77.3655 22.488C77.7575 22.488 78.0335 22.428 78.1935 22.308C78.3535 22.188 78.4335 22.048 78.4335 21.888C78.4335 21.728 78.3695 21.608 78.2415 21.528C78.1135 21.44 77.9335 21.356 77.7015 21.276L77.1975 21.108ZM86.806 22.212C86.702 22.3 86.566 22.372 86.398 22.428C86.238 22.476 86.05 22.5 85.834 22.5C85.546 22.5 85.306 22.464 85.114 22.392C84.93 22.32 84.81 22.196 84.754 22.02C84.53 21.316 84.346 20.748 84.202 20.316C84.058 19.876 83.946 19.492 83.866 19.164H83.806C83.782 19.636 83.762 20.068 83.746 20.46C83.738 20.844 83.73 21.22 83.722 21.588C83.722 21.956 83.714 22.328 83.698 22.704C83.69 23.08 83.674 23.496 83.65 23.952C83.546 23.992 83.41 24.024 83.242 24.048C83.074 24.08 82.906 24.096 82.738 24.096C82.386 24.096 82.11 24.04 81.91 23.928C81.718 23.816 81.622 23.612 81.622 23.316L81.97 17.196C82.034 17.092 82.174 16.98 82.39 16.86C82.606 16.74 82.91 16.68 83.302 16.68C83.726 16.68 84.058 16.748 84.298 16.884C84.538 17.012 84.714 17.224 84.826 17.52C84.898 17.712 84.974 17.932 85.054 18.18C85.142 18.428 85.226 18.684 85.306 18.948C85.394 19.212 85.478 19.476 85.558 19.74C85.638 19.996 85.71 20.228 85.774 20.436H85.834C86.026 19.764 86.218 19.116 86.41 18.492C86.602 17.86 86.778 17.332 86.938 16.908C87.058 16.844 87.21 16.792 87.394 16.752C87.586 16.704 87.798 16.68 88.03 16.68C88.422 16.68 88.742 16.74 88.99 16.86C89.238 16.972 89.382 17.136 89.422 17.352C89.454 17.512 89.486 17.76 89.518 18.096C89.558 18.424 89.598 18.796 89.638 19.212C89.678 19.628 89.718 20.068 89.758 20.532C89.798 20.996 89.834 21.444 89.866 21.876C89.906 22.3 89.938 22.692 89.962 23.052C89.986 23.404 90.002 23.676 90.01 23.868C89.874 23.948 89.73 24.004 89.578 24.036C89.434 24.076 89.246 24.096 89.014 24.096C88.71 24.096 88.454 24.044 88.246 23.94C88.038 23.836 87.926 23.632 87.91 23.328C87.862 22.456 87.83 21.672 87.814 20.976C87.806 20.28 87.79 19.696 87.766 19.224H87.706C87.626 19.536 87.51 19.928 87.358 20.4C87.206 20.872 87.022 21.476 86.806 22.212ZM92.8885 16.944C93.0245 16.864 93.2285 16.788 93.5005 16.716C93.7805 16.644 94.0605 16.608 94.3405 16.608C94.7405 16.608 95.0925 16.668 95.3965 16.788C95.7085 16.9 95.9085 17.08 95.9965 17.328C96.1405 17.744 96.2965 18.228 96.4645 18.78C96.6325 19.332 96.8005 19.904 96.9685 20.496C97.1365 21.08 97.3005 21.66 97.4605 22.236C97.6205 22.804 97.7605 23.308 97.8805 23.748C97.7845 23.86 97.6405 23.948 97.4485 24.012C97.2565 24.084 97.0285 24.12 96.7645 24.12C96.5725 24.12 96.4085 24.104 96.2725 24.072C96.1445 24.04 96.0365 23.992 95.9485 23.928C95.8685 23.864 95.8005 23.78 95.7445 23.676C95.6965 23.572 95.6525 23.452 95.6125 23.316L95.3965 22.488H93.2245C93.1605 22.728 93.0965 22.976 93.0325 23.232C92.9685 23.488 92.9045 23.736 92.8405 23.976C92.7285 24.016 92.6085 24.048 92.4805 24.072C92.3605 24.104 92.2125 24.12 92.0365 24.12C91.6285 24.12 91.3245 24.052 91.1245 23.916C90.9325 23.772 90.8365 23.576 90.8365 23.328C90.8365 23.216 90.8525 23.104 90.8845 22.992C90.9165 22.88 90.9525 22.748 90.9925 22.596C91.0485 22.38 91.1245 22.112 91.2205 21.792C91.3245 21.472 91.4365 21.128 91.5565 20.76C91.6765 20.384 91.8045 20 91.9405 19.608C92.0765 19.216 92.2045 18.848 92.3245 18.504C92.4445 18.152 92.5525 17.84 92.6485 17.568C92.7525 17.296 92.8325 17.088 92.8885 16.944ZM94.3285 18.492C94.2165 18.828 94.0885 19.204 93.9445 19.62C93.8085 20.028 93.6845 20.444 93.5725 20.868H95.0605C94.9485 20.436 94.8325 20.016 94.7125 19.608C94.6005 19.192 94.4965 18.82 94.4005 18.492H94.3285Z" fill="white"/>
<path fill-rule="evenodd" clip-rule="evenodd" d="M26 26C29.866 26 33 22.866 33 19C33 15.134 29.866 12 26 12C22.134 12 19 15.134 19 19C19 22.866 22.134 26 26 26ZM23.9219 19.0721C24.5259 19.0721 25.0156 18.5924 25.0156 18.0006H24.3394C23.8188 18.0006 23.3945 17.588 23.3757 17.072C23.0484 17.2572 22.8281 17.6037 22.8281 18.0006C22.8281 18.5924 23.3178 19.0721 23.9219 19.0721ZM26.7656 18.0006C26.7656 18.5924 27.2553 19.0721 27.8594 19.0721C28.4634 19.0721 28.9531 18.5924 28.9531 18.0006C28.9531 17.6037 28.7329 17.2572 28.4056 17.072C28.3868 17.588 27.9625 18.0006 27.4419 18.0006H26.7656Z" fill="white"/>
</g>
<defs>
<filter id="filter0_d_8_1190" x="-5" y="-5" width="130" height="50" filterUnits="userSpaceOnUse" color-interpolation-filters="sRGB">
<feFlood flood-opacity="0" result="BackgroundImageFix"/>
<feColorMatrix in="SourceAlpha" type="matrix" values="0 0 0 0 0 0 0 0 0 0 0 0 0 0 0 0 0 0 127 0" result="hardAlpha"/>
<feOffset/>
<feGaussianBlur stdDeviation="5"/>
<feColorMatrix type="matrix" values="0 0 0 0 0.411765 0 0 0 0 0.439216 0 0 0 0 0.772549 0 0 0 0.7 0"/>
<feBlend mode="normal" in2="BackgroundImageFix" result="effect1_dropShadow_8_1190"/>
<feBlend mode="normal" in="SourceGraphic" in2="effect1_dropShadow_8_1190" result="shape"/>
</filter>
<clipPath id="clip0_8_1190">
<rect width="110" height="30" fill="white" transform="translate(5 5)"/>
</clipPath>
</defs>
</svg>
