<svg width="120" height="40" viewBox="0 0 120 40" fill="none" xmlns="http://www.w3.org/2000/svg">
<g clip-path="url(#clip0_8_1200)">
<g filter="url(#filter0_d_8_1200)">
<rect x="5" y="5" width="110" height="30" rx="15" fill="#5DBE62"/>
</g>
<path d="M55.8758 22.812C55.8758 23.06 55.8318 23.244 55.7438 23.364C55.6558 23.484 55.5158 23.6 55.3238 23.712C55.2118 23.776 55.0718 23.84 54.9038 23.904C54.7358 23.96 54.5518 24.008 54.3518 24.048C54.1518 24.096 53.9398 24.132 53.7158 24.156C53.4998 24.18 53.2838 24.192 53.0678 24.192C52.4918 24.192 51.9518 24.116 51.4478 23.964C50.9438 23.804 50.5038 23.568 50.1278 23.256C49.7598 22.936 49.4678 22.54 49.2518 22.068C49.0358 21.596 48.9278 21.048 48.9278 20.424C48.9278 19.768 49.0438 19.196 49.2758 18.708C49.5158 18.22 49.8278 17.816 50.2118 17.496C50.6038 17.168 51.0478 16.924 51.5438 16.764C52.0478 16.604 52.5638 16.524 53.0918 16.524C53.8518 16.524 54.4518 16.648 54.8918 16.896C55.3398 17.136 55.5638 17.452 55.5638 17.844C55.5638 18.052 55.5118 18.232 55.4078 18.384C55.3038 18.536 55.1838 18.656 55.0478 18.744C54.8478 18.624 54.5958 18.508 54.2918 18.396C53.9958 18.276 53.6598 18.216 53.2838 18.216C52.6118 18.216 52.0758 18.408 51.6758 18.792C51.2838 19.176 51.0878 19.708 51.0878 20.388C51.0878 20.756 51.1398 21.076 51.2438 21.348C51.3558 21.612 51.5038 21.832 51.6878 22.008C51.8718 22.176 52.0838 22.304 52.3238 22.392C52.5638 22.472 52.8198 22.512 53.0918 22.512C53.2678 22.512 53.4238 22.496 53.5598 22.464C53.6958 22.432 53.7998 22.396 53.8718 22.356V21.228H52.5878C52.5398 21.14 52.4918 21.024 52.4438 20.88C52.4038 20.736 52.3838 20.584 52.3838 20.424C52.3838 20.136 52.4478 19.928 52.5758 19.8C52.7118 19.672 52.8838 19.608 53.0918 19.608H55.1198C55.3598 19.608 55.5438 19.676 55.6718 19.812C55.8078 19.94 55.8758 20.124 55.8758 20.364V22.812ZM59.3446 21.648V23.952C59.2566 23.976 59.1166 24 58.9246 24.024C58.7406 24.048 58.5566 24.06 58.3726 24.06C58.1886 24.06 58.0246 24.044 57.8806 24.012C57.7446 23.988 57.6286 23.94 57.5326 23.868C57.4446 23.796 57.3766 23.696 57.3286 23.568C57.2806 23.44 57.2566 23.272 57.2566 23.064V17.412C57.2566 17.244 57.3006 17.116 57.3886 17.028C57.4846 16.932 57.6126 16.856 57.7726 16.8C58.0446 16.704 58.3606 16.636 58.7206 16.596C59.0806 16.548 59.4646 16.524 59.8726 16.524C60.9766 16.524 61.8086 16.756 62.3686 17.22C62.9286 17.684 63.2086 18.312 63.2086 19.104C63.2086 19.6 63.0806 20.024 62.8246 20.376C62.5686 20.728 62.2646 21 61.9126 21.192C62.2006 21.584 62.4846 21.952 62.7646 22.296C63.0446 22.64 63.2646 22.952 63.4246 23.232C63.3446 23.512 63.1966 23.728 62.9806 23.88C62.7726 24.024 62.5366 24.096 62.2726 24.096C62.0966 24.096 61.9446 24.076 61.8166 24.036C61.6886 23.996 61.5766 23.94 61.4806 23.868C61.3846 23.796 61.2966 23.708 61.2166 23.604C61.1366 23.5 61.0606 23.388 60.9886 23.268L59.9806 21.648H59.3446ZM60.1006 20.052C60.4046 20.052 60.6446 19.976 60.8206 19.824C60.9966 19.664 61.0846 19.432 61.0846 19.128C61.0846 18.824 60.9846 18.596 60.7846 18.444C60.5926 18.284 60.2846 18.204 59.8606 18.204C59.7406 18.204 59.6446 18.208 59.5726 18.216C59.5006 18.224 59.4206 18.236 59.3326 18.252V20.052H60.1006ZM66.2108 16.944C66.3468 16.864 66.5508 16.788 66.8228 16.716C67.1028 16.644 67.3828 16.608 67.6628 16.608C68.0628 16.608 68.4148 16.668 68.7188 16.788C69.0308 16.9 69.2308 17.08 69.3188 17.328C69.4628 17.744 69.6188 18.228 69.7868 18.78C69.9548 19.332 70.1228 19.904 70.2908 20.496C70.4588 21.08 70.6228 21.66 70.7828 22.236C70.9428 22.804 71.0828 23.308 71.2028 23.748C71.1068 23.86 70.9628 23.948 70.7708 24.012C70.5788 24.084 70.3508 24.12 70.0868 24.12C69.8948 24.12 69.7308 24.104 69.5948 24.072C69.4668 24.04 69.3588 23.992 69.2708 23.928C69.1908 23.864 69.1228 23.78 69.0668 23.676C69.0188 23.572 68.9748 23.452 68.9348 23.316L68.7188 22.488H66.5468C66.4828 22.728 66.4188 22.976 66.3548 23.232C66.2908 23.488 66.2268 23.736 66.1628 23.976C66.0508 24.016 65.9308 24.048 65.8028 24.072C65.6828 24.104 65.5348 24.12 65.3588 24.12C64.9508 24.12 64.6468 24.052 64.4468 23.916C64.2548 23.772 64.1588 23.576 64.1588 23.328C64.1588 23.216 64.1748 23.104 64.2068 22.992C64.2388 22.88 64.2748 22.748 64.3148 22.596C64.3708 22.38 64.4468 22.112 64.5428 21.792C64.6468 21.472 64.7588 21.128 64.8788 20.76C64.9988 20.384 65.1268 20 65.2628 19.608C65.3988 19.216 65.5268 18.848 65.6468 18.504C65.7668 18.152 65.8748 17.84 65.9708 17.568C66.0748 17.296 66.1548 17.088 66.2108 16.944ZM67.6508 18.492C67.5388 18.828 67.4108 19.204 67.2668 19.62C67.1308 20.028 67.0068 20.444 66.8948 20.868H68.3828C68.2708 20.436 68.1548 20.016 68.0348 19.608C67.9228 19.192 67.8188 18.82 67.7228 18.492H67.6508ZM77.2143 22.212C77.1103 22.3 76.9743 22.372 76.8063 22.428C76.6463 22.476 76.4583 22.5 76.2423 22.5C75.9543 22.5 75.7143 22.464 75.5223 22.392C75.3383 22.32 75.2183 22.196 75.1623 22.02C74.9383 21.316 74.7543 20.748 74.6103 20.316C74.4663 19.876 74.3543 19.492 74.2743 19.164H74.2143C74.1903 19.636 74.1703 20.068 74.1543 20.46C74.1463 20.844 74.1383 21.22 74.1303 21.588C74.1303 21.956 74.1223 22.328 74.1063 22.704C74.0983 23.08 74.0823 23.496 74.0583 23.952C73.9543 23.992 73.8183 24.024 73.6503 24.048C73.4823 24.08 73.3143 24.096 73.1463 24.096C72.7943 24.096 72.5183 24.04 72.3183 23.928C72.1263 23.816 72.0303 23.612 72.0303 23.316L72.3783 17.196C72.4423 17.092 72.5823 16.98 72.7983 16.86C73.0143 16.74 73.3183 16.68 73.7103 16.68C74.1343 16.68 74.4663 16.748 74.7063 16.884C74.9463 17.012 75.1223 17.224 75.2343 17.52C75.3063 17.712 75.3823 17.932 75.4623 18.18C75.5503 18.428 75.6343 18.684 75.7143 18.948C75.8023 19.212 75.8863 19.476 75.9663 19.74C76.0463 19.996 76.1183 20.228 76.1823 20.436H76.2423C76.4343 19.764 76.6263 19.116 76.8183 18.492C77.0103 17.86 77.1863 17.332 77.3463 16.908C77.4663 16.844 77.6183 16.792 77.8023 16.752C77.9943 16.704 78.2063 16.68 78.4383 16.68C78.8303 16.68 79.1503 16.74 79.3983 16.86C79.6463 16.972 79.7903 17.136 79.8303 17.352C79.8623 17.512 79.8943 17.76 79.9263 18.096C79.9663 18.424 80.0063 18.796 80.0463 19.212C80.0863 19.628 80.1263 20.068 80.1663 20.532C80.2063 20.996 80.2423 21.444 80.2743 21.876C80.3143 22.3 80.3463 22.692 80.3703 23.052C80.3943 23.404 80.4103 23.676 80.4183 23.868C80.2823 23.948 80.1383 24.004 79.9863 24.036C79.8423 24.076 79.6543 24.096 79.4223 24.096C79.1183 24.096 78.8623 24.044 78.6543 23.94C78.4463 23.836 78.3343 23.632 78.3183 23.328C78.2703 22.456 78.2383 21.672 78.2223 20.976C78.2143 20.28 78.1983 19.696 78.1743 19.224H78.1143C78.0343 19.536 77.9183 19.928 77.7663 20.4C77.6143 20.872 77.4303 21.476 77.2143 22.212ZM83.2968 16.944C83.4328 16.864 83.6368 16.788 83.9088 16.716C84.1888 16.644 84.4688 16.608 84.7488 16.608C85.1488 16.608 85.5008 16.668 85.8048 16.788C86.1168 16.9 86.3168 17.08 86.4048 17.328C86.5488 17.744 86.7048 18.228 86.8728 18.78C87.0408 19.332 87.2088 19.904 87.3768 20.496C87.5448 21.08 87.7088 21.66 87.8688 22.236C88.0288 22.804 88.1688 23.308 88.2888 23.748C88.1928 23.86 88.0488 23.948 87.8568 24.012C87.6648 24.084 87.4368 24.12 87.1728 24.12C86.9808 24.12 86.8168 24.104 86.6808 24.072C86.5528 24.04 86.4448 23.992 86.3568 23.928C86.2768 23.864 86.2088 23.78 86.1528 23.676C86.1048 23.572 86.0608 23.452 86.0208 23.316L85.8048 22.488H83.6328C83.5688 22.728 83.5048 22.976 83.4408 23.232C83.3768 23.488 83.3128 23.736 83.2488 23.976C83.1368 24.016 83.0168 24.048 82.8888 24.072C82.7688 24.104 82.6208 24.12 82.4448 24.12C82.0368 24.12 81.7328 24.052 81.5328 23.916C81.3408 23.772 81.2448 23.576 81.2448 23.328C81.2448 23.216 81.2608 23.104 81.2928 22.992C81.3248 22.88 81.3608 22.748 81.4008 22.596C81.4568 22.38 81.5328 22.112 81.6288 21.792C81.7328 21.472 81.8448 21.128 81.9648 20.76C82.0848 20.384 82.2128 20 82.3488 19.608C82.4848 19.216 82.6127 18.848 82.7327 18.504C82.8528 18.152 82.9608 17.84 83.0568 17.568C83.1608 17.296 83.2408 17.088 83.2968 16.944ZM84.7368 18.492C84.6248 18.828 84.4968 19.204 84.3528 19.62C84.2168 20.028 84.0928 20.444 83.9808 20.868H85.4688C85.3568 20.436 85.2408 20.016 85.1208 19.608C85.0088 19.192 84.9048 18.82 84.8088 18.492H84.7368Z" fill="white"/>
<path fill-rule="evenodd" clip-rule="evenodd" d="M24.1959 25.63C26.6639 27.1964 30.3575 26.5614 32.9594 23.9594C35.8883 21.0305 36.325 16.7184 33.9346 14.3281C31.5443 11.9377 27.2322 12.3744 24.3033 15.3033C21.3743 18.2322 20.9377 22.5443 23.328 24.9347C23.3733 24.9799 23.4192 25.0242 23.4659 25.0674L25.4448 22.6256L25.4448 19.9299L26.1036 21.9569L27.5248 20.3548L27.2474 18.5189L28.0354 19.6308L30.0758 17.3421L28.6413 19.9299L30.0758 20.3548L28.2617 20.7522L26.668 22.3749L29.1757 22.6256L26.1036 23.2888L24.1959 25.63Z" fill="white"/>
</g>
<defs>
<filter id="filter0_d_8_1200" x="-5" y="-5" width="130" height="50" filterUnits="userSpaceOnUse" color-interpolation-filters="sRGB">
<feFlood flood-opacity="0" result="BackgroundImageFix"/>
<feColorMatrix in="SourceAlpha" type="matrix" values="0 0 0 0 0 0 0 0 0 0 0 0 0 0 0 0 0 0 127 0" result="hardAlpha"/>
<feOffset/>
<feGaussianBlur stdDeviation="5"/>
<feColorMatrix type="matrix" values="0 0 0 0 0.364706 0 0 0 0 0.745098 0 0 0 0 0.384314 0 0 0 0.7 0"/>
<feBlend mode="normal" in2="BackgroundImageFix" result="effect1_dropShadow_8_1200"/>
<feBlend mode="normal" in="SourceGraphic" in2="effect1_dropShadow_8_1200" result="shape"/>
</filter>
<clipPath id="clip0_8_1200">
<rect width="110" height="30" fill="white" transform="translate(5 5)"/>
</clipPath>
</defs>
</svg>
