<svg width="120" height="40" viewBox="0 0 120 40" fill="none" xmlns="http://www.w3.org/2000/svg">
<g clip-path="url(#clip0_8_1207)">
<g filter="url(#filter0_d_8_1207)">
<rect x="5" y="5" width="110" height="30" rx="15" fill="#D78555"/>
</g>
<path d="M38.194 18.408C38.138 18.32 38.086 18.2 38.038 18.048C37.99 17.896 37.966 17.736 37.966 17.568C37.966 17.256 38.034 17.032 38.17 16.896C38.314 16.76 38.498 16.692 38.722 16.692H43.954C44.01 16.78 44.062 16.9 44.11 17.052C44.158 17.204 44.182 17.364 44.182 17.532C44.182 17.844 44.11 18.068 43.966 18.204C43.83 18.34 43.65 18.408 43.426 18.408H42.094V23.952C42.006 23.976 41.866 24 41.674 24.024C41.49 24.048 41.306 24.06 41.122 24.06C40.938 24.06 40.774 24.044 40.63 24.012C40.494 23.988 40.378 23.94 40.282 23.868C40.186 23.796 40.114 23.696 40.066 23.568C40.018 23.44 39.994 23.272 39.994 23.064V18.408H38.194ZM45.198 17.844C45.198 17.5 45.298 17.228 45.498 17.028C45.698 16.828 45.97 16.728 46.314 16.728H50.274C50.33 16.816 50.378 16.932 50.418 17.076C50.466 17.22 50.49 17.372 50.49 17.532C50.49 17.836 50.422 18.052 50.286 18.18C50.158 18.308 49.986 18.372 49.77 18.372H47.238V19.488H49.938C49.994 19.576 50.042 19.692 50.082 19.836C50.13 19.972 50.154 20.12 50.154 20.28C50.154 20.584 50.09 20.8 49.962 20.928C49.834 21.056 49.662 21.12 49.446 21.12H47.238V22.38H50.322C50.378 22.468 50.426 22.584 50.466 22.728C50.514 22.872 50.538 23.024 50.538 23.184C50.538 23.488 50.47 23.708 50.334 23.844C50.206 23.972 50.034 24.036 49.818 24.036H46.314C45.97 24.036 45.698 23.936 45.498 23.736C45.298 23.536 45.198 23.264 45.198 22.92V17.844ZM53.8602 21.648V23.952C53.7722 23.976 53.6322 24 53.4402 24.024C53.2562 24.048 53.0722 24.06 52.8882 24.06C52.7042 24.06 52.5402 24.044 52.3962 24.012C52.2602 23.988 52.1442 23.94 52.0482 23.868C51.9602 23.796 51.8922 23.696 51.8442 23.568C51.7962 23.44 51.7722 23.272 51.7722 23.064V17.412C51.7722 17.244 51.8162 17.116 51.9042 17.028C52.0002 16.932 52.1282 16.856 52.2882 16.8C52.5602 16.704 52.8762 16.636 53.2362 16.596C53.5962 16.548 53.9802 16.524 54.3882 16.524C55.4922 16.524 56.3242 16.756 56.8842 17.22C57.4442 17.684 57.7242 18.312 57.7242 19.104C57.7242 19.6 57.5962 20.024 57.3402 20.376C57.0842 20.728 56.7802 21 56.4282 21.192C56.7162 21.584 57.0002 21.952 57.2802 22.296C57.5602 22.64 57.7802 22.952 57.9402 23.232C57.8602 23.512 57.7122 23.728 57.4962 23.88C57.2882 24.024 57.0522 24.096 56.7882 24.096C56.6122 24.096 56.4602 24.076 56.3322 24.036C56.2042 23.996 56.0922 23.94 55.9962 23.868C55.9002 23.796 55.8122 23.708 55.7322 23.604C55.6522 23.5 55.5762 23.388 55.5042 23.268L54.4962 21.648H53.8602ZM54.6162 20.052C54.9202 20.052 55.1602 19.976 55.3362 19.824C55.5122 19.664 55.6002 19.432 55.6002 19.128C55.6002 18.824 55.5002 18.596 55.3002 18.444C55.1082 18.284 54.8002 18.204 54.3762 18.204C54.2562 18.204 54.1602 18.208 54.0882 18.216C54.0162 18.224 53.9362 18.236 53.8482 18.252V20.052H54.6162ZM61.1727 21.648V23.952C61.0847 23.976 60.9447 24 60.7527 24.024C60.5687 24.048 60.3847 24.06 60.2007 24.06C60.0167 24.06 59.8527 24.044 59.7087 24.012C59.5727 23.988 59.4567 23.94 59.3607 23.868C59.2727 23.796 59.2047 23.696 59.1567 23.568C59.1087 23.44 59.0847 23.272 59.0847 23.064V17.412C59.0847 17.244 59.1287 17.116 59.2167 17.028C59.3127 16.932 59.4407 16.856 59.6007 16.8C59.8727 16.704 60.1887 16.636 60.5487 16.596C60.9087 16.548 61.2927 16.524 61.7007 16.524C62.8047 16.524 63.6367 16.756 64.1967 17.22C64.7567 17.684 65.0367 18.312 65.0367 19.104C65.0367 19.6 64.9087 20.024 64.6527 20.376C64.3967 20.728 64.0927 21 63.7407 21.192C64.0287 21.584 64.3127 21.952 64.5927 22.296C64.8727 22.64 65.0927 22.952 65.2527 23.232C65.1727 23.512 65.0247 23.728 64.8087 23.88C64.6007 24.024 64.3647 24.096 64.1007 24.096C63.9247 24.096 63.7727 24.076 63.6447 24.036C63.5167 23.996 63.4047 23.94 63.3087 23.868C63.2127 23.796 63.1247 23.708 63.0447 23.604C62.9647 23.5 62.8887 23.388 62.8167 23.268L61.8087 21.648H61.1727ZM61.9287 20.052C62.2327 20.052 62.4727 19.976 62.6487 19.824C62.8247 19.664 62.9127 19.432 62.9127 19.128C62.9127 18.824 62.8127 18.596 62.6127 18.444C62.4207 18.284 62.1127 18.204 61.6887 18.204C61.5687 18.204 61.4727 18.208 61.4007 18.216C61.3287 18.224 61.2487 18.236 61.1607 18.252V20.052H61.9287ZM66.3972 17.844C66.3972 17.5 66.4972 17.228 66.6972 17.028C66.8972 16.828 67.1692 16.728 67.5132 16.728H71.4732C71.5292 16.816 71.5772 16.932 71.6172 17.076C71.6652 17.22 71.6892 17.372 71.6892 17.532C71.6892 17.836 71.6212 18.052 71.4852 18.18C71.3572 18.308 71.1852 18.372 70.9692 18.372H68.4372V19.488H71.1372C71.1932 19.576 71.2412 19.692 71.2812 19.836C71.3292 19.972 71.3532 20.12 71.3532 20.28C71.3532 20.584 71.2892 20.8 71.1612 20.928C71.0332 21.056 70.8612 21.12 70.6452 21.12H68.4372V22.38H71.5212C71.5772 22.468 71.6252 22.584 71.6652 22.728C71.7132 22.872 71.7372 23.024 71.7372 23.184C71.7372 23.488 71.6692 23.708 71.5332 23.844C71.4052 23.972 71.2332 24.036 71.0172 24.036H67.5132C67.1692 24.036 66.8972 23.936 66.6972 23.736C66.4972 23.536 66.3972 23.264 66.3972 22.92V17.844ZM75.0823 21.108C74.7303 20.988 74.4103 20.868 74.1223 20.748C73.8343 20.62 73.5863 20.468 73.3783 20.292C73.1703 20.116 73.0063 19.908 72.8863 19.668C72.7743 19.42 72.7183 19.12 72.7183 18.768C72.7183 18.088 72.9783 17.544 73.4983 17.136C74.0263 16.728 74.7623 16.524 75.7063 16.524C76.0503 16.524 76.3703 16.548 76.6663 16.596C76.9623 16.644 77.2143 16.72 77.4223 16.824C77.6383 16.92 77.8063 17.048 77.9263 17.208C78.0463 17.36 78.1063 17.54 78.1063 17.748C78.1063 17.956 78.0583 18.136 77.9623 18.288C77.8663 18.432 77.7503 18.556 77.6143 18.66C77.4383 18.548 77.2023 18.452 76.9063 18.372C76.6103 18.284 76.2863 18.24 75.9343 18.24C75.5743 18.24 75.3103 18.292 75.1423 18.396C74.9743 18.492 74.8903 18.616 74.8903 18.768C74.8903 18.888 74.9423 18.988 75.0463 19.068C75.1503 19.14 75.3063 19.208 75.5143 19.272L76.1503 19.476C76.9023 19.716 77.4783 20.024 77.8783 20.4C78.2863 20.768 78.4903 21.272 78.4903 21.912C78.4903 22.592 78.2223 23.144 77.6863 23.568C77.1503 23.984 76.3623 24.192 75.3223 24.192C74.9543 24.192 74.6103 24.16 74.2903 24.096C73.9783 24.04 73.7023 23.956 73.4623 23.844C73.2303 23.724 73.0463 23.58 72.9103 23.412C72.7823 23.236 72.7183 23.036 72.7183 22.812C72.7183 22.58 72.7863 22.384 72.9223 22.224C73.0583 22.056 73.2063 21.928 73.3663 21.84C73.5903 22.016 73.8623 22.168 74.1823 22.296C74.5103 22.424 74.8663 22.488 75.2503 22.488C75.6423 22.488 75.9183 22.428 76.0783 22.308C76.2383 22.188 76.3183 22.048 76.3183 21.888C76.3183 21.728 76.2543 21.608 76.1263 21.528C75.9983 21.44 75.8183 21.356 75.5863 21.276L75.0823 21.108ZM79.1393 18.408C79.0833 18.32 79.0313 18.2 78.9833 18.048C78.9353 17.896 78.9113 17.736 78.9113 17.568C78.9113 17.256 78.9793 17.032 79.1153 16.896C79.2593 16.76 79.4433 16.692 79.6673 16.692H84.8993C84.9553 16.78 85.0073 16.9 85.0553 17.052C85.1033 17.204 85.1273 17.364 85.1273 17.532C85.1273 17.844 85.0553 18.068 84.9113 18.204C84.7753 18.34 84.5953 18.408 84.3713 18.408H83.0393V23.952C82.9513 23.976 82.8113 24 82.6193 24.024C82.4353 24.048 82.2513 24.06 82.0673 24.06C81.8833 24.06 81.7193 24.044 81.5753 24.012C81.4393 23.988 81.3233 23.94 81.2273 23.868C81.1313 23.796 81.0593 23.696 81.0113 23.568C80.9633 23.44 80.9393 23.272 80.9393 23.064V18.408H79.1393ZM88.2313 21.648V23.952C88.1433 23.976 88.0033 24 87.8113 24.024C87.6273 24.048 87.4433 24.06 87.2593 24.06C87.0753 24.06 86.9113 24.044 86.7673 24.012C86.6313 23.988 86.5153 23.94 86.4193 23.868C86.3313 23.796 86.2633 23.696 86.2153 23.568C86.1673 23.44 86.1433 23.272 86.1433 23.064V17.412C86.1433 17.244 86.1873 17.116 86.2753 17.028C86.3713 16.932 86.4993 16.856 86.6593 16.8C86.9313 16.704 87.2473 16.636 87.6073 16.596C87.9673 16.548 88.3513 16.524 88.7593 16.524C89.8633 16.524 90.6953 16.756 91.2553 17.22C91.8153 17.684 92.0953 18.312 92.0953 19.104C92.0953 19.6 91.9673 20.024 91.7113 20.376C91.4553 20.728 91.1513 21 90.7993 21.192C91.0873 21.584 91.3713 21.952 91.6513 22.296C91.9313 22.64 92.1513 22.952 92.3113 23.232C92.2313 23.512 92.0833 23.728 91.8673 23.88C91.6593 24.024 91.4233 24.096 91.1593 24.096C90.9833 24.096 90.8313 24.076 90.7033 24.036C90.5753 23.996 90.4633 23.94 90.3673 23.868C90.2713 23.796 90.1833 23.708 90.1033 23.604C90.0233 23.5 89.9473 23.388 89.8753 23.268L88.8673 21.648H88.2313ZM88.9873 20.052C89.2913 20.052 89.5313 19.976 89.7073 19.824C89.8833 19.664 89.9713 19.432 89.9713 19.128C89.9713 18.824 89.8713 18.596 89.6713 18.444C89.4793 18.284 89.1713 18.204 88.7473 18.204C88.6273 18.204 88.5313 18.208 88.4593 18.216C88.3873 18.224 88.3073 18.236 88.2193 18.252V20.052H88.9873ZM93.4558 17.844C93.4558 17.5 93.5558 17.228 93.7558 17.028C93.9558 16.828 94.2278 16.728 94.5718 16.728H98.5318C98.5878 16.816 98.6358 16.932 98.6758 17.076C98.7238 17.22 98.7478 17.372 98.7478 17.532C98.7478 17.836 98.6798 18.052 98.5438 18.18C98.4158 18.308 98.2438 18.372 98.0278 18.372H95.4958V19.488H98.1958C98.2518 19.576 98.2998 19.692 98.3398 19.836C98.3878 19.972 98.4118 20.12 98.4118 20.28C98.4118 20.584 98.3478 20.8 98.2198 20.928C98.0918 21.056 97.9198 21.12 97.7038 21.12H95.4958V22.38H98.5798C98.6358 22.468 98.6838 22.584 98.7238 22.728C98.7718 22.872 98.7958 23.024 98.7958 23.184C98.7958 23.488 98.7278 23.708 98.5918 23.844C98.4638 23.972 98.2918 24.036 98.0758 24.036H94.5718C94.2278 24.036 93.9558 23.936 93.7558 23.736C93.5558 23.536 93.4558 23.264 93.4558 22.92V17.844Z" fill="white"/>
<path fill-rule="evenodd" clip-rule="evenodd" d="M22.3683 24.9572C22.3074 24.9572 22.2648 24.8969 22.2851 24.8395L26.0738 14.134C26.1022 14.0537 26.1782 14 26.2634 14H30.122C30.2075 14 30.2837 14.0541 30.3119 14.1349L33.9919 24.6898C34.0375 24.8206 33.9404 24.9572 33.802 24.9572H22.3683ZM19.1978 25C19.0574 25 18.9602 24.8598 19.0094 24.7283L21.7477 17.4177C21.7772 17.3392 21.8522 17.2871 21.9361 17.2871H24.0289C24.1683 17.2871 24.2655 17.4256 24.218 17.5567L21.5701 24.8674C21.5412 24.947 21.4656 25 21.381 25H19.1978Z" fill="white"/>
</g>
<defs>
<filter id="filter0_d_8_1207" x="-5" y="-5" width="130" height="50" filterUnits="userSpaceOnUse" color-interpolation-filters="sRGB">
<feFlood flood-opacity="0" result="BackgroundImageFix"/>
<feColorMatrix in="SourceAlpha" type="matrix" values="0 0 0 0 0 0 0 0 0 0 0 0 0 0 0 0 0 0 127 0" result="hardAlpha"/>
<feOffset/>
<feGaussianBlur stdDeviation="5"/>
<feColorMatrix type="matrix" values="0 0 0 0 0.843137 0 0 0 0 0.521569 0 0 0 0 0.333333 0 0 0 0.7 0"/>
<feBlend mode="normal" in2="BackgroundImageFix" result="effect1_dropShadow_8_1207"/>
<feBlend mode="normal" in="SourceGraphic" in2="effect1_dropShadow_8_1207" result="shape"/>
</filter>
<clipPath id="clip0_8_1207">
<rect width="110" height="30" fill="white" transform="translate(5 5)"/>
</clipPath>
</defs>
</svg>
