<svg width="120" height="40" viewBox="0 0 120 40" fill="none" xmlns="http://www.w3.org/2000/svg">
<g clip-path="url(#clip0_8_1214)">
<g filter="url(#filter0_d_8_1214)">
<rect x="5" y="5" width="110" height="30" rx="15" fill="#7ED4C9"/>
</g>
<path d="M61.4832 22.812C61.4832 23.06 61.4392 23.244 61.3512 23.364C61.2632 23.484 61.1232 23.6 60.9312 23.712C60.8192 23.776 60.6792 23.84 60.5112 23.904C60.3432 23.96 60.1592 24.008 59.9592 24.048C59.7592 24.096 59.5472 24.132 59.3232 24.156C59.1072 24.18 58.8912 24.192 58.6752 24.192C58.0992 24.192 57.5592 24.116 57.0552 23.964C56.5512 23.804 56.1112 23.568 55.7352 23.256C55.3672 22.936 55.0752 22.54 54.8592 22.068C54.6432 21.596 54.5352 21.048 54.5352 20.424C54.5352 19.768 54.6512 19.196 54.8832 18.708C55.1232 18.22 55.4352 17.816 55.8192 17.496C56.2112 17.168 56.6552 16.924 57.1512 16.764C57.6552 16.604 58.1712 16.524 58.6992 16.524C59.4592 16.524 60.0592 16.648 60.4992 16.896C60.9472 17.136 61.1712 17.452 61.1712 17.844C61.1712 18.052 61.1192 18.232 61.0152 18.384C60.9112 18.536 60.7912 18.656 60.6552 18.744C60.4552 18.624 60.2032 18.508 59.8992 18.396C59.6032 18.276 59.2672 18.216 58.8912 18.216C58.2192 18.216 57.6832 18.408 57.2832 18.792C56.8912 19.176 56.6952 19.708 56.6952 20.388C56.6952 20.756 56.7472 21.076 56.8512 21.348C56.9632 21.612 57.1112 21.832 57.2952 22.008C57.4792 22.176 57.6912 22.304 57.9312 22.392C58.1712 22.472 58.4272 22.512 58.6992 22.512C58.8752 22.512 59.0312 22.496 59.1672 22.464C59.3032 22.432 59.4072 22.396 59.4792 22.356V21.228H58.1952C58.1472 21.14 58.0992 21.024 58.0512 20.88C58.0112 20.736 57.9912 20.584 57.9912 20.424C57.9912 20.136 58.0552 19.928 58.1832 19.8C58.3192 19.672 58.4912 19.608 58.6992 19.608H60.7272C60.9672 19.608 61.1512 19.676 61.2792 19.812C61.4152 19.94 61.4832 20.124 61.4832 20.364V22.812ZM62.864 17.844C62.864 17.5 62.964 17.228 63.164 17.028C63.364 16.828 63.636 16.728 63.98 16.728H67.94C67.996 16.816 68.044 16.932 68.084 17.076C68.132 17.22 68.156 17.372 68.156 17.532C68.156 17.836 68.088 18.052 67.952 18.18C67.824 18.308 67.652 18.372 67.436 18.372H64.904V19.488H67.604C67.66 19.576 67.708 19.692 67.748 19.836C67.796 19.972 67.82 20.12 67.82 20.28C67.82 20.584 67.756 20.8 67.628 20.928C67.5 21.056 67.328 21.12 67.112 21.12H64.904V22.38H67.988C68.044 22.468 68.092 22.584 68.132 22.728C68.18 22.872 68.204 23.024 68.204 23.184C68.204 23.488 68.136 23.708 68 23.844C67.872 23.972 67.7 24.036 67.484 24.036H63.98C63.636 24.036 63.364 23.936 63.164 23.736C62.964 23.536 62.864 23.264 62.864 22.92V17.844ZM70.5542 24.036C70.2102 24.036 69.9382 23.936 69.7382 23.736C69.5382 23.536 69.4382 23.264 69.4382 22.92V16.716C69.5262 16.7 69.6662 16.68 69.8582 16.656C70.0502 16.624 70.2342 16.608 70.4102 16.608C70.5942 16.608 70.7542 16.624 70.8902 16.656C71.0342 16.68 71.1542 16.728 71.2502 16.8C71.3462 16.872 71.4182 16.972 71.4662 17.1C71.5142 17.228 71.5382 17.396 71.5382 17.604V22.344H74.2862C74.3422 22.432 74.3942 22.552 74.4422 22.704C74.4902 22.848 74.5142 23 74.5142 23.16C74.5142 23.48 74.4462 23.708 74.3102 23.844C74.1742 23.972 73.9942 24.036 73.7702 24.036H70.5542ZM74.8673 20.352C74.8673 19.728 74.9633 19.176 75.1553 18.696C75.3553 18.216 75.6233 17.816 75.9593 17.496C76.3033 17.168 76.7033 16.92 77.1593 16.752C77.6233 16.584 78.1233 16.5 78.6593 16.5C79.1953 16.5 79.6913 16.584 80.1473 16.752C80.6113 16.92 81.0153 17.168 81.3593 17.496C81.7033 17.816 81.9713 18.216 82.1633 18.696C82.3633 19.176 82.4633 19.728 82.4633 20.352C82.4633 20.976 82.3673 21.532 82.1753 22.02C81.9833 22.5 81.7153 22.904 81.3713 23.232C81.0353 23.552 80.6353 23.796 80.1713 23.964C79.7073 24.132 79.2033 24.216 78.6593 24.216C78.1153 24.216 77.6113 24.132 77.1473 23.964C76.6833 23.788 76.2833 23.536 75.9473 23.208C75.6113 22.88 75.3473 22.476 75.1553 21.996C74.9633 21.516 74.8673 20.968 74.8673 20.352ZM77.0273 20.352C77.0273 21.08 77.1753 21.624 77.4713 21.984C77.7673 22.344 78.1633 22.524 78.6593 22.524C79.1633 22.524 79.5633 22.344 79.8593 21.984C80.1553 21.624 80.3033 21.08 80.3033 20.352C80.3033 19.632 80.1553 19.092 79.8593 18.732C79.5713 18.372 79.1753 18.192 78.6713 18.192C78.1753 18.192 77.7753 18.372 77.4713 18.732C77.1753 19.084 77.0273 19.624 77.0273 20.352Z" fill="white"/>
<path fill-rule="evenodd" clip-rule="evenodd" d="M31.6529 12.3356L31.7051 16.9133L27.7123 18.8299L27.6631 14.5078L31.6529 12.3356Z" fill="white"/>
<path fill-rule="evenodd" clip-rule="evenodd" d="M35.6554 19.5491L31.7029 21.8099L27.7481 19.5456L31.7009 17.4693L35.6554 19.5491Z" fill="white"/>
<path fill-rule="evenodd" clip-rule="evenodd" d="M27.0451 19.5491L23.0925 21.8099L19.1377 19.5456L23.0905 17.4693L27.0451 19.5491Z" fill="white"/>
<path fill-rule="evenodd" clip-rule="evenodd" d="M23.0482 12.3172L27.1506 14.349L27.0457 18.7766L23.1723 16.8583L23.0482 12.3172Z" fill="white"/>
<path fill-rule="evenodd" clip-rule="evenodd" d="M31.7647 26.7116L27.6623 24.6799L27.7671 20.2522L31.6406 22.1705L31.7647 26.7116Z" fill="white"/>
<path fill-rule="evenodd" clip-rule="evenodd" d="M23.1899 26.7528L23.1377 22.1751L27.1304 20.2584L27.1797 24.5806L23.1899 26.7528Z" fill="white"/>
</g>
<defs>
<filter id="filter0_d_8_1214" x="-5" y="-5" width="130" height="50" filterUnits="userSpaceOnUse" color-interpolation-filters="sRGB">
<feFlood flood-opacity="0" result="BackgroundImageFix"/>
<feColorMatrix in="SourceAlpha" type="matrix" values="0 0 0 0 0 0 0 0 0 0 0 0 0 0 0 0 0 0 127 0" result="hardAlpha"/>
<feOffset/>
<feGaussianBlur stdDeviation="5"/>
<feColorMatrix type="matrix" values="0 0 0 0 0.494118 0 0 0 0 0.831373 0 0 0 0 0.788235 0 0 0 0.7 0"/>
<feBlend mode="normal" in2="BackgroundImageFix" result="effect1_dropShadow_8_1214"/>
<feBlend mode="normal" in="SourceGraphic" in2="effect1_dropShadow_8_1214" result="shape"/>
</filter>
<clipPath id="clip0_8_1214">
<rect width="110" height="30" fill="white" transform="translate(5 5)"/>
</clipPath>
</defs>
</svg>
