<svg width="120" height="40" viewBox="0 0 120 40" fill="none" xmlns="http://www.w3.org/2000/svg">
<g clip-path="url(#clip0_8_1225)">
<g filter="url(#filter0_d_8_1225)">
<rect x="5" y="5" width="110" height="30" rx="15" fill="#9A9DA1"/>
</g>
<path d="M52.3368 23.748C52.2248 23.86 52.0608 23.944 51.8448 24C51.6368 24.064 51.3848 24.096 51.0888 24.096C50.7928 24.096 50.5128 24.052 50.2488 23.964C49.9848 23.876 49.7688 23.664 49.6008 23.328L48.4128 20.904C48.2928 20.656 48.1848 20.424 48.0888 20.208C47.9928 19.984 47.8888 19.728 47.7768 19.44L47.7048 19.452C47.7368 19.884 47.7528 20.324 47.7528 20.772C47.7608 21.22 47.7648 21.66 47.7648 22.092V23.952C47.6768 23.976 47.5408 24 47.3568 24.024C47.1808 24.048 47.0048 24.06 46.8288 24.06C46.6528 24.06 46.4968 24.048 46.3608 24.024C46.2248 24 46.1128 23.952 46.0248 23.88C45.9368 23.808 45.8688 23.712 45.8208 23.592C45.7728 23.464 45.7488 23.3 45.7488 23.1V17.1C45.8608 16.94 46.0328 16.82 46.2648 16.74C46.4968 16.66 46.7448 16.62 47.0088 16.62C47.3048 16.62 47.5848 16.668 47.8488 16.764C48.1208 16.852 48.3368 17.06 48.4967 17.388L49.6968 19.812C49.8168 20.06 49.9248 20.296 50.0208 20.52C50.1168 20.736 50.2208 20.988 50.3328 21.276L50.3928 21.264C50.3608 20.832 50.3408 20.4 50.3328 19.968C50.3248 19.536 50.3208 19.104 50.3208 18.672V16.728C50.4088 16.704 50.5408 16.68 50.7168 16.656C50.9008 16.632 51.0808 16.62 51.2568 16.62C51.6088 16.62 51.8768 16.684 52.0608 16.812C52.2448 16.932 52.3368 17.188 52.3368 17.58V23.748ZM53.5333 20.352C53.5333 19.728 53.6293 19.176 53.8213 18.696C54.0213 18.216 54.2893 17.816 54.6253 17.496C54.9693 17.168 55.3693 16.92 55.8253 16.752C56.2893 16.584 56.7893 16.5 57.3253 16.5C57.8613 16.5 58.3573 16.584 58.8133 16.752C59.2773 16.92 59.6813 17.168 60.0253 17.496C60.3693 17.816 60.6373 18.216 60.8293 18.696C61.0293 19.176 61.1293 19.728 61.1293 20.352C61.1293 20.976 61.0333 21.532 60.8413 22.02C60.6493 22.5 60.3813 22.904 60.0373 23.232C59.7013 23.552 59.3013 23.796 58.8373 23.964C58.3733 24.132 57.8693 24.216 57.3253 24.216C56.7813 24.216 56.2773 24.132 55.8133 23.964C55.3493 23.788 54.9493 23.536 54.6133 23.208C54.2773 22.88 54.0133 22.476 53.8213 21.996C53.6293 21.516 53.5333 20.968 53.5333 20.352ZM55.6933 20.352C55.6933 21.08 55.8413 21.624 56.1373 21.984C56.4333 22.344 56.8293 22.524 57.3253 22.524C57.8293 22.524 58.2293 22.344 58.5253 21.984C58.8213 21.624 58.9693 21.08 58.9693 20.352C58.9693 19.632 58.8213 19.092 58.5253 18.732C58.2373 18.372 57.8413 18.192 57.3373 18.192C56.8413 18.192 56.4413 18.372 56.1373 18.732C55.8413 19.084 55.6933 19.624 55.6933 20.352ZM64.4188 21.648V23.952C64.3308 23.976 64.1908 24 63.9988 24.024C63.8148 24.048 63.6308 24.06 63.4468 24.06C63.2628 24.06 63.0988 24.044 62.9548 24.012C62.8188 23.988 62.7028 23.94 62.6068 23.868C62.5188 23.796 62.4508 23.696 62.4028 23.568C62.3548 23.44 62.3308 23.272 62.3308 23.064V17.412C62.3308 17.244 62.3748 17.116 62.4628 17.028C62.5588 16.932 62.6868 16.856 62.8468 16.8C63.1188 16.704 63.4348 16.636 63.7948 16.596C64.1548 16.548 64.5388 16.524 64.9468 16.524C66.0508 16.524 66.8828 16.756 67.4428 17.22C68.0028 17.684 68.2828 18.312 68.2828 19.104C68.2828 19.6 68.1548 20.024 67.8988 20.376C67.6428 20.728 67.3388 21 66.9868 21.192C67.2748 21.584 67.5588 21.952 67.8388 22.296C68.1188 22.64 68.3388 22.952 68.4988 23.232C68.4188 23.512 68.2708 23.728 68.0548 23.88C67.8468 24.024 67.6108 24.096 67.3468 24.096C67.1708 24.096 67.0188 24.076 66.8908 24.036C66.7628 23.996 66.6508 23.94 66.5548 23.868C66.4588 23.796 66.3708 23.708 66.2908 23.604C66.2108 23.5 66.1348 23.388 66.0628 23.268L65.0548 21.648H64.4188ZM65.1748 20.052C65.4788 20.052 65.7188 19.976 65.8948 19.824C66.0708 19.664 66.1588 19.432 66.1588 19.128C66.1588 18.824 66.0588 18.596 65.8588 18.444C65.6668 18.284 65.3588 18.204 64.9348 18.204C64.8148 18.204 64.7188 18.208 64.6468 18.216C64.5748 18.224 64.4948 18.236 64.4068 18.252V20.052H65.1748ZM74.601 22.212C74.497 22.3 74.361 22.372 74.193 22.428C74.033 22.476 73.845 22.5 73.629 22.5C73.341 22.5 73.101 22.464 72.909 22.392C72.725 22.32 72.605 22.196 72.549 22.02C72.325 21.316 72.141 20.748 71.997 20.316C71.853 19.876 71.741 19.492 71.661 19.164H71.601C71.577 19.636 71.557 20.068 71.541 20.46C71.533 20.844 71.525 21.22 71.517 21.588C71.517 21.956 71.509 22.328 71.493 22.704C71.485 23.08 71.469 23.496 71.445 23.952C71.341 23.992 71.205 24.024 71.037 24.048C70.869 24.08 70.701 24.096 70.533 24.096C70.181 24.096 69.905 24.04 69.705 23.928C69.513 23.816 69.417 23.612 69.417 23.316L69.765 17.196C69.829 17.092 69.969 16.98 70.185 16.86C70.401 16.74 70.705 16.68 71.097 16.68C71.521 16.68 71.853 16.748 72.093 16.884C72.333 17.012 72.509 17.224 72.621 17.52C72.693 17.712 72.769 17.932 72.849 18.18C72.937 18.428 73.021 18.684 73.101 18.948C73.189 19.212 73.273 19.476 73.353 19.74C73.433 19.996 73.505 20.228 73.569 20.436H73.629C73.821 19.764 74.013 19.116 74.205 18.492C74.397 17.86 74.573 17.332 74.733 16.908C74.853 16.844 75.005 16.792 75.189 16.752C75.381 16.704 75.593 16.68 75.825 16.68C76.217 16.68 76.537 16.74 76.785 16.86C77.033 16.972 77.177 17.136 77.217 17.352C77.249 17.512 77.281 17.76 77.313 18.096C77.353 18.424 77.393 18.796 77.433 19.212C77.473 19.628 77.513 20.068 77.553 20.532C77.593 20.996 77.629 21.444 77.661 21.876C77.701 22.3 77.733 22.692 77.757 23.052C77.781 23.404 77.797 23.676 77.805 23.868C77.669 23.948 77.525 24.004 77.373 24.036C77.229 24.076 77.041 24.096 76.809 24.096C76.505 24.096 76.249 24.044 76.041 23.94C75.833 23.836 75.721 23.632 75.705 23.328C75.657 22.456 75.625 21.672 75.609 20.976C75.601 20.28 75.585 19.696 75.561 19.224H75.501C75.421 19.536 75.305 19.928 75.153 20.4C75.001 20.872 74.817 21.476 74.601 22.212ZM80.6835 16.944C80.8195 16.864 81.0235 16.788 81.2955 16.716C81.5755 16.644 81.8555 16.608 82.1355 16.608C82.5355 16.608 82.8875 16.668 83.1915 16.788C83.5035 16.9 83.7035 17.08 83.7915 17.328C83.9355 17.744 84.0915 18.228 84.2595 18.78C84.4275 19.332 84.5955 19.904 84.7635 20.496C84.9315 21.08 85.0955 21.66 85.2555 22.236C85.4155 22.804 85.5555 23.308 85.6755 23.748C85.5795 23.86 85.4355 23.948 85.2435 24.012C85.0515 24.084 84.8235 24.12 84.5595 24.12C84.3675 24.12 84.2035 24.104 84.0675 24.072C83.9395 24.04 83.8315 23.992 83.7435 23.928C83.6635 23.864 83.5955 23.78 83.5395 23.676C83.4915 23.572 83.4475 23.452 83.4075 23.316L83.1915 22.488H81.0195C80.9555 22.728 80.8915 22.976 80.8275 23.232C80.7635 23.488 80.6995 23.736 80.6355 23.976C80.5235 24.016 80.4035 24.048 80.2755 24.072C80.1555 24.104 80.0075 24.12 79.8315 24.12C79.4235 24.12 79.1195 24.052 78.9195 23.916C78.7275 23.772 78.6315 23.576 78.6315 23.328C78.6315 23.216 78.6475 23.104 78.6795 22.992C78.7115 22.88 78.7475 22.748 78.7875 22.596C78.8435 22.38 78.9195 22.112 79.0155 21.792C79.1195 21.472 79.2315 21.128 79.3515 20.76C79.4715 20.384 79.5995 20 79.7355 19.608C79.8715 19.216 79.9995 18.848 80.1195 18.504C80.2395 18.152 80.3475 17.84 80.4435 17.568C80.5475 17.296 80.6275 17.088 80.6835 16.944ZM82.1235 18.492C82.0115 18.828 81.8835 19.204 81.7395 19.62C81.6035 20.028 81.4795 20.444 81.3675 20.868H82.8555C82.7435 20.436 82.6275 20.016 82.5075 19.608C82.3955 19.192 82.2915 18.82 82.1955 18.492H82.1235ZM87.7749 24.036C87.4309 24.036 87.1589 23.936 86.9589 23.736C86.7589 23.536 86.6589 23.264 86.6589 22.92V16.716C86.7469 16.7 86.8869 16.68 87.0789 16.656C87.2709 16.624 87.4549 16.608 87.6309 16.608C87.8149 16.608 87.9749 16.624 88.1109 16.656C88.2549 16.68 88.3749 16.728 88.4709 16.8C88.5669 16.872 88.6389 16.972 88.6869 17.1C88.7349 17.228 88.7589 17.396 88.7589 17.604V22.344H91.5069C91.5629 22.432 91.6149 22.552 91.6629 22.704C91.7109 22.848 91.7349 23 91.7349 23.16C91.7349 23.48 91.6669 23.708 91.5309 23.844C91.3949 23.972 91.2149 24.036 90.9909 24.036H87.7749Z" fill="white"/>
<path fill-rule="evenodd" clip-rule="evenodd" d="M26 27C29.866 27 33 23.866 33 20C33 16.134 29.866 13 26 13C22.134 13 19 16.134 19 20C19 23.866 22.134 27 26 27ZM26 24C28.2091 24 30 22.2091 30 20C30 17.7909 28.2091 16 26 16C23.7909 16 22 17.7909 22 20C22 22.2091 23.7909 24 26 24Z" fill="white"/>
</g>
<defs>
<filter id="filter0_d_8_1225" x="-5" y="-5" width="130" height="50" filterUnits="userSpaceOnUse" color-interpolation-filters="sRGB">
<feFlood flood-opacity="0" result="BackgroundImageFix"/>
<feColorMatrix in="SourceAlpha" type="matrix" values="0 0 0 0 0 0 0 0 0 0 0 0 0 0 0 0 0 0 127 0" result="hardAlpha"/>
<feOffset/>
<feGaussianBlur stdDeviation="5"/>
<feColorMatrix type="matrix" values="0 0 0 0 0.603922 0 0 0 0 0.615686 0 0 0 0 0.631373 0 0 0 0.7 0"/>
<feBlend mode="normal" in2="BackgroundImageFix" result="effect1_dropShadow_8_1225"/>
<feBlend mode="normal" in="SourceGraphic" in2="effect1_dropShadow_8_1225" result="shape"/>
</filter>
<clipPath id="clip0_8_1225">
<rect width="110" height="30" fill="white" transform="translate(5 5)"/>
</clipPath>
</defs>
</svg>
