<svg width="120" height="40" viewBox="0 0 120 40" fill="none" xmlns="http://www.w3.org/2000/svg">
<g clip-path="url(#clip0_8_1232)">
<g filter="url(#filter0_d_8_1232)">
<rect x="5" y="5" width="110" height="30" rx="15" fill="#B563CE"/>
</g>
<path d="M50.8958 23.76C50.7838 23.856 50.6078 23.94 50.3678 24.012C50.1358 24.084 49.8798 24.12 49.5998 24.12C49.2638 24.12 48.9758 24.072 48.7358 23.976C48.4958 23.872 48.3318 23.732 48.2438 23.556C48.1558 23.372 48.0478 23.136 47.9198 22.848C47.7918 22.552 47.6558 22.224 47.5118 21.864C47.3758 21.504 47.2318 21.124 47.0798 20.724C46.9358 20.316 46.7958 19.904 46.6598 19.488C46.5238 19.072 46.3958 18.664 46.2758 18.264C46.1558 17.864 46.0518 17.488 45.9638 17.136C46.0758 17.024 46.2358 16.924 46.4438 16.836C46.6598 16.74 46.8878 16.692 47.1278 16.692C47.4238 16.692 47.6638 16.756 47.8478 16.884C48.0398 17.004 48.1798 17.232 48.2678 17.568C48.4838 18.352 48.6998 19.104 48.9158 19.824C49.1398 20.536 49.3718 21.28 49.6118 22.056H49.6838C49.8998 21.304 50.1198 20.484 50.3438 19.596C50.5758 18.708 50.7958 17.824 51.0038 16.944C51.1478 16.872 51.2998 16.812 51.4598 16.764C51.6278 16.716 51.8158 16.692 52.0238 16.692C52.3198 16.692 52.5718 16.76 52.7798 16.896C52.9878 17.024 53.0918 17.24 53.0918 17.544C53.0918 17.72 53.0478 17.976 52.9598 18.312C52.8798 18.648 52.7718 19.028 52.6358 19.452C52.5078 19.868 52.3598 20.304 52.1918 20.76C52.0318 21.216 51.8678 21.648 51.6998 22.056C51.5398 22.456 51.3878 22.812 51.2438 23.124C51.0998 23.428 50.9838 23.64 50.8958 23.76ZM54.1452 17.844C54.1452 17.5 54.2452 17.228 54.4452 17.028C54.6452 16.828 54.9172 16.728 55.2612 16.728H59.2212C59.2772 16.816 59.3252 16.932 59.3652 17.076C59.4132 17.22 59.4372 17.372 59.4372 17.532C59.4372 17.836 59.3692 18.052 59.2332 18.18C59.1052 18.308 58.9332 18.372 58.7172 18.372H56.1852V19.488H58.8852C58.9412 19.576 58.9892 19.692 59.0292 19.836C59.0772 19.972 59.1012 20.12 59.1012 20.28C59.1012 20.584 59.0372 20.8 58.9092 20.928C58.7812 21.056 58.6092 21.12 58.3932 21.12H56.1852V22.38H59.2692C59.3252 22.468 59.3732 22.584 59.4132 22.728C59.4612 22.872 59.4852 23.024 59.4852 23.184C59.4852 23.488 59.4172 23.708 59.2812 23.844C59.1532 23.972 58.9812 24.036 58.7652 24.036H55.2612C54.9172 24.036 54.6452 23.936 54.4452 23.736C54.2452 23.536 54.1452 23.264 54.1452 22.92V17.844ZM67.3075 23.748C67.1955 23.86 67.0315 23.944 66.8155 24C66.6075 24.064 66.3555 24.096 66.0595 24.096C65.7635 24.096 65.4835 24.052 65.2195 23.964C64.9555 23.876 64.7395 23.664 64.5715 23.328L63.3835 20.904C63.2635 20.656 63.1555 20.424 63.0595 20.208C62.9635 19.984 62.8595 19.728 62.7475 19.44L62.6755 19.452C62.7075 19.884 62.7235 20.324 62.7235 20.772C62.7315 21.22 62.7355 21.66 62.7355 22.092V23.952C62.6475 23.976 62.5115 24 62.3275 24.024C62.1515 24.048 61.9755 24.06 61.7995 24.06C61.6235 24.06 61.4675 24.048 61.3315 24.024C61.1955 24 61.0835 23.952 60.9955 23.88C60.9075 23.808 60.8395 23.712 60.7915 23.592C60.7435 23.464 60.7195 23.3 60.7195 23.1V17.1C60.8315 16.94 61.0035 16.82 61.2355 16.74C61.4675 16.66 61.7155 16.62 61.9795 16.62C62.2755 16.62 62.5555 16.668 62.8195 16.764C63.0915 16.852 63.3075 17.06 63.4675 17.388L64.6675 19.812C64.7875 20.06 64.8955 20.296 64.9915 20.52C65.0875 20.736 65.1915 20.988 65.3035 21.276L65.3635 21.264C65.3315 20.832 65.3115 20.4 65.3035 19.968C65.2955 19.536 65.2915 19.104 65.2915 18.672V16.728C65.3795 16.704 65.5115 16.68 65.6875 16.656C65.8715 16.632 66.0515 16.62 66.2275 16.62C66.5795 16.62 66.8475 16.684 67.0315 16.812C67.2155 16.932 67.3075 17.188 67.3075 17.58V23.748ZM68.864 17.844C68.864 17.5 68.964 17.228 69.164 17.028C69.364 16.828 69.636 16.728 69.98 16.728H73.94C73.996 16.816 74.044 16.932 74.084 17.076C74.132 17.22 74.156 17.372 74.156 17.532C74.156 17.836 74.088 18.052 73.952 18.18C73.824 18.308 73.652 18.372 73.436 18.372H70.904V19.488H73.604C73.66 19.576 73.708 19.692 73.748 19.836C73.796 19.972 73.82 20.12 73.82 20.28C73.82 20.584 73.756 20.8 73.628 20.928C73.5 21.056 73.328 21.12 73.112 21.12H70.904V22.38H73.988C74.044 22.468 74.092 22.584 74.132 22.728C74.18 22.872 74.204 23.024 74.204 23.184C74.204 23.488 74.136 23.708 74 23.844C73.872 23.972 73.7 24.036 73.484 24.036H69.98C69.636 24.036 69.364 23.936 69.164 23.736C68.964 23.536 68.864 23.264 68.864 22.92V17.844ZM82.0262 23.748C81.9142 23.86 81.7502 23.944 81.5342 24C81.3262 24.064 81.0742 24.096 80.7782 24.096C80.4822 24.096 80.2022 24.052 79.9382 23.964C79.6742 23.876 79.4582 23.664 79.2902 23.328L78.1022 20.904C77.9822 20.656 77.8742 20.424 77.7782 20.208C77.6822 19.984 77.5782 19.728 77.4662 19.44L77.3942 19.452C77.4262 19.884 77.4422 20.324 77.4422 20.772C77.4502 21.22 77.4542 21.66 77.4542 22.092V23.952C77.3662 23.976 77.2302 24 77.0462 24.024C76.8702 24.048 76.6942 24.06 76.5182 24.06C76.3422 24.06 76.1862 24.048 76.0502 24.024C75.9142 24 75.8022 23.952 75.7142 23.88C75.6262 23.808 75.5582 23.712 75.5102 23.592C75.4622 23.464 75.4382 23.3 75.4382 23.1V17.1C75.5502 16.94 75.7222 16.82 75.9542 16.74C76.1862 16.66 76.4342 16.62 76.6982 16.62C76.9942 16.62 77.2742 16.668 77.5382 16.764C77.8102 16.852 78.0262 17.06 78.1862 17.388L79.3862 19.812C79.5062 20.06 79.6142 20.296 79.7102 20.52C79.8062 20.736 79.9102 20.988 80.0222 21.276L80.0822 21.264C80.0502 20.832 80.0302 20.4 80.0222 19.968C80.0142 19.536 80.0102 19.104 80.0102 18.672V16.728C80.0982 16.704 80.2302 16.68 80.4062 16.656C80.5902 16.632 80.7702 16.62 80.9462 16.62C81.2982 16.62 81.5662 16.684 81.7502 16.812C81.9342 16.932 82.0262 17.188 82.0262 17.58V23.748ZM83.2227 20.352C83.2227 19.728 83.3187 19.176 83.5107 18.696C83.7107 18.216 83.9787 17.816 84.3147 17.496C84.6587 17.168 85.0587 16.92 85.5147 16.752C85.9787 16.584 86.4787 16.5 87.0147 16.5C87.5507 16.5 88.0467 16.584 88.5027 16.752C88.9667 16.92 89.3707 17.168 89.7147 17.496C90.0587 17.816 90.3267 18.216 90.5187 18.696C90.7187 19.176 90.8187 19.728 90.8187 20.352C90.8187 20.976 90.7227 21.532 90.5307 22.02C90.3387 22.5 90.0707 22.904 89.7267 23.232C89.3907 23.552 88.9907 23.796 88.5267 23.964C88.0627 24.132 87.5587 24.216 87.0147 24.216C86.4707 24.216 85.9667 24.132 85.5027 23.964C85.0387 23.788 84.6387 23.536 84.3027 23.208C83.9667 22.88 83.7027 22.476 83.5107 21.996C83.3187 21.516 83.2227 20.968 83.2227 20.352ZM85.3827 20.352C85.3827 21.08 85.5307 21.624 85.8267 21.984C86.1227 22.344 86.5187 22.524 87.0147 22.524C87.5187 22.524 87.9187 22.344 88.2147 21.984C88.5107 21.624 88.6587 21.08 88.6587 20.352C88.6587 19.632 88.5107 19.092 88.2147 18.732C87.9267 18.372 87.5307 18.192 87.0267 18.192C86.5307 18.192 86.1307 18.372 85.8267 18.732C85.5307 19.084 85.3827 19.624 85.3827 20.352Z" fill="white"/>
<path fill-rule="evenodd" clip-rule="evenodd" d="M23.1447 27C23.853 27 24.4742 26.4995 24.8224 25.7477C25.1706 26.4995 25.7917 27 26.5 27C27.1456 27 27.7189 26.5841 28.0789 25.9411C28.439 26.5841 29.0123 27 29.6579 27C30.7479 27 31.6316 25.8145 31.6316 24.3521C31.6316 24.064 31.5973 23.7866 31.5338 23.5268C33.0485 22.3156 34 20.5657 34 18.6196C34 14.9637 30.6421 12 26.5 12C22.3579 12 19 14.9637 19 18.6196C19 20.4955 19.884 22.189 21.3044 23.3936C21.2183 23.6908 21.1711 24.0141 21.1711 24.3521C21.1711 25.8145 22.0547 27 23.1447 27ZM26.4013 22.1117C28.8539 22.1117 30.8421 20.607 30.8421 18.7509C30.8421 16.8948 28.8539 15.3902 26.4013 15.3902C23.9487 15.3902 21.9605 16.8948 21.9605 18.7509C21.9605 20.607 23.9487 22.1117 26.4013 22.1117Z" fill="white"/>
</g>
<defs>
<filter id="filter0_d_8_1232" x="-5" y="-5" width="130" height="50" filterUnits="userSpaceOnUse" color-interpolation-filters="sRGB">
<feFlood flood-opacity="0" result="BackgroundImageFix"/>
<feColorMatrix in="SourceAlpha" type="matrix" values="0 0 0 0 0 0 0 0 0 0 0 0 0 0 0 0 0 0 127 0" result="hardAlpha"/>
<feOffset/>
<feGaussianBlur stdDeviation="5"/>
<feColorMatrix type="matrix" values="0 0 0 0 0.709804 0 0 0 0 0.388235 0 0 0 0 0.807843 0 0 0 0.7 0"/>
<feBlend mode="normal" in2="BackgroundImageFix" result="effect1_dropShadow_8_1232"/>
<feBlend mode="normal" in="SourceGraphic" in2="effect1_dropShadow_8_1232" result="shape"/>
</filter>
<clipPath id="clip0_8_1232">
<rect width="110" height="30" fill="white" transform="translate(5 5)"/>
</clipPath>
</defs>
</svg>
