<svg width="120" height="40" viewBox="0 0 120 40" fill="none" xmlns="http://www.w3.org/2000/svg">
<g clip-path="url(#clip0_8_1243)">
<g filter="url(#filter0_d_8_1243)">
<rect x="5" y="5" width="110" height="30" rx="15" fill="#F87C7A"/>
</g>
<path d="M45.7833 20.1C46.1193 20.1 46.3753 20.024 46.5513 19.872C46.7353 19.712 46.8273 19.472 46.8273 19.152C46.8273 18.848 46.7313 18.616 46.5393 18.456C46.3553 18.288 46.0833 18.204 45.7233 18.204C45.5953 18.204 45.4873 18.208 45.3993 18.216C45.3193 18.216 45.2353 18.224 45.1473 18.24V20.1H45.7833ZM45.1593 23.952C45.0713 23.976 44.9313 24 44.7393 24.024C44.5553 24.048 44.3713 24.06 44.1873 24.06C44.0033 24.06 43.8393 24.044 43.6953 24.012C43.5593 23.988 43.4433 23.94 43.3473 23.868C43.2513 23.796 43.1793 23.696 43.1313 23.568C43.0833 23.44 43.0593 23.272 43.0593 23.064V17.412C43.0593 17.244 43.1033 17.116 43.1913 17.028C43.2873 16.932 43.4153 16.856 43.5753 16.8C43.8473 16.704 44.1553 16.636 44.4993 16.596C44.8513 16.548 45.2033 16.524 45.5553 16.524C46.6593 16.524 47.5033 16.76 48.0873 17.232C48.6713 17.704 48.9633 18.344 48.9633 19.152C48.9633 19.544 48.8993 19.9 48.7713 20.22C48.6513 20.532 48.4673 20.804 48.2193 21.036C47.9793 21.26 47.6713 21.436 47.2953 21.564C46.9273 21.684 46.4993 21.744 46.0113 21.744H45.1593V23.952ZM52.0374 21.108C51.6854 20.988 51.3654 20.868 51.0774 20.748C50.7894 20.62 50.5414 20.468 50.3334 20.292C50.1254 20.116 49.9614 19.908 49.8414 19.668C49.7294 19.42 49.6734 19.12 49.6734 18.768C49.6734 18.088 49.9334 17.544 50.4534 17.136C50.9814 16.728 51.7174 16.524 52.6614 16.524C53.0054 16.524 53.3254 16.548 53.6214 16.596C53.9174 16.644 54.1694 16.72 54.3774 16.824C54.5934 16.92 54.7614 17.048 54.8814 17.208C55.0014 17.36 55.0614 17.54 55.0614 17.748C55.0614 17.956 55.0134 18.136 54.9174 18.288C54.8214 18.432 54.7054 18.556 54.5694 18.66C54.3934 18.548 54.1574 18.452 53.8614 18.372C53.5654 18.284 53.2414 18.24 52.8894 18.24C52.5294 18.24 52.2654 18.292 52.0974 18.396C51.9294 18.492 51.8454 18.616 51.8454 18.768C51.8454 18.888 51.8974 18.988 52.0014 19.068C52.1054 19.14 52.2614 19.208 52.4694 19.272L53.1054 19.476C53.8574 19.716 54.4334 20.024 54.8334 20.4C55.2414 20.768 55.4454 21.272 55.4454 21.912C55.4454 22.592 55.1774 23.144 54.6414 23.568C54.1054 23.984 53.3174 24.192 52.2774 24.192C51.9094 24.192 51.5654 24.16 51.2454 24.096C50.9334 24.04 50.6574 23.956 50.4174 23.844C50.1854 23.724 50.0014 23.58 49.8654 23.412C49.7374 23.236 49.6734 23.036 49.6734 22.812C49.6734 22.58 49.7414 22.384 49.8774 22.224C50.0134 22.056 50.1614 21.928 50.3214 21.84C50.5454 22.016 50.8174 22.168 51.1374 22.296C51.4654 22.424 51.8214 22.488 52.2054 22.488C52.5974 22.488 52.8734 22.428 53.0334 22.308C53.1934 22.188 53.2734 22.048 53.2734 21.888C53.2734 21.728 53.2094 21.608 53.0814 21.528C52.9534 21.44 52.7734 21.356 52.5414 21.276L52.0374 21.108ZM58.4427 13.788C58.8347 13.82 59.1147 13.916 59.2827 14.076C59.4507 14.228 59.5347 14.408 59.5347 14.616C59.5347 14.848 59.4667 15.032 59.3307 15.168C59.2027 15.304 58.9987 15.428 58.7187 15.54L57.0747 16.188C56.8427 16.14 56.6547 16.044 56.5107 15.9C56.3747 15.756 56.3067 15.596 56.3067 15.42C56.3067 15.308 56.3347 15.2 56.3907 15.096C56.4547 14.992 56.5507 14.908 56.6787 14.844L58.4427 13.788ZM58.6827 23.952C58.5947 23.976 58.4547 24 58.2627 24.024C58.0787 24.048 57.8947 24.06 57.7107 24.06C57.5267 24.06 57.3627 24.044 57.2187 24.012C57.0827 23.988 56.9667 23.94 56.8707 23.868C56.7747 23.796 56.7027 23.696 56.6547 23.568C56.6067 23.44 56.5827 23.272 56.5827 23.064V16.728C56.6707 16.712 56.8107 16.692 57.0027 16.668C57.1947 16.636 57.3787 16.62 57.5547 16.62C57.7387 16.62 57.8987 16.636 58.0347 16.668C58.1787 16.692 58.2987 16.74 58.3947 16.812C58.4907 16.884 58.5627 16.984 58.6107 17.112C58.6587 17.24 58.6827 17.408 58.6827 17.616V23.952ZM59.879 20.352C59.879 19.728 59.975 19.176 60.167 18.696C60.367 18.216 60.635 17.816 60.971 17.496C61.315 17.168 61.715 16.92 62.171 16.752C62.635 16.584 63.135 16.5 63.671 16.5C64.207 16.5 64.703 16.584 65.159 16.752C65.623 16.92 66.027 17.168 66.371 17.496C66.715 17.816 66.983 18.216 67.175 18.696C67.375 19.176 67.475 19.728 67.475 20.352C67.475 21.136 67.331 21.804 67.043 22.356C66.755 22.9 66.363 23.328 65.867 23.64C65.987 23.696 66.127 23.756 66.287 23.82C66.455 23.884 66.627 23.948 66.803 24.012C66.987 24.076 67.175 24.136 67.367 24.192C67.559 24.256 67.739 24.312 67.907 24.36C67.915 24.408 67.919 24.448 67.919 24.48C67.919 24.52 67.919 24.556 67.919 24.588C67.919 25.044 67.799 25.376 67.559 25.584C67.327 25.792 67.019 25.896 66.635 25.896C66.267 25.896 65.887 25.792 65.495 25.584C65.103 25.384 64.703 25.092 64.295 24.708L63.767 24.216H63.671C63.127 24.216 62.623 24.132 62.159 23.964C61.695 23.788 61.295 23.536 60.959 23.208C60.623 22.88 60.359 22.476 60.167 21.996C59.975 21.516 59.879 20.968 59.879 20.352ZM62.039 20.352C62.039 21.08 62.187 21.624 62.483 21.984C62.779 22.344 63.175 22.524 63.671 22.524C64.175 22.524 64.575 22.344 64.871 21.984C65.167 21.624 65.315 21.08 65.315 20.352C65.315 19.632 65.167 19.092 64.871 18.732C64.583 18.372 64.187 18.192 63.683 18.192C63.187 18.192 62.787 18.372 62.483 18.732C62.187 19.084 62.039 19.624 62.039 20.352ZM75.1439 21.312C75.1439 21.744 75.0679 22.14 74.9159 22.5C74.7719 22.852 74.5599 23.156 74.2799 23.412C73.9999 23.66 73.6599 23.852 73.2599 23.988C72.8599 24.124 72.4079 24.192 71.9039 24.192C71.3999 24.192 70.9479 24.124 70.5479 23.988C70.1479 23.852 69.8079 23.66 69.5279 23.412C69.2479 23.156 69.0319 22.852 68.8799 22.5C68.7359 22.14 68.6639 21.744 68.6639 21.312V16.728C68.7519 16.712 68.8919 16.692 69.0839 16.668C69.2759 16.636 69.4599 16.62 69.6359 16.62C69.8199 16.62 69.9799 16.636 70.1159 16.668C70.2599 16.692 70.3799 16.74 70.4759 16.812C70.5719 16.884 70.6439 16.984 70.6919 17.112C70.7399 17.24 70.7639 17.408 70.7639 17.616V21.276C70.7639 21.66 70.8679 21.96 71.0759 22.176C71.2919 22.392 71.5679 22.5 71.9039 22.5C72.2479 22.5 72.5239 22.392 72.7319 22.176C72.9399 21.96 73.0439 21.66 73.0439 21.276V16.728C73.1319 16.712 73.2719 16.692 73.4639 16.668C73.6559 16.636 73.8399 16.62 74.0159 16.62C74.1999 16.62 74.3599 16.636 74.4959 16.668C74.6399 16.692 74.7599 16.74 74.8559 16.812C74.9519 16.884 75.0239 16.984 75.0719 17.112C75.1199 17.24 75.1439 17.408 75.1439 17.616V21.312ZM78.7687 23.952C78.6807 23.976 78.5407 24 78.3487 24.024C78.1647 24.048 77.9807 24.06 77.7967 24.06C77.6127 24.06 77.4487 24.044 77.3047 24.012C77.1687 23.988 77.0527 23.94 76.9567 23.868C76.8607 23.796 76.7887 23.696 76.7407 23.568C76.6927 23.44 76.6687 23.272 76.6687 23.064V16.728C76.7567 16.712 76.8967 16.692 77.0887 16.668C77.2807 16.636 77.4647 16.62 77.6407 16.62C77.8247 16.62 77.9847 16.636 78.1207 16.668C78.2647 16.692 78.3847 16.74 78.4807 16.812C78.5767 16.884 78.6487 16.984 78.6967 17.112C78.7447 17.24 78.7687 17.408 78.7687 17.616V23.952ZM84.0329 18.192C83.4169 18.192 82.9449 18.38 82.6169 18.756C82.2889 19.132 82.1249 19.664 82.1249 20.352C82.1249 21.048 82.3049 21.584 82.6649 21.96C83.0329 22.336 83.5249 22.524 84.1409 22.524C84.4689 22.524 84.7449 22.48 84.9689 22.392C85.2009 22.304 85.4209 22.204 85.6289 22.092C85.7649 22.204 85.8689 22.34 85.9409 22.5C86.0209 22.652 86.0609 22.832 86.0609 23.04C86.0609 23.368 85.8769 23.648 85.5089 23.88C85.1489 24.104 84.5969 24.216 83.8529 24.216C83.3169 24.216 82.8129 24.14 82.3409 23.988C81.8689 23.836 81.4569 23.604 81.1049 23.292C80.7529 22.972 80.4729 22.572 80.2649 22.092C80.0649 21.604 79.9649 21.024 79.9649 20.352C79.9649 19.728 80.0609 19.18 80.2529 18.708C80.4529 18.228 80.7209 17.824 81.0569 17.496C81.4009 17.168 81.8009 16.92 82.2569 16.752C82.7129 16.584 83.2009 16.5 83.7209 16.5C84.4569 16.5 85.0249 16.62 85.4249 16.86C85.8329 17.1 86.0369 17.408 86.0369 17.784C86.0369 17.992 85.9849 18.172 85.8809 18.324C85.7769 18.476 85.6569 18.596 85.5209 18.684C85.3129 18.548 85.0889 18.432 84.8489 18.336C84.6169 18.24 84.3449 18.192 84.0329 18.192ZM86.7032 20.352C86.7032 19.728 86.7992 19.176 86.9912 18.696C87.1912 18.216 87.4592 17.816 87.7952 17.496C88.1392 17.168 88.5392 16.92 88.9952 16.752C89.4592 16.584 89.9592 16.5 90.4952 16.5C91.0312 16.5 91.5272 16.584 91.9832 16.752C92.4472 16.92 92.8512 17.168 93.1952 17.496C93.5392 17.816 93.8072 18.216 93.9992 18.696C94.1992 19.176 94.2992 19.728 94.2992 20.352C94.2992 20.976 94.2032 21.532 94.0112 22.02C93.8192 22.5 93.5512 22.904 93.2072 23.232C92.8712 23.552 92.4712 23.796 92.0072 23.964C91.5432 24.132 91.0392 24.216 90.4952 24.216C89.9512 24.216 89.4472 24.132 88.9832 23.964C88.5192 23.788 88.1192 23.536 87.7832 23.208C87.4472 22.88 87.1832 22.476 86.9912 21.996C86.7992 21.516 86.7032 20.968 86.7032 20.352ZM88.8632 20.352C88.8632 21.08 89.0112 21.624 89.3072 21.984C89.6032 22.344 89.9992 22.524 90.4952 22.524C90.9992 22.524 91.3992 22.344 91.6952 21.984C91.9912 21.624 92.1392 21.08 92.1392 20.352C92.1392 19.632 91.9912 19.092 91.6952 18.732C91.4072 18.372 91.0112 18.192 90.5072 18.192C90.0112 18.192 89.6112 18.372 89.3072 18.732C89.0112 19.084 88.8632 19.624 88.8632 20.352Z" fill="white"/>
<path fill-rule="evenodd" clip-rule="evenodd" d="M30.9745 24.6261C30.9745 24.6261 29.2092 26.042 25.6963 25.456C23.0311 25.0115 21.6096 22.0736 21.6096 20.4944C21.6096 16.7502 24.3808 15.8981 26.2543 15.8981C28.1278 15.8981 29.35 17.7247 29.35 19.1389C29.35 20.5531 28.3497 21.7901 26.7931 21.7901C25.2366 21.7901 24.7755 20.6973 24.7755 19.6926C24.7755 18.6879 25.5884 18.334 26.3297 18.334C27.071 18.334 27.3249 18.9669 27.3249 19.5108C27.3249 20.0548 26.9028 20.2496 26.5508 20.2496C26.1988 20.2496 26.1639 20.072 26.0292 19.8854C25.8945 19.6987 26.2011 18.9923 25.6963 18.9923C25.1915 18.9923 25.0974 19.8044 25.0974 19.8044C25.0974 19.8044 25.2815 21.3721 26.7931 21.3451C28.3048 21.318 29.022 20.1493 28.8136 18.9923C28.6052 17.8352 27.4822 16.6057 25.5115 16.8541C23.5407 17.1026 22.736 19.0939 23.0907 21.2219C23.4454 23.3499 25.9947 24.5829 27.9992 24.1393C30.0036 23.6957 32 22.2445 32 18.5653C32 14.8861 28.8136 12.6746 25.014 13.0391C21.2145 13.4036 18.8559 16.7254 19.0068 20.7166C19.1578 24.7078 22.945 26.8816 26.1475 26.9936C29.35 27.1057 31.3132 25.2518 31.3132 25.2518C31.3132 25.2518 31.7547 24.8581 31.5816 24.5506C31.4085 24.2432 30.9745 24.6261 30.9745 24.6261Z" fill="white"/>
</g>
<defs>
<filter id="filter0_d_8_1243" x="-5" y="-5" width="130" height="50" filterUnits="userSpaceOnUse" color-interpolation-filters="sRGB">
<feFlood flood-opacity="0" result="BackgroundImageFix"/>
<feColorMatrix in="SourceAlpha" type="matrix" values="0 0 0 0 0 0 0 0 0 0 0 0 0 0 0 0 0 0 127 0" result="hardAlpha"/>
<feOffset/>
<feGaussianBlur stdDeviation="5"/>
<feColorMatrix type="matrix" values="0 0 0 0 0.972549 0 0 0 0 0.486275 0 0 0 0 0.478431 0 0 0 0.7 0"/>
<feBlend mode="normal" in2="BackgroundImageFix" result="effect1_dropShadow_8_1243"/>
<feBlend mode="normal" in="SourceGraphic" in2="effect1_dropShadow_8_1243" result="shape"/>
</filter>
<clipPath id="clip0_8_1243">
<rect width="110" height="30" fill="white" transform="translate(5 5)"/>
</clipPath>
</defs>
</svg>
