<svg width="120" height="40" viewBox="0 0 120 40" fill="none" xmlns="http://www.w3.org/2000/svg">
<g clip-path="url(#clip0_8_1248)">
<g filter="url(#filter0_d_8_1248)">
<rect x="5" y="5" width="110" height="30" rx="15" fill="#CEC18C"/>
</g>
<path d="M53.7696 20.1C54.1056 20.1 54.3616 20.024 54.5376 19.872C54.7216 19.712 54.8136 19.472 54.8136 19.152C54.8136 18.848 54.7176 18.616 54.5256 18.456C54.3416 18.288 54.0696 18.204 53.7096 18.204C53.5816 18.204 53.4736 18.208 53.3856 18.216C53.3056 18.216 53.2216 18.224 53.1336 18.24V20.1H53.7696ZM53.1456 23.952C53.0576 23.976 52.9176 24 52.7256 24.024C52.5416 24.048 52.3576 24.06 52.1736 24.06C51.9896 24.06 51.8256 24.044 51.6816 24.012C51.5456 23.988 51.4296 23.94 51.3336 23.868C51.2376 23.796 51.1656 23.696 51.1176 23.568C51.0696 23.44 51.0456 23.272 51.0456 23.064V17.412C51.0456 17.244 51.0896 17.116 51.1776 17.028C51.2736 16.932 51.4016 16.856 51.5616 16.8C51.8336 16.704 52.1416 16.636 52.4856 16.596C52.8376 16.548 53.1896 16.524 53.5416 16.524C54.6456 16.524 55.4896 16.76 56.0736 17.232C56.6576 17.704 56.9496 18.344 56.9496 19.152C56.9496 19.544 56.8856 19.9 56.7576 20.22C56.6376 20.532 56.4536 20.804 56.2056 21.036C55.9656 21.26 55.6576 21.436 55.2816 21.564C54.9136 21.684 54.4856 21.744 53.9976 21.744H53.1456V23.952ZM58.0183 17.844C58.0183 17.5 58.1183 17.228 58.3183 17.028C58.5183 16.828 58.7903 16.728 59.1343 16.728H63.0943C63.1503 16.816 63.1983 16.932 63.2383 17.076C63.2863 17.22 63.3103 17.372 63.3103 17.532C63.3103 17.836 63.2423 18.052 63.1063 18.18C62.9783 18.308 62.8063 18.372 62.5903 18.372H60.0583V19.488H62.7583C62.8143 19.576 62.8623 19.692 62.9023 19.836C62.9503 19.972 62.9743 20.12 62.9743 20.28C62.9743 20.584 62.9103 20.8 62.7823 20.928C62.6543 21.056 62.4823 21.12 62.2663 21.12H60.0583V22.38H63.1423C63.1983 22.468 63.2463 22.584 63.2863 22.728C63.3343 22.872 63.3583 23.024 63.3583 23.184C63.3583 23.488 63.2903 23.708 63.1543 23.844C63.0263 23.972 62.8543 24.036 62.6383 24.036H59.1343C58.7903 24.036 58.5183 23.936 58.3183 23.736C58.1183 23.536 58.0183 23.264 58.0183 22.92V17.844ZM66.6805 22.44C66.7685 22.456 66.8765 22.472 67.0045 22.488C67.1325 22.496 67.2525 22.5 67.3645 22.5C67.6365 22.5 67.8845 22.46 68.1085 22.38C68.3405 22.3 68.5365 22.176 68.6965 22.008C68.8645 21.84 68.9925 21.624 69.0805 21.36C69.1765 21.088 69.2245 20.764 69.2245 20.388C69.2245 19.668 69.0565 19.128 68.7205 18.768C68.3845 18.4 67.9365 18.216 67.3765 18.216C67.2645 18.216 67.1485 18.22 67.0285 18.228C66.9165 18.236 66.8005 18.248 66.6805 18.264V22.44ZM67.3525 24.192C67.2165 24.192 67.0605 24.188 66.8845 24.18C66.7085 24.172 66.5245 24.156 66.3325 24.132C66.1485 24.108 65.9605 24.076 65.7685 24.036C65.5845 24.004 65.4125 23.956 65.2525 23.892C64.8125 23.724 64.5925 23.432 64.5925 23.016V17.412C64.5925 17.244 64.6365 17.116 64.7245 17.028C64.8205 16.932 64.9485 16.856 65.1085 16.8C65.4525 16.688 65.8165 16.616 66.2005 16.584C66.5845 16.544 66.9285 16.524 67.2325 16.524C67.8565 16.524 68.4205 16.6 68.9245 16.752C69.4365 16.904 69.8725 17.14 70.2325 17.46C70.6005 17.772 70.8845 18.168 71.0845 18.648C71.2845 19.128 71.3845 19.696 71.3845 20.352C71.3845 20.992 71.2885 21.552 71.0965 22.032C70.9045 22.504 70.6285 22.904 70.2685 23.232C69.9165 23.552 69.4925 23.792 68.9965 23.952C68.5005 24.112 67.9525 24.192 67.3525 24.192ZM74.6727 21.648V23.952C74.5847 23.976 74.4447 24 74.2527 24.024C74.0687 24.048 73.8847 24.06 73.7007 24.06C73.5167 24.06 73.3527 24.044 73.2087 24.012C73.0727 23.988 72.9567 23.94 72.8607 23.868C72.7727 23.796 72.7047 23.696 72.6567 23.568C72.6087 23.44 72.5847 23.272 72.5847 23.064V17.412C72.5847 17.244 72.6287 17.116 72.7167 17.028C72.8127 16.932 72.9407 16.856 73.1007 16.8C73.3727 16.704 73.6887 16.636 74.0487 16.596C74.4087 16.548 74.7927 16.524 75.2007 16.524C76.3047 16.524 77.1367 16.756 77.6967 17.22C78.2567 17.684 78.5367 18.312 78.5367 19.104C78.5367 19.6 78.4087 20.024 78.1527 20.376C77.8967 20.728 77.5927 21 77.2407 21.192C77.5287 21.584 77.8127 21.952 78.0927 22.296C78.3727 22.64 78.5927 22.952 78.7527 23.232C78.6727 23.512 78.5247 23.728 78.3087 23.88C78.1007 24.024 77.8647 24.096 77.6007 24.096C77.4247 24.096 77.2727 24.076 77.1447 24.036C77.0167 23.996 76.9047 23.94 76.8087 23.868C76.7127 23.796 76.6247 23.708 76.5447 23.604C76.4647 23.5 76.3887 23.388 76.3167 23.268L75.3087 21.648H74.6727ZM75.4287 20.052C75.7327 20.052 75.9727 19.976 76.1487 19.824C76.3247 19.664 76.4127 19.432 76.4127 19.128C76.4127 18.824 76.3127 18.596 76.1127 18.444C75.9207 18.284 75.6127 18.204 75.1887 18.204C75.0687 18.204 74.9727 18.208 74.9007 18.216C74.8287 18.224 74.7487 18.236 74.6607 18.252V20.052H75.4287ZM81.5389 16.944C81.6749 16.864 81.8789 16.788 82.1509 16.716C82.4309 16.644 82.7109 16.608 82.9909 16.608C83.3909 16.608 83.7429 16.668 84.0469 16.788C84.3589 16.9 84.5589 17.08 84.6469 17.328C84.7909 17.744 84.9469 18.228 85.1149 18.78C85.2829 19.332 85.4509 19.904 85.6189 20.496C85.7869 21.08 85.9509 21.66 86.1109 22.236C86.2709 22.804 86.4109 23.308 86.5309 23.748C86.4349 23.86 86.2909 23.948 86.0989 24.012C85.9069 24.084 85.6789 24.12 85.4149 24.12C85.2229 24.12 85.0589 24.104 84.9229 24.072C84.7949 24.04 84.6869 23.992 84.5989 23.928C84.5189 23.864 84.4509 23.78 84.3949 23.676C84.3469 23.572 84.3029 23.452 84.2629 23.316L84.0469 22.488H81.8749C81.8109 22.728 81.7469 22.976 81.6829 23.232C81.6189 23.488 81.5549 23.736 81.4909 23.976C81.3789 24.016 81.2589 24.048 81.1309 24.072C81.0109 24.104 80.8629 24.12 80.6869 24.12C80.2789 24.12 79.9749 24.052 79.7749 23.916C79.5829 23.772 79.4869 23.576 79.4869 23.328C79.4869 23.216 79.5029 23.104 79.5349 22.992C79.5669 22.88 79.6029 22.748 79.6429 22.596C79.6989 22.38 79.7749 22.112 79.8709 21.792C79.9749 21.472 80.0869 21.128 80.2069 20.76C80.3269 20.384 80.4549 20 80.5909 19.608C80.7269 19.216 80.8549 18.848 80.9749 18.504C81.0949 18.152 81.2029 17.84 81.2989 17.568C81.4029 17.296 81.4829 17.088 81.5389 16.944ZM82.9789 18.492C82.8669 18.828 82.7389 19.204 82.5949 19.62C82.4589 20.028 82.3349 20.444 82.2229 20.868H83.7109C83.5989 20.436 83.4829 20.016 83.3629 19.608C83.2509 19.192 83.1469 18.82 83.0509 18.492H82.9789Z" fill="white"/>
<path fill-rule="evenodd" clip-rule="evenodd" d="M29.8536 20.2658C29.8242 20.2258 29.8124 20.1757 29.8208 20.1268L30.674 15.1518C30.689 15.0641 30.7661 15 30.8551 15C30.9348 15 31.0062 15.0517 31.0302 15.1276L32.9618 21.2435C32.9848 21.3162 32.9601 21.3956 32.9 21.4425L31.661 22.4099C31.5799 22.4732 31.4624 22.457 31.4014 22.374L29.8536 20.2658ZM19 23.5214C19 23.6004 19.0508 23.6704 19.1259 23.695L21.9716 24.6254C22.0258 24.6432 22.0852 24.6345 22.1322 24.6021L28.818 19.9864C28.8596 19.9577 28.8874 19.913 28.8949 19.863L29.5847 15.2347C29.6011 15.1243 29.5156 15.0251 29.404 15.0251H23.6513C23.5969 15.0251 23.5454 15.0493 23.5107 15.0912L19.042 20.4819C19.0149 20.5147 19 20.5559 19 20.5985V23.5214ZM23.3271 24.907L26.5755 25.9712C26.6309 25.9893 26.6915 25.9799 26.7389 25.946L30.4951 23.2516C30.5753 23.1941 30.5953 23.0833 30.5402 23.0013L29.2482 21.0787C29.1916 20.9945 29.0772 20.9725 28.9935 21.0298L23.3271 24.907Z" fill="white"/>
</g>
<defs>
<filter id="filter0_d_8_1248" x="-5" y="-5" width="130" height="50" filterUnits="userSpaceOnUse" color-interpolation-filters="sRGB">
<feFlood flood-opacity="0" result="BackgroundImageFix"/>
<feColorMatrix in="SourceAlpha" type="matrix" values="0 0 0 0 0 0 0 0 0 0 0 0 0 0 0 0 0 0 127 0" result="hardAlpha"/>
<feOffset/>
<feGaussianBlur stdDeviation="5"/>
<feColorMatrix type="matrix" values="0 0 0 0 0.807843 0 0 0 0 0.756863 0 0 0 0 0.54902 0 0 0 0.7 0"/>
<feBlend mode="normal" in2="BackgroundImageFix" result="effect1_dropShadow_8_1248"/>
<feBlend mode="normal" in="SourceGraphic" in2="effect1_dropShadow_8_1248" result="shape"/>
</filter>
<clipPath id="clip0_8_1248">
<rect width="110" height="30" fill="white" transform="translate(5 5)"/>
</clipPath>
</defs>
</svg>
