<svg width="120" height="40" viewBox="0 0 120 40" fill="none" xmlns="http://www.w3.org/2000/svg">
<g clip-path="url(#clip0_8_1256)">
<g filter="url(#filter0_d_8_1256)">
<rect x="5" y="5" width="110" height="30" rx="15" fill="#5596A4"/>
</g>
<path d="M59.537 16.944C59.673 16.864 59.877 16.788 60.149 16.716C60.429 16.644 60.709 16.608 60.989 16.608C61.389 16.608 61.741 16.668 62.045 16.788C62.357 16.9 62.557 17.08 62.645 17.328C62.789 17.744 62.945 18.228 63.113 18.78C63.281 19.332 63.449 19.904 63.617 20.496C63.785 21.08 63.949 21.66 64.109 22.236C64.269 22.804 64.409 23.308 64.529 23.748C64.433 23.86 64.289 23.948 64.097 24.012C63.905 24.084 63.677 24.12 63.413 24.12C63.221 24.12 63.057 24.104 62.921 24.072C62.793 24.04 62.685 23.992 62.597 23.928C62.517 23.864 62.449 23.78 62.393 23.676C62.345 23.572 62.301 23.452 62.261 23.316L62.045 22.488H59.873C59.809 22.728 59.745 22.976 59.681 23.232C59.617 23.488 59.553 23.736 59.489 23.976C59.377 24.016 59.257 24.048 59.129 24.072C59.009 24.104 58.861 24.12 58.685 24.12C58.277 24.12 57.973 24.052 57.773 23.916C57.581 23.772 57.485 23.576 57.485 23.328C57.485 23.216 57.501 23.104 57.533 22.992C57.565 22.88 57.601 22.748 57.641 22.596C57.697 22.38 57.773 22.112 57.869 21.792C57.973 21.472 58.085 21.128 58.205 20.76C58.325 20.384 58.453 20 58.589 19.608C58.725 19.216 58.853 18.848 58.973 18.504C59.093 18.152 59.201 17.84 59.297 17.568C59.401 17.296 59.481 17.088 59.537 16.944ZM60.977 18.492C60.865 18.828 60.737 19.204 60.593 19.62C60.457 20.028 60.333 20.444 60.221 20.868H61.709C61.597 20.436 61.481 20.016 61.361 19.608C61.249 19.192 61.145 18.82 61.049 18.492H60.977ZM69.1032 18.192C68.4872 18.192 68.0152 18.38 67.6872 18.756C67.3592 19.132 67.1952 19.664 67.1952 20.352C67.1952 21.048 67.3752 21.584 67.7352 21.96C68.1032 22.336 68.5952 22.524 69.2112 22.524C69.5392 22.524 69.8152 22.48 70.0392 22.392C70.2712 22.304 70.4912 22.204 70.6992 22.092C70.8352 22.204 70.9392 22.34 71.0112 22.5C71.0912 22.652 71.1312 22.832 71.1312 23.04C71.1312 23.304 71.0192 23.536 70.7952 23.736C70.5712 23.936 70.2192 24.072 69.7392 24.144C69.8032 24.256 69.8512 24.4 69.8832 24.576C69.9152 24.752 69.9312 24.908 69.9312 25.044C69.9312 25.46 69.8032 25.804 69.5472 26.076C69.2912 26.348 68.9272 26.484 68.4552 26.484C68.1192 26.484 67.8472 26.396 67.6392 26.22C67.4392 26.052 67.3392 25.816 67.3392 25.512C67.3392 25.424 67.3432 25.352 67.3512 25.296C67.3672 25.248 67.3832 25.2 67.3992 25.152C67.9192 25.128 68.1792 24.932 68.1792 24.564C68.1792 24.516 68.1712 24.452 68.1552 24.372C68.1472 24.3 68.1232 24.224 68.0832 24.144C67.6512 24.08 67.2472 23.956 66.8712 23.772C66.5032 23.58 66.1832 23.328 65.9112 23.016C65.6392 22.704 65.4232 22.328 65.2632 21.888C65.1112 21.44 65.0352 20.928 65.0352 20.352C65.0352 19.728 65.1312 19.18 65.3232 18.708C65.5232 18.228 65.7912 17.824 66.1272 17.496C66.4712 17.168 66.8712 16.92 67.3272 16.752C67.7832 16.584 68.2712 16.5 68.7912 16.5C69.5272 16.5 70.0952 16.62 70.4952 16.86C70.9032 17.1 71.1072 17.408 71.1072 17.784C71.1072 17.992 71.0552 18.172 70.9512 18.324C70.8472 18.476 70.7272 18.596 70.5912 18.684C70.3832 18.548 70.1592 18.432 69.9192 18.336C69.6872 18.24 69.4152 18.192 69.1032 18.192ZM71.7735 20.352C71.7735 19.728 71.8695 19.176 72.0615 18.696C72.2615 18.216 72.5295 17.816 72.8655 17.496C73.2095 17.168 73.6095 16.92 74.0655 16.752C74.5295 16.584 75.0295 16.5 75.5655 16.5C76.1015 16.5 76.5975 16.584 77.0535 16.752C77.5175 16.92 77.9215 17.168 78.2655 17.496C78.6095 17.816 78.8775 18.216 79.0695 18.696C79.2695 19.176 79.3695 19.728 79.3695 20.352C79.3695 20.976 79.2735 21.532 79.0815 22.02C78.8895 22.5 78.6215 22.904 78.2775 23.232C77.9415 23.552 77.5415 23.796 77.0775 23.964C76.6135 24.132 76.1095 24.216 75.5655 24.216C75.0215 24.216 74.5175 24.132 74.0535 23.964C73.5895 23.788 73.1895 23.536 72.8535 23.208C72.5175 22.88 72.2535 22.476 72.0615 21.996C71.8695 21.516 71.7735 20.968 71.7735 20.352ZM73.9335 20.352C73.9335 21.08 74.0815 21.624 74.3775 21.984C74.6735 22.344 75.0695 22.524 75.5655 22.524C76.0695 22.524 76.4695 22.344 76.7655 21.984C77.0615 21.624 77.2095 21.08 77.2095 20.352C77.2095 19.632 77.0615 19.092 76.7655 18.732C76.4775 18.372 76.0815 18.192 75.5775 18.192C75.0815 18.192 74.6815 18.372 74.3775 18.732C74.0815 19.084 73.9335 19.624 73.9335 20.352Z" fill="white"/>
<path fill-rule="evenodd" clip-rule="evenodd" d="M19.0511 19.6919C18.983 19.5756 18.983 19.4317 19.051 19.3154L22.6395 13.1843C22.7063 13.0702 22.8287 13 22.961 13H30.0772C30.2101 13 30.333 13.0708 30.3996 13.1859L33.9487 19.3169C34.0155 19.4324 34.0155 19.5749 33.9486 19.6903L30.3996 25.8143C30.333 25.9292 30.2102 26 30.0773 26H22.9608C22.8286 26 22.7063 25.9299 22.6394 25.8158L19.0511 19.6919ZM26.5 23C28.433 23 30 21.433 30 19.5C30 17.567 28.433 16 26.5 16C24.567 16 23 17.567 23 19.5C23 21.433 24.567 23 26.5 23Z" fill="white"/>
</g>
<defs>
<filter id="filter0_d_8_1256" x="-5" y="-5" width="130" height="50" filterUnits="userSpaceOnUse" color-interpolation-filters="sRGB">
<feFlood flood-opacity="0" result="BackgroundImageFix"/>
<feColorMatrix in="SourceAlpha" type="matrix" values="0 0 0 0 0 0 0 0 0 0 0 0 0 0 0 0 0 0 127 0" result="hardAlpha"/>
<feOffset/>
<feGaussianBlur stdDeviation="5"/>
<feColorMatrix type="matrix" values="0 0 0 0 0.333333 0 0 0 0 0.588235 0 0 0 0 0.643137 0 0 0 0.7 0"/>
<feBlend mode="normal" in2="BackgroundImageFix" result="effect1_dropShadow_8_1256"/>
<feBlend mode="normal" in="SourceGraphic" in2="effect1_dropShadow_8_1256" result="shape"/>
</filter>
<clipPath id="clip0_8_1256">
<rect width="110" height="30" fill="white" transform="translate(5 5)"/>
</clipPath>
</defs>
</svg>
