<svg width="120" height="40" viewBox="0 0 120 40" fill="none" xmlns="http://www.w3.org/2000/svg">
<g clip-path="url(#clip0_8_1109)">
<g filter="url(#filter0_d_8_1109)">
<rect x="5" y="5" width="110" height="30" rx="15" fill="#559EDF"/>
</g>
<path d="M55.4413 16.944C55.5773 16.864 55.7813 16.788 56.0533 16.716C56.3333 16.644 56.6133 16.608 56.8933 16.608C57.2933 16.608 57.6453 16.668 57.9493 16.788C58.2613 16.9 58.4613 17.08 58.5493 17.328C58.6933 17.744 58.8493 18.228 59.0173 18.78C59.1853 19.332 59.3533 19.904 59.5213 20.496C59.6893 21.08 59.8533 21.66 60.0133 22.236C60.1733 22.804 60.3133 23.308 60.4333 23.748C60.3373 23.86 60.1933 23.948 60.0013 24.012C59.8093 24.084 59.5813 24.12 59.3173 24.12C59.1253 24.12 58.9613 24.104 58.8253 24.072C58.6973 24.04 58.5893 23.992 58.5013 23.928C58.4213 23.864 58.3533 23.78 58.2973 23.676C58.2493 23.572 58.2053 23.452 58.1653 23.316L57.9493 22.488H55.7773C55.7133 22.728 55.6493 22.976 55.5853 23.232C55.5213 23.488 55.4573 23.736 55.3933 23.976C55.2813 24.016 55.1613 24.048 55.0333 24.072C54.9133 24.104 54.7653 24.12 54.5893 24.12C54.1813 24.12 53.8773 24.052 53.6773 23.916C53.4853 23.772 53.3893 23.576 53.3893 23.328C53.3893 23.216 53.4053 23.104 53.4373 22.992C53.4693 22.88 53.5053 22.748 53.5453 22.596C53.6013 22.38 53.6773 22.112 53.7733 21.792C53.8773 21.472 53.9893 21.128 54.1093 20.76C54.2293 20.384 54.3573 20 54.4933 19.608C54.6293 19.216 54.7573 18.848 54.8773 18.504C54.9973 18.152 55.1053 17.84 55.2013 17.568C55.3053 17.296 55.3853 17.088 55.4413 16.944ZM56.8813 18.492C56.7693 18.828 56.6413 19.204 56.4973 19.62C56.3613 20.028 56.2373 20.444 56.1253 20.868H57.6133C57.5013 20.436 57.3853 20.016 57.2653 19.608C57.1533 19.192 57.0493 18.82 56.9533 18.492H56.8813ZM57.5653 13.788C57.9573 13.82 58.2373 13.916 58.4053 14.076C58.5733 14.228 58.6573 14.408 58.6573 14.616C58.6573 14.848 58.5893 15.032 58.4533 15.168C58.3253 15.304 58.1213 15.428 57.8413 15.54L56.1973 16.188C55.9653 16.14 55.7773 16.044 55.6333 15.9C55.4973 15.756 55.4293 15.596 55.4293 15.42C55.4293 15.308 55.4573 15.2 55.5133 15.096C55.5773 14.992 55.6733 14.908 55.8013 14.844L57.5653 13.788ZM67.8875 22.812C67.8875 23.06 67.8435 23.244 67.7555 23.364C67.6675 23.484 67.5275 23.6 67.3355 23.712C67.2235 23.776 67.0835 23.84 66.9155 23.904C66.7475 23.96 66.5635 24.008 66.3635 24.048C66.1635 24.096 65.9515 24.132 65.7275 24.156C65.5115 24.18 65.2955 24.192 65.0795 24.192C64.5035 24.192 63.9635 24.116 63.4595 23.964C62.9555 23.804 62.5155 23.568 62.1395 23.256C61.7715 22.936 61.4795 22.54 61.2635 22.068C61.0475 21.596 60.9395 21.048 60.9395 20.424C60.9395 19.768 61.0555 19.196 61.2875 18.708C61.5275 18.22 61.8395 17.816 62.2235 17.496C62.6155 17.168 63.0595 16.924 63.5555 16.764C64.0595 16.604 64.5755 16.524 65.1035 16.524C65.8635 16.524 66.4635 16.648 66.9035 16.896C67.3515 17.136 67.5755 17.452 67.5755 17.844C67.5755 18.052 67.5235 18.232 67.4195 18.384C67.3155 18.536 67.1955 18.656 67.0595 18.744C66.8595 18.624 66.6075 18.508 66.3035 18.396C66.0075 18.276 65.6715 18.216 65.2955 18.216C64.6235 18.216 64.0875 18.408 63.6875 18.792C63.2955 19.176 63.0995 19.708 63.0995 20.388C63.0995 20.756 63.1515 21.076 63.2555 21.348C63.3675 21.612 63.5155 21.832 63.6995 22.008C63.8835 22.176 64.0955 22.304 64.3355 22.392C64.5755 22.472 64.8315 22.512 65.1035 22.512C65.2795 22.512 65.4355 22.496 65.5715 22.464C65.7075 22.432 65.8115 22.396 65.8835 22.356V21.228H64.5995C64.5515 21.14 64.5035 21.024 64.4555 20.88C64.4155 20.736 64.3955 20.584 64.3955 20.424C64.3955 20.136 64.4595 19.928 64.5875 19.8C64.7235 19.672 64.8955 19.608 65.1035 19.608H67.1315C67.3715 19.608 67.5555 19.676 67.6835 19.812C67.8195 19.94 67.8875 20.124 67.8875 20.364V22.812ZM75.7123 21.312C75.7123 21.744 75.6363 22.14 75.4843 22.5C75.3403 22.852 75.1283 23.156 74.8483 23.412C74.5683 23.66 74.2283 23.852 73.8283 23.988C73.4283 24.124 72.9763 24.192 72.4723 24.192C71.9683 24.192 71.5163 24.124 71.1163 23.988C70.7163 23.852 70.3763 23.66 70.0963 23.412C69.8163 23.156 69.6003 22.852 69.4483 22.5C69.3043 22.14 69.2323 21.744 69.2323 21.312V16.728C69.3203 16.712 69.4603 16.692 69.6523 16.668C69.8443 16.636 70.0283 16.62 70.2043 16.62C70.3883 16.62 70.5483 16.636 70.6843 16.668C70.8283 16.692 70.9483 16.74 71.0443 16.812C71.1403 16.884 71.2123 16.984 71.2603 17.112C71.3083 17.24 71.3323 17.408 71.3323 17.616V21.276C71.3323 21.66 71.4363 21.96 71.6443 22.176C71.8603 22.392 72.1363 22.5 72.4723 22.5C72.8163 22.5 73.0923 22.392 73.3003 22.176C73.5083 21.96 73.6123 21.66 73.6123 21.276V16.728C73.7003 16.712 73.8403 16.692 74.0323 16.668C74.2243 16.636 74.4083 16.62 74.5843 16.62C74.7683 16.62 74.9283 16.636 75.0643 16.668C75.2083 16.692 75.3283 16.74 75.4243 16.812C75.5203 16.884 75.5923 16.984 75.6403 17.112C75.6883 17.24 75.7123 17.408 75.7123 17.616V21.312ZM78.6913 16.944C78.8273 16.864 79.0313 16.788 79.3033 16.716C79.5833 16.644 79.8633 16.608 80.1433 16.608C80.5433 16.608 80.8953 16.668 81.1993 16.788C81.5113 16.9 81.7113 17.08 81.7993 17.328C81.9433 17.744 82.0993 18.228 82.2673 18.78C82.4353 19.332 82.6033 19.904 82.7713 20.496C82.9393 21.08 83.1033 21.66 83.2633 22.236C83.4233 22.804 83.5633 23.308 83.6833 23.748C83.5873 23.86 83.4433 23.948 83.2513 24.012C83.0593 24.084 82.8313 24.12 82.5673 24.12C82.3753 24.12 82.2113 24.104 82.0753 24.072C81.9473 24.04 81.8393 23.992 81.7513 23.928C81.6713 23.864 81.6033 23.78 81.5473 23.676C81.4993 23.572 81.4553 23.452 81.4153 23.316L81.1993 22.488H79.0273C78.9633 22.728 78.8993 22.976 78.8353 23.232C78.7713 23.488 78.7073 23.736 78.6433 23.976C78.5313 24.016 78.4113 24.048 78.2833 24.072C78.1633 24.104 78.0153 24.12 77.8393 24.12C77.4313 24.12 77.1273 24.052 76.9273 23.916C76.7353 23.772 76.6393 23.576 76.6393 23.328C76.6393 23.216 76.6553 23.104 76.6873 22.992C76.7193 22.88 76.7553 22.748 76.7953 22.596C76.8513 22.38 76.9273 22.112 77.0233 21.792C77.1273 21.472 77.2393 21.128 77.3593 20.76C77.4793 20.384 77.6073 20 77.7433 19.608C77.8793 19.216 78.0073 18.848 78.1273 18.504C78.2473 18.152 78.3553 17.84 78.4513 17.568C78.5553 17.296 78.6353 17.088 78.6913 16.944ZM80.1313 18.492C80.0193 18.828 79.8913 19.204 79.7473 19.62C79.6113 20.028 79.4873 20.444 79.3753 20.868H80.8633C80.7513 20.436 80.6353 20.016 80.5153 19.608C80.4033 19.192 80.2993 18.82 80.2033 18.492H80.1313Z" fill="white"/>
<path fill-rule="evenodd" clip-rule="evenodd" d="M24 26.9999C26.7614 26.9999 29 23.5473 29 19.2883C29 15.0293 26.7614 11.5767 24 11.5767C21.2386 11.5767 19 15.0293 19 19.2883C19 23.5473 21.2386 26.9999 24 26.9999ZM23.1665 25.4029C20.6293 24.8478 21.0634 22.0372 21.0634 22.0372C21.0634 22.0372 21.7563 23.7338 23.4376 24.2834C25.1189 24.833 27.1507 24.027 27.1507 24.027C27.1507 24.027 25.7037 25.9581 23.1665 25.4029Z" fill="white"/>
</g>
<defs>
<filter id="filter0_d_8_1109" x="-5" y="-5" width="130" height="50" filterUnits="userSpaceOnUse" color-interpolation-filters="sRGB">
<feFlood flood-opacity="0" result="BackgroundImageFix"/>
<feColorMatrix in="SourceAlpha" type="matrix" values="0 0 0 0 0 0 0 0 0 0 0 0 0 0 0 0 0 0 127 0" result="hardAlpha"/>
<feOffset/>
<feGaussianBlur stdDeviation="5"/>
<feColorMatrix type="matrix" values="0 0 0 0 0.333333 0 0 0 0 0.619608 0 0 0 0 0.87451 0 0 0 0.7 0"/>
<feBlend mode="normal" in2="BackgroundImageFix" result="effect1_dropShadow_8_1109"/>
<feBlend mode="normal" in="SourceGraphic" in2="effect1_dropShadow_8_1109" result="shape"/>
</filter>
<clipPath id="clip0_8_1109">
<rect width="110" height="30" fill="white" transform="translate(5 5)"/>
</clipPath>
</defs>
</svg>
