<svg width="50" height="50" viewBox="0 0 50 50" fill="none" xmlns="http://www.w3.org/2000/svg">
<g filter="url(#filter0_d_8_996)">
<rect x="10" y="10" width="30" height="30" rx="15" fill="url(#paint0_linear_8_996)"/>
</g>
<path fill-rule="evenodd" clip-rule="evenodd" d="M29.1529 17.8356L29.2051 22.4133L25.2123 24.3299L25.1631 20.0078L29.1529 17.8356Z" fill="white"/>
<path fill-rule="evenodd" clip-rule="evenodd" d="M33.1554 25.0491L29.2029 27.3099L25.2481 25.0456L29.2009 22.9693L33.1554 25.0491Z" fill="white"/>
<path fill-rule="evenodd" clip-rule="evenodd" d="M24.5451 25.0491L20.5925 27.3099L16.6377 25.0456L20.5905 22.9693L24.5451 25.0491Z" fill="white"/>
<path fill-rule="evenodd" clip-rule="evenodd" d="M20.5482 17.8172L24.6506 19.849L24.5457 24.2766L20.6723 22.3583L20.5482 17.8172Z" fill="white"/>
<path fill-rule="evenodd" clip-rule="evenodd" d="M29.2647 32.2116L25.1623 30.1799L25.2671 25.7522L29.1406 27.6705L29.2647 32.2116Z" fill="white"/>
<path fill-rule="evenodd" clip-rule="evenodd" d="M20.6899 32.2528L20.6377 27.6751L24.6304 25.7584L24.6797 30.0806L20.6899 32.2528Z" fill="white"/>
<defs>
<filter id="filter0_d_8_996" x="0" y="0" width="50" height="50" filterUnits="userSpaceOnUse" color-interpolation-filters="sRGB">
<feFlood flood-opacity="0" result="BackgroundImageFix"/>
<feColorMatrix in="SourceAlpha" type="matrix" values="0 0 0 0 0 0 0 0 0 0 0 0 0 0 0 0 0 0 127 0" result="hardAlpha"/>
<feOffset/>
<feGaussianBlur stdDeviation="5"/>
<feColorMatrix type="matrix" values="0 0 0 0 0.494118 0 0 0 0 0.831373 0 0 0 0 0.788235 0 0 0 0.7 0"/>
<feBlend mode="normal" in2="BackgroundImageFix" result="effect1_dropShadow_8_996"/>
<feBlend mode="normal" in="SourceGraphic" in2="effect1_dropShadow_8_996" result="shape"/>
</filter>
<linearGradient id="paint0_linear_8_996" x1="10" y1="10" x2="10" y2="40" gradientUnits="userSpaceOnUse">
<stop stop-color="#70CCBD"/>
<stop offset="1" stop-color="#8CDDD4"/>
</linearGradient>
</defs>
</svg>
