<svg width="50" height="50" viewBox="0 0 50 50" fill="none" xmlns="http://www.w3.org/2000/svg">
<g filter="url(#filter0_d_8_973)">
<rect x="10" y="10" width="30" height="30" rx="15" fill="url(#paint0_linear_8_973)"/>
</g>
<path fill-rule="evenodd" clip-rule="evenodd" d="M25 32.9999C27.7614 32.9999 30 29.5473 30 25.2883C30 21.0293 27.7614 17.5767 25 17.5767C22.2386 17.5767 20 21.0293 20 25.2883C20 29.5473 22.2386 32.9999 25 32.9999ZM24.1665 31.4029C21.6293 30.8478 22.0634 28.0372 22.0634 28.0372C22.0634 28.0372 22.7563 29.7338 24.4376 30.2834C26.1189 30.833 28.1507 30.027 28.1507 30.027C28.1507 30.027 26.7037 31.9581 24.1665 31.4029Z" fill="white"/>
<defs>
<filter id="filter0_d_8_973" x="0" y="0" width="50" height="50" filterUnits="userSpaceOnUse" color-interpolation-filters="sRGB">
<feFlood flood-opacity="0" result="BackgroundImageFix"/>
<feColorMatrix in="SourceAlpha" type="matrix" values="0 0 0 0 0 0 0 0 0 0 0 0 0 0 0 0 0 0 127 0" result="hardAlpha"/>
<feOffset/>
<feGaussianBlur stdDeviation="5"/>
<feColorMatrix type="matrix" values="0 0 0 0 0.333333 0 0 0 0 0.619608 0 0 0 0 0.87451 0 0 0 0.7 0"/>
<feBlend mode="normal" in2="BackgroundImageFix" result="effect1_dropShadow_8_973"/>
<feBlend mode="normal" in="SourceGraphic" in2="effect1_dropShadow_8_973" result="shape"/>
</filter>
<linearGradient id="paint0_linear_8_973" x1="10" y1="10" x2="10" y2="40" gradientUnits="userSpaceOnUse">
<stop stop-color="#4A90DD"/>
<stop offset="1" stop-color="#6CBDE4"/>
</linearGradient>
</defs>
</svg>
